%TF.GenerationSoftware,KiCad,Pcbnew,(5.1.9)-1*%
%TF.CreationDate,2021-06-21T17:42:21+12:00*%
%TF.ProjectId,Ruderlagen_Geber,52756465-726c-4616-9765-6e5f47656265,rev?*%
%TF.SameCoordinates,Original*%
%TF.FileFunction,Soldermask,Bot*%
%TF.FilePolarity,Negative*%
%FSLAX46Y46*%
G04 Gerber Fmt 4.6, Leading zero omitted, Abs format (unit mm)*
G04 Created by KiCad (PCBNEW (5.1.9)-1) date 2021-06-21 17:42:21*
%MOMM*%
%LPD*%
G01*
G04 APERTURE LIST*
%ADD10O,1.700000X1.700000*%
%ADD11R,1.700000X1.700000*%
%ADD12O,1.600000X1.600000*%
%ADD13C,1.600000*%
%ADD14O,3.600000X2.080000*%
%ADD15R,3.000000X1.600000*%
%ADD16O,3.000000X1.600000*%
%ADD17C,1.800000*%
%ADD18R,1.800000X1.800000*%
%ADD19O,1.600000X2.400000*%
%ADD20R,1.600000X2.400000*%
%ADD21C,1.524000*%
%ADD22R,1.524000X1.524000*%
%ADD23C,2.600000*%
%ADD24O,1.905000X2.000000*%
%ADD25R,1.905000X2.000000*%
%ADD26O,1.850000X3.048000*%
%ADD27C,3.200000*%
%ADD28R,1.500000X1.500000*%
%ADD29C,1.500000*%
%ADD30O,2.800000X2.800000*%
%ADD31C,2.800000*%
%ADD32R,1.600000X1.600000*%
%ADD33R,3.200000X3.200000*%
%ADD34O,3.200000X3.200000*%
%ADD35R,2.200000X2.200000*%
%ADD36O,2.200000X2.200000*%
G04 APERTURE END LIST*
D10*
%TO.C,JP5*%
X164211000Y-111760000D03*
D11*
X166751000Y-111760000D03*
%TD*%
D10*
%TO.C,JP4*%
X164338000Y-104902000D03*
D11*
X166878000Y-104902000D03*
%TD*%
D12*
%TO.C,R26*%
X173736000Y-124460000D03*
D13*
X183896000Y-124460000D03*
%TD*%
D12*
%TO.C,R25*%
X173736000Y-97028000D03*
D13*
X183896000Y-97028000D03*
%TD*%
%TO.C,J10*%
G36*
G01*
X212370002Y-97560000D02*
X209269998Y-97560000D01*
G75*
G02*
X209020000Y-97310002I0J249998D01*
G01*
X209020000Y-95729998D01*
G75*
G02*
X209269998Y-95480000I249998J0D01*
G01*
X212370002Y-95480000D01*
G75*
G02*
X212620000Y-95729998I0J-249998D01*
G01*
X212620000Y-97310002D01*
G75*
G02*
X212370002Y-97560000I-249998J0D01*
G01*
G37*
D14*
X210820000Y-91440000D03*
X210820000Y-86360000D03*
X210820000Y-81280000D03*
%TD*%
D15*
%TO.C,A1*%
X139700000Y-113030000D03*
D16*
X139700000Y-110490000D03*
X139700000Y-107950000D03*
X139700000Y-105410000D03*
X139700000Y-102870000D03*
X139700000Y-100330000D03*
X139700000Y-97790000D03*
X139700000Y-95250000D03*
X139700000Y-92710000D03*
X139700000Y-90170000D03*
X139700000Y-87630000D03*
X139700000Y-85090000D03*
X139700000Y-82550000D03*
X139700000Y-80010000D03*
X139700000Y-77470000D03*
X116840000Y-77470000D03*
X116840000Y-80010000D03*
X116840000Y-82550000D03*
X116840000Y-85090000D03*
X116840000Y-87630000D03*
X116840000Y-90170000D03*
X116840000Y-92710000D03*
X116840000Y-95250000D03*
X116840000Y-97790000D03*
X116840000Y-100330000D03*
X116840000Y-102870000D03*
X116840000Y-105410000D03*
X116840000Y-107950000D03*
X116840000Y-110490000D03*
X116840000Y-113030000D03*
X120650000Y-77470000D03*
X135890000Y-77470000D03*
X120650000Y-113030000D03*
X135890000Y-80010000D03*
X120650000Y-110490000D03*
X135890000Y-82550000D03*
X120650000Y-107950000D03*
X135890000Y-85090000D03*
X120650000Y-105410000D03*
X135890000Y-87630000D03*
X120650000Y-102870000D03*
X135890000Y-90170000D03*
X120650000Y-100330000D03*
X135890000Y-92710000D03*
X120650000Y-97790000D03*
X135890000Y-95250000D03*
X120650000Y-95250000D03*
X135890000Y-97790000D03*
X120650000Y-92710000D03*
X135890000Y-100330000D03*
X120650000Y-90170000D03*
X135890000Y-102870000D03*
X120650000Y-87630000D03*
X135890000Y-105410000D03*
X120650000Y-85090000D03*
X135890000Y-107950000D03*
X120650000Y-82550000D03*
X135890000Y-110490000D03*
X120650000Y-80010000D03*
D15*
X135890000Y-113030000D03*
%TD*%
D12*
%TO.C,R24*%
X189865000Y-137160000D03*
D13*
X179705000Y-137160000D03*
%TD*%
D12*
%TO.C,R23*%
X189865000Y-108585000D03*
D13*
X179705000Y-108585000D03*
%TD*%
D12*
%TO.C,R22*%
X189865000Y-140335000D03*
D13*
X179705000Y-140335000D03*
%TD*%
D12*
%TO.C,R21*%
X189865000Y-112395000D03*
D13*
X179705000Y-112395000D03*
%TD*%
D17*
%TO.C,D10*%
X172085000Y-130175000D03*
D18*
X172085000Y-132715000D03*
%TD*%
D17*
%TO.C,D9*%
X173355000Y-103505000D03*
D18*
X173355000Y-106045000D03*
%TD*%
D17*
%TO.C,D8*%
X172085000Y-137795000D03*
D18*
X172085000Y-140335000D03*
%TD*%
D17*
%TO.C,D7*%
X173355000Y-110490000D03*
D18*
X173355000Y-113030000D03*
%TD*%
D19*
%TO.C,U4*%
X187325000Y-125095000D03*
X194945000Y-132715000D03*
X189865000Y-125095000D03*
X192405000Y-132715000D03*
X192405000Y-125095000D03*
X189865000Y-132715000D03*
X194945000Y-125095000D03*
D20*
X187325000Y-132715000D03*
%TD*%
D19*
%TO.C,U3*%
X187325000Y-97155000D03*
X194945000Y-104775000D03*
X189865000Y-97155000D03*
X192405000Y-104775000D03*
X192405000Y-97155000D03*
X189865000Y-104775000D03*
X194945000Y-97155000D03*
D20*
X187325000Y-104775000D03*
%TD*%
D21*
%TO.C,U2*%
X182219600Y-83464400D03*
X179679600Y-83464400D03*
X184759600Y-83464400D03*
X187299600Y-83464400D03*
D22*
X172059600Y-83464400D03*
D21*
X177139600Y-83464400D03*
X174599600Y-83464400D03*
X189839600Y-83464400D03*
D23*
X160426400Y-83464400D03*
X201447400Y-83464400D03*
X201447400Y-42443400D03*
X160426400Y-42443400D03*
D21*
X189839600Y-42443400D03*
X187299600Y-42443400D03*
X184759600Y-42443400D03*
X182219600Y-42443400D03*
X179679600Y-42443400D03*
X177139600Y-42443400D03*
X174599600Y-42443400D03*
D22*
X172059600Y-42443400D03*
%TD*%
D24*
%TO.C,U1*%
X110490000Y-46355000D03*
X107950000Y-46355000D03*
D25*
X105410000Y-46355000D03*
%TD*%
D26*
%TO.C,SW3*%
X164399001Y-143510000D03*
X159399001Y-143510000D03*
X164399001Y-131010000D03*
X159399001Y-131010000D03*
%TD*%
%TO.C,SW4*%
X151050000Y-143510000D03*
X146050000Y-143510000D03*
X151050000Y-131010000D03*
X146050000Y-131010000D03*
%TD*%
%TO.C,SW1*%
X137080000Y-143510000D03*
X132080000Y-143510000D03*
X137080000Y-131010000D03*
X132080000Y-131010000D03*
%TD*%
%TO.C,SW2*%
X123110000Y-143510000D03*
X118110000Y-143510000D03*
X123110000Y-131010000D03*
X118110000Y-131010000D03*
%TD*%
D10*
%TO.C,J7*%
X120650000Y-124460000D03*
X123190000Y-124460000D03*
X125730000Y-124460000D03*
X128270000Y-124460000D03*
D11*
X130810000Y-124460000D03*
%TD*%
D21*
%TO.C,BZ1*%
X148590000Y-90170000D03*
X146050000Y-90170000D03*
%TD*%
D27*
%TO.C,H4*%
X212000000Y-32000000D03*
%TD*%
%TO.C,H3*%
X90000000Y-32000000D03*
%TD*%
%TO.C,H2*%
X90000000Y-152000000D03*
%TD*%
%TO.C,H1*%
X212000000Y-152000000D03*
%TD*%
D17*
%TO.C,D4*%
X147320000Y-43180000D03*
D18*
X147320000Y-40640000D03*
%TD*%
D12*
%TO.C,R11*%
X132080000Y-39370000D03*
D13*
X142240000Y-39370000D03*
%TD*%
D17*
%TO.C,D6*%
X148717000Y-118110000D03*
D18*
X148717000Y-120650000D03*
%TD*%
D17*
%TO.C,D5*%
X141732000Y-118110000D03*
D18*
X141732000Y-120650000D03*
%TD*%
D12*
%TO.C,R4*%
X109220000Y-115570000D03*
D13*
X99060000Y-115570000D03*
%TD*%
D28*
%TO.C,Q1*%
X126365000Y-66040000D03*
D29*
X126365000Y-60960000D03*
X126365000Y-63500000D03*
%TD*%
D30*
%TO.C,R1*%
X101600000Y-68580000D03*
D31*
X101600000Y-88900000D03*
%TD*%
D14*
%TO.C,J9*%
X210820000Y-106680000D03*
X210820000Y-111760000D03*
X210820000Y-116840000D03*
X210820000Y-121920000D03*
X210820000Y-127000000D03*
X210820000Y-132080000D03*
X210820000Y-137160000D03*
G36*
G01*
X212370002Y-143280000D02*
X209269998Y-143280000D01*
G75*
G02*
X209020000Y-143030002I0J249998D01*
G01*
X209020000Y-141449998D01*
G75*
G02*
X209269998Y-141200000I249998J0D01*
G01*
X212370002Y-141200000D01*
G75*
G02*
X212620000Y-141449998I0J-249998D01*
G01*
X212620000Y-143030002D01*
G75*
G02*
X212370002Y-143280000I-249998J0D01*
G01*
G37*
%TD*%
D12*
%TO.C,R20*%
X156210000Y-97790000D03*
D13*
X146050000Y-97790000D03*
%TD*%
D12*
%TO.C,R19*%
X156083000Y-101600000D03*
D13*
X145923000Y-101600000D03*
%TD*%
D12*
%TO.C,R6*%
X146050000Y-105410000D03*
D13*
X156210000Y-105410000D03*
%TD*%
D12*
%TO.C,R5*%
X109855000Y-66802000D03*
D13*
X120015000Y-66802000D03*
%TD*%
D12*
%TO.C,R3*%
X109855000Y-59182000D03*
D13*
X120015000Y-59182000D03*
%TD*%
D12*
%TO.C,R2*%
X120015000Y-62992000D03*
D13*
X109855000Y-62992000D03*
%TD*%
D14*
%TO.C,J4*%
X91440000Y-96520000D03*
G36*
G01*
X89889998Y-90400000D02*
X92990002Y-90400000D01*
G75*
G02*
X93240000Y-90649998I0J-249998D01*
G01*
X93240000Y-92230002D01*
G75*
G02*
X92990002Y-92480000I-249998J0D01*
G01*
X89889998Y-92480000D01*
G75*
G02*
X89640000Y-92230002I0J249998D01*
G01*
X89640000Y-90649998D01*
G75*
G02*
X89889998Y-90400000I249998J0D01*
G01*
G37*
%TD*%
%TO.C,J3*%
X91440000Y-81280000D03*
X91440000Y-76200000D03*
G36*
G01*
X89889998Y-70080000D02*
X92990002Y-70080000D01*
G75*
G02*
X93240000Y-70329998I0J-249998D01*
G01*
X93240000Y-71910002D01*
G75*
G02*
X92990002Y-72160000I-249998J0D01*
G01*
X89889998Y-72160000D01*
G75*
G02*
X89640000Y-71910002I0J249998D01*
G01*
X89640000Y-70329998D01*
G75*
G02*
X89889998Y-70080000I249998J0D01*
G01*
G37*
%TD*%
%TO.C,J2*%
X91440000Y-60960000D03*
G36*
G01*
X89889998Y-54840000D02*
X92990002Y-54840000D01*
G75*
G02*
X93240000Y-55089998I0J-249998D01*
G01*
X93240000Y-56670002D01*
G75*
G02*
X92990002Y-56920000I-249998J0D01*
G01*
X89889998Y-56920000D01*
G75*
G02*
X89640000Y-56670002I0J249998D01*
G01*
X89640000Y-55089998D01*
G75*
G02*
X89889998Y-54840000I249998J0D01*
G01*
G37*
%TD*%
%TO.C,J1*%
X91440000Y-45720000D03*
G36*
G01*
X89889998Y-39600000D02*
X92990002Y-39600000D01*
G75*
G02*
X93240000Y-39849998I0J-249998D01*
G01*
X93240000Y-41430002D01*
G75*
G02*
X92990002Y-41680000I-249998J0D01*
G01*
X89889998Y-41680000D01*
G75*
G02*
X89640000Y-41430002I0J249998D01*
G01*
X89640000Y-39849998D01*
G75*
G02*
X89889998Y-39600000I249998J0D01*
G01*
G37*
%TD*%
D17*
%TO.C,D2*%
X101600000Y-120650000D03*
D18*
X99060000Y-120650000D03*
%TD*%
D13*
%TO.C,C6*%
X152440000Y-110490000D03*
D32*
X154940000Y-110490000D03*
%TD*%
D13*
%TO.C,C10*%
X111760000Y-82630000D03*
X111760000Y-87630000D03*
%TD*%
%TO.C,C4*%
X102870000Y-40600000D03*
D32*
X102870000Y-38100000D03*
%TD*%
D13*
%TO.C,C5*%
X114220000Y-39370000D03*
X109220000Y-39370000D03*
%TD*%
%TO.C,C2*%
X99140000Y-100330000D03*
X104140000Y-100330000D03*
%TD*%
%TO.C,C1*%
X99140000Y-58420000D03*
X104140000Y-58420000D03*
%TD*%
%TO.C,C3*%
X104140000Y-93980000D03*
X99140000Y-93980000D03*
%TD*%
%TO.C,C7*%
X122555000Y-45085000D03*
X117555000Y-45085000D03*
%TD*%
D32*
%TO.C,C8*%
X121285000Y-51435000D03*
D13*
X118785000Y-51435000D03*
%TD*%
%TO.C,C9*%
X111760000Y-110410000D03*
X111760000Y-105410000D03*
%TD*%
%TO.C,C11*%
X182880000Y-132635000D03*
X182880000Y-127635000D03*
%TD*%
%TO.C,C12*%
X182880000Y-100330000D03*
X182880000Y-105330000D03*
%TD*%
D33*
%TO.C,D1*%
X114300000Y-52705000D03*
D34*
X99060000Y-52705000D03*
%TD*%
D35*
%TO.C,D3*%
X118110000Y-39370000D03*
D36*
X128270000Y-39370000D03*
%TD*%
D18*
%TO.C,D11*%
X155575000Y-120650000D03*
D17*
X155575000Y-118110000D03*
%TD*%
%TO.C,J5*%
G36*
G01*
X89889998Y-105640000D02*
X92990002Y-105640000D01*
G75*
G02*
X93240000Y-105889998I0J-249998D01*
G01*
X93240000Y-107470002D01*
G75*
G02*
X92990002Y-107720000I-249998J0D01*
G01*
X89889998Y-107720000D01*
G75*
G02*
X89640000Y-107470002I0J249998D01*
G01*
X89640000Y-105889998D01*
G75*
G02*
X89889998Y-105640000I249998J0D01*
G01*
G37*
D14*
X91440000Y-111760000D03*
X91440000Y-116840000D03*
%TD*%
%TO.C,J6*%
X91440000Y-142240000D03*
X91440000Y-137160000D03*
X91440000Y-132080000D03*
G36*
G01*
X89889998Y-125960000D02*
X92990002Y-125960000D01*
G75*
G02*
X93240000Y-126209998I0J-249998D01*
G01*
X93240000Y-127790002D01*
G75*
G02*
X92990002Y-128040000I-249998J0D01*
G01*
X89889998Y-128040000D01*
G75*
G02*
X89640000Y-127790002I0J249998D01*
G01*
X89640000Y-126209998D01*
G75*
G02*
X89889998Y-125960000I249998J0D01*
G01*
G37*
%TD*%
%TO.C,J8*%
G36*
G01*
X212370002Y-73430000D02*
X209269998Y-73430000D01*
G75*
G02*
X209020000Y-73180002I0J249998D01*
G01*
X209020000Y-71599998D01*
G75*
G02*
X209269998Y-71350000I249998J0D01*
G01*
X212370002Y-71350000D01*
G75*
G02*
X212620000Y-71599998I0J-249998D01*
G01*
X212620000Y-73180002D01*
G75*
G02*
X212370002Y-73430000I-249998J0D01*
G01*
G37*
X210820000Y-67310000D03*
%TD*%
D11*
%TO.C,JP1*%
X102870000Y-64135000D03*
D10*
X100330000Y-64135000D03*
%TD*%
D11*
%TO.C,JP2*%
X100330000Y-111760000D03*
D10*
X102870000Y-111760000D03*
%TD*%
%TO.C,JP3*%
X102870000Y-106680000D03*
D11*
X100330000Y-106680000D03*
%TD*%
D12*
%TO.C,R7*%
X111760000Y-139700000D03*
D13*
X101600000Y-139700000D03*
%TD*%
%TO.C,R8*%
X101600000Y-135890000D03*
D12*
X111760000Y-135890000D03*
%TD*%
D13*
%TO.C,R9*%
X101600000Y-143510000D03*
D12*
X111760000Y-143510000D03*
%TD*%
%TO.C,R10*%
X111760000Y-132080000D03*
D13*
X101600000Y-132080000D03*
%TD*%
%TO.C,R12*%
X101600000Y-128270000D03*
D12*
X111760000Y-128270000D03*
%TD*%
%TO.C,R13*%
X153670000Y-86995000D03*
D13*
X143510000Y-86995000D03*
%TD*%
%TO.C,R14*%
X143510000Y-80645000D03*
D12*
X153670000Y-80645000D03*
%TD*%
%TO.C,R15*%
X153670000Y-83820000D03*
D13*
X143510000Y-83820000D03*
%TD*%
%TO.C,R16*%
X143510000Y-77470000D03*
D12*
X153670000Y-77470000D03*
%TD*%
D13*
%TO.C,R17*%
X144018000Y-72390000D03*
D12*
X154178000Y-72390000D03*
%TD*%
%TO.C,R18*%
X154178000Y-68580000D03*
D13*
X144018000Y-68580000D03*
%TD*%
D12*
%TO.C,R27*%
X146050000Y-93980000D03*
D13*
X156210000Y-93980000D03*
%TD*%
M02*
