%TF.GenerationSoftware,KiCad,Pcbnew,(5.1.9)-1*%
%TF.CreationDate,2021-08-15T20:10:53+12:00*%
%TF.ProjectId,PyPilot_Main,50795069-6c6f-4745-9f4d-61696e2e6b69,rev?*%
%TF.SameCoordinates,Original*%
%TF.FileFunction,Copper,L2,Bot*%
%TF.FilePolarity,Positive*%
%FSLAX46Y46*%
G04 Gerber Fmt 4.6, Leading zero omitted, Abs format (unit mm)*
G04 Created by KiCad (PCBNEW (5.1.9)-1) date 2021-08-15 20:10:53*
%MOMM*%
%LPD*%
G01*
G04 APERTURE LIST*
%TA.AperFunction,ComponentPad*%
%ADD10C,1.800000*%
%TD*%
%TA.AperFunction,ComponentPad*%
%ADD11C,1.524000*%
%TD*%
%TA.AperFunction,ComponentPad*%
%ADD12C,3.500000*%
%TD*%
%TA.AperFunction,ComponentPad*%
%ADD13O,1.800000X2.400000*%
%TD*%
%TA.AperFunction,ComponentPad*%
%ADD14O,1.700000X1.700000*%
%TD*%
%TA.AperFunction,ComponentPad*%
%ADD15R,1.700000X1.700000*%
%TD*%
%TA.AperFunction,ComponentPad*%
%ADD16O,1.600000X1.600000*%
%TD*%
%TA.AperFunction,ComponentPad*%
%ADD17C,1.600000*%
%TD*%
%TA.AperFunction,ComponentPad*%
%ADD18R,1.800000X1.800000*%
%TD*%
%TA.AperFunction,ComponentPad*%
%ADD19O,1.600000X2.400000*%
%TD*%
%TA.AperFunction,ComponentPad*%
%ADD20R,1.600000X2.400000*%
%TD*%
%TA.AperFunction,ComponentPad*%
%ADD21R,1.600000X1.600000*%
%TD*%
%TA.AperFunction,ComponentPad*%
%ADD22O,1.500000X2.200000*%
%TD*%
%TA.AperFunction,ComponentPad*%
%ADD23O,2.500000X1.500000*%
%TD*%
%TA.AperFunction,ComponentPad*%
%ADD24O,2.200000X1.500000*%
%TD*%
%TA.AperFunction,ComponentPad*%
%ADD25R,2.400000X2.400000*%
%TD*%
%TA.AperFunction,ComponentPad*%
%ADD26C,2.400000*%
%TD*%
%TA.AperFunction,Conductor*%
%ADD27C,0.300000*%
%TD*%
%TA.AperFunction,Conductor*%
%ADD28C,0.500000*%
%TD*%
%TA.AperFunction,Conductor*%
%ADD29C,1.000000*%
%TD*%
%TA.AperFunction,Conductor*%
%ADD30C,0.250000*%
%TD*%
G04 APERTURE END LIST*
D10*
%TO.P,U3,3*%
%TO.N,RPi3.3V*%
X46430000Y-112250000D03*
%TO.P,U3,2*%
%TO.N,GND*%
X43890000Y-112250000D03*
%TO.P,U3,1*%
%TO.N,IR-Remote*%
%TA.AperFunction,ComponentPad*%
G36*
G01*
X40450000Y-112901600D02*
X40450000Y-111598400D01*
G75*
G02*
X40698400Y-111350000I248400J0D01*
G01*
X42001600Y-111350000D01*
G75*
G02*
X42250000Y-111598400I0J-248400D01*
G01*
X42250000Y-112901600D01*
G75*
G02*
X42001600Y-113150000I-248400J0D01*
G01*
X40698400Y-113150000D01*
G75*
G02*
X40450000Y-112901600I0J248400D01*
G01*
G37*
%TD.AperFunction*%
%TD*%
D11*
%TO.P,U2,*%
%TO.N,*%
X76192000Y-37990000D03*
X76192000Y-40530000D03*
X76192000Y-65163000D03*
X76192000Y-67733400D03*
D12*
%TO.P,U2,2*%
%TO.N,N/C*%
X77216000Y-72193000D03*
%TO.P,U2,3*%
X77216000Y-33505000D03*
%TO.P,U2,4*%
X37322000Y-33505000D03*
%TO.P,U2,1*%
X37322000Y-72193000D03*
D11*
%TO.P,U2,12*%
%TO.N,DISP1_CE*%
X38310000Y-66943000D03*
%TO.P,U2,11*%
%TO.N,DISP1_RST*%
X38300000Y-64423000D03*
%TO.P,U2,10*%
%TO.N,DISP1_DC*%
X38300000Y-61883000D03*
%TO.P,U2,9*%
%TO.N,DISP1_DIN(MOSI)*%
X38300000Y-59343000D03*
%TO.P,U2,8*%
%TO.N,DISP1_CLK*%
X38300000Y-56803000D03*
%TO.P,U2,7*%
%TO.N,+3V3*%
X38300000Y-54263000D03*
%TO.P,U2,6*%
%TO.N,GND*%
X38300000Y-51723000D03*
%TO.P,U2,5*%
%TO.N,Net-(R2-Pad2)*%
X38300000Y-49183000D03*
%TD*%
%TO.P,U4,5*%
%TO.N,Net-(R3-Pad2)*%
X83300000Y-49183000D03*
%TO.P,U4,6*%
%TO.N,GND*%
X83300000Y-51723000D03*
%TO.P,U4,7*%
%TO.N,+3V3*%
X83300000Y-54263000D03*
%TO.P,U4,8*%
%TO.N,DISP2_CLK*%
X83300000Y-56803000D03*
%TO.P,U4,9*%
%TO.N,DISP2_DIN(MOSI)*%
X83300000Y-59343000D03*
%TO.P,U4,10*%
%TO.N,DISP2_DC*%
X83300000Y-61883000D03*
%TO.P,U4,11*%
%TO.N,DISP2_RST*%
X83300000Y-64423000D03*
%TO.P,U4,12*%
%TO.N,DISP2_CE*%
X83310000Y-66943000D03*
D12*
%TO.P,U4,1*%
%TO.N,N/C*%
X82322000Y-72193000D03*
%TO.P,U4,4*%
X82322000Y-33505000D03*
%TO.P,U4,3*%
X122216000Y-33505000D03*
%TO.P,U4,2*%
X122216000Y-72193000D03*
D11*
%TO.P,U4,*%
%TO.N,*%
X121192000Y-67733400D03*
X121192000Y-65163000D03*
X121192000Y-40530000D03*
X121192000Y-37990000D03*
%TD*%
D13*
%TO.P,BZ1,2*%
%TO.N,GND2*%
X97343000Y-72525400D03*
%TO.P,BZ1,1*%
%TO.N,Buzzer*%
%TA.AperFunction,ComponentPad*%
G36*
G01*
X88956600Y-73275400D02*
X88956600Y-71775400D01*
G75*
G02*
X89406600Y-71325400I450000J0D01*
G01*
X90306600Y-71325400D01*
G75*
G02*
X90756600Y-71775400I0J-450000D01*
G01*
X90756600Y-73275400D01*
G75*
G02*
X90306600Y-73725400I-450000J0D01*
G01*
X89406600Y-73725400D01*
G75*
G02*
X88956600Y-73275400I0J450000D01*
G01*
G37*
%TD.AperFunction*%
%TD*%
D14*
%TO.P,J4,6*%
%TO.N,Net-(J4-Pad6)*%
X86476000Y-81166000D03*
%TO.P,J4,5*%
%TO.N,Net-(J4-Pad5)*%
X89016000Y-81166000D03*
%TO.P,J4,4*%
%TO.N,Net-(J4-Pad4)*%
X91556000Y-81166000D03*
%TO.P,J4,3*%
%TO.N,Net-(J4-Pad3)*%
X94096000Y-81166000D03*
%TO.P,J4,2*%
%TO.N,3V3*%
X96636000Y-81166000D03*
D15*
%TO.P,J4,1*%
%TO.N,GND2*%
X99176000Y-81166000D03*
%TD*%
D14*
%TO.P,JP4,2*%
%TO.N,Net-(JP4-Pad2)*%
X33850000Y-63210000D03*
D15*
%TO.P,JP4,1*%
%TO.N,TXRudderAngle3.3V*%
X33850000Y-65750000D03*
%TD*%
D14*
%TO.P,JP3,2*%
%TO.N,Net-(JP3-Pad2)*%
X34100000Y-54210000D03*
D15*
%TO.P,JP3,1*%
%TO.N,RXRudderAngle3.3V*%
X34100000Y-56750000D03*
%TD*%
D11*
%TO.P,U5,4*%
%TO.N,MPU9250_SDA*%
X47390000Y-100190000D03*
%TO.P,U5,3*%
%TO.N,MPU9250_SCL*%
X47390000Y-102730000D03*
%TO.P,U5,2*%
%TO.N,GND*%
X47390000Y-105270000D03*
%TO.P,U5,1*%
%TO.N,RPi3.3V*%
X47390000Y-107810000D03*
%TD*%
D16*
%TO.P,R16,2*%
%TO.N,RPI_AUX*%
X48510000Y-77750000D03*
D17*
%TO.P,R16,1*%
%TO.N,Net-(D7-Pad2)*%
X38350000Y-77750000D03*
%TD*%
D16*
%TO.P,R15,2*%
%TO.N,Arduino_AUX*%
X122480000Y-49725000D03*
D17*
%TO.P,R15,1*%
%TO.N,Net-(D6-Pad2)*%
X122480000Y-59885000D03*
%TD*%
D16*
%TO.P,R2,2*%
%TO.N,Net-(R2-Pad2)*%
X44505000Y-56660000D03*
D17*
%TO.P,R2,1*%
%TO.N,+3V3*%
X44505000Y-46500000D03*
%TD*%
D10*
%TO.P,D7,2*%
%TO.N,Net-(D7-Pad2)*%
X34215000Y-77665000D03*
D18*
%TO.P,D7,1*%
%TO.N,GND*%
X34215000Y-80205000D03*
%TD*%
D10*
%TO.P,D6,2*%
%TO.N,Net-(D6-Pad2)*%
X122480000Y-77665000D03*
D18*
%TO.P,D6,1*%
%TO.N,GND2*%
X122480000Y-80205000D03*
%TD*%
D19*
%TO.P,U7,8*%
%TO.N,RudderAngleRS422_A+*%
X48950000Y-36115000D03*
%TO.P,U7,4*%
%TO.N,GND*%
X56570000Y-43735000D03*
%TO.P,U7,7*%
%TO.N,RudderAngleRS422_B-*%
X51490000Y-36115000D03*
%TO.P,U7,3*%
%TO.N,Net-(JP4-Pad2)*%
X54030000Y-43735000D03*
%TO.P,U7,6*%
%TO.N,RudderAngleRS422_Z-*%
X54030000Y-36115000D03*
%TO.P,U7,2*%
%TO.N,Net-(JP3-Pad2)*%
X51490000Y-43735000D03*
%TO.P,U7,5*%
%TO.N,RudderAngleRS422_Y+*%
X56570000Y-36115000D03*
D20*
%TO.P,U7,1*%
%TO.N,+3V3*%
X48950000Y-43735000D03*
%TD*%
D19*
%TO.P,U6,8*%
%TO.N,MotorControllerRS422_A+*%
X66095000Y-36115000D03*
%TO.P,U6,4*%
%TO.N,GND*%
X73715000Y-43735000D03*
%TO.P,U6,7*%
%TO.N,MotorControllerRS422_B-*%
X68635000Y-36115000D03*
%TO.P,U6,3*%
%TO.N,TXMotorController3.3V*%
X71175000Y-43735000D03*
%TO.P,U6,6*%
%TO.N,MotorControllerRS422_Z-*%
X71175000Y-36115000D03*
%TO.P,U6,2*%
%TO.N,RXMotorController3.3V*%
X68635000Y-43735000D03*
%TO.P,U6,5*%
%TO.N,MotorControllerRS422_Y+*%
X73715000Y-36115000D03*
D20*
%TO.P,U6,1*%
%TO.N,+3V3*%
X66095000Y-43735000D03*
%TD*%
D16*
%TO.P,R7,2*%
%TO.N,RXMotorController3.3V*%
X66095000Y-48815000D03*
D17*
%TO.P,R7,1*%
%TO.N,Net-(D5-Pad1)*%
X66095000Y-58975000D03*
%TD*%
D16*
%TO.P,R9,2*%
%TO.N,MotorControllerRS422_B-*%
X70540000Y-32940000D03*
D17*
%TO.P,R9,1*%
%TO.N,MotorControllerRS422_A+*%
X60380000Y-32940000D03*
%TD*%
D16*
%TO.P,R8,2*%
%TO.N,RudderAngleRS422_B-*%
X54030000Y-32940000D03*
D17*
%TO.P,R8,1*%
%TO.N,RudderAngleRS422_A+*%
X43870000Y-32940000D03*
%TD*%
D16*
%TO.P,R6,2*%
%TO.N,RXRudderAngle3.3V*%
X118875000Y-84815000D03*
D17*
%TO.P,R6,1*%
%TO.N,Net-(D4-Pad1)*%
X118875000Y-94975000D03*
%TD*%
D16*
%TO.P,R5,2*%
%TO.N,TXMotorController3.3V*%
X69270000Y-48815000D03*
D17*
%TO.P,R5,1*%
%TO.N,Net-(D3-Pad1)*%
X69270000Y-58975000D03*
%TD*%
D16*
%TO.P,R4,2*%
%TO.N,TXRudderAngle3.3V*%
X122050000Y-84815000D03*
D17*
%TO.P,R4,1*%
%TO.N,Net-(D2-Pad1)*%
X122050000Y-94975000D03*
%TD*%
D10*
%TO.P,D5,2*%
%TO.N,+3V3*%
X65706000Y-64270000D03*
D18*
%TO.P,D5,1*%
%TO.N,Net-(D5-Pad1)*%
X65706000Y-61730000D03*
%TD*%
D10*
%TO.P,D4,2*%
%TO.N,+3V3*%
X122850000Y-106790000D03*
D18*
%TO.P,D4,1*%
%TO.N,Net-(D4-Pad1)*%
X122850000Y-104250000D03*
%TD*%
D10*
%TO.P,D3,2*%
%TO.N,+3V3*%
X70532000Y-64270000D03*
D18*
%TO.P,D3,1*%
%TO.N,Net-(D3-Pad1)*%
X70532000Y-61730000D03*
%TD*%
D10*
%TO.P,D2,2*%
%TO.N,+3V3*%
X122850000Y-100290000D03*
D18*
%TO.P,D2,1*%
%TO.N,Net-(D2-Pad1)*%
X122850000Y-97750000D03*
%TD*%
D17*
%TO.P,C6,2*%
%TO.N,+3V3*%
X44505000Y-42385000D03*
%TO.P,C6,1*%
%TO.N,GND*%
X44505000Y-37385000D03*
%TD*%
%TO.P,C5,2*%
%TO.N,+3V3*%
X61650000Y-43020000D03*
%TO.P,C5,1*%
%TO.N,GND*%
X61650000Y-38020000D03*
%TD*%
%TO.P,C4,2*%
%TO.N,GND*%
X91365000Y-25635000D03*
D21*
%TO.P,C4,1*%
%TO.N,+5V*%
X91365000Y-28135000D03*
%TD*%
D17*
%TO.P,C2,2*%
%TO.N,GND*%
X85015000Y-24405000D03*
%TO.P,C2,1*%
%TO.N,+5V*%
X85015000Y-29405000D03*
%TD*%
D10*
%TO.P,D1,2*%
%TO.N,+3V3*%
X106640000Y-42000000D03*
D18*
%TO.P,D1,1*%
%TO.N,Net-(D1-Pad1)*%
X104100000Y-42000000D03*
%TD*%
D11*
%TO.P,U1,3*%
%TO.N,GND*%
X112955000Y-31945000D03*
%TO.P,U1,2*%
%TO.N,+3V3*%
X110415000Y-31945000D03*
%TO.P,U1,1*%
%TO.N,+5V*%
X107875000Y-31945000D03*
%TD*%
D16*
%TO.P,R14,2*%
%TO.N,GND*%
X88825000Y-42740000D03*
D17*
%TO.P,R14,1*%
%TO.N,KeyPad*%
X98985000Y-42740000D03*
%TD*%
D16*
%TO.P,R13,2*%
%TO.N,KeyPad*%
X89460000Y-54170000D03*
D17*
%TO.P,R13,1*%
%TO.N,Net-(J4-Pad6)*%
X89460000Y-64330000D03*
%TD*%
D16*
%TO.P,R12,2*%
%TO.N,KeyPad*%
X92635000Y-54170000D03*
D17*
%TO.P,R12,1*%
%TO.N,Net-(J4-Pad5)*%
X92635000Y-64330000D03*
%TD*%
D16*
%TO.P,R11,2*%
%TO.N,KeyPad*%
X95810000Y-54170000D03*
D17*
%TO.P,R11,1*%
%TO.N,Net-(J4-Pad4)*%
X95810000Y-64330000D03*
%TD*%
D16*
%TO.P,R10,2*%
%TO.N,KeyPad*%
X98988000Y-54170000D03*
D17*
%TO.P,R10,1*%
%TO.N,Net-(J4-Pad3)*%
X98988000Y-64330000D03*
%TD*%
D16*
%TO.P,R3,2*%
%TO.N,Net-(R3-Pad2)*%
X88940000Y-46000000D03*
D17*
%TO.P,R3,1*%
%TO.N,+3V3*%
X99100000Y-46000000D03*
%TD*%
D16*
%TO.P,R1,2*%
%TO.N,Net-(D1-Pad1)*%
X98985000Y-39565000D03*
D17*
%TO.P,R1,1*%
%TO.N,GND*%
X88825000Y-39565000D03*
%TD*%
D14*
%TO.P,J2,40*%
%TO.N,N/C*%
X61650000Y-86280000D03*
%TO.P,J2,39*%
X61650000Y-88820000D03*
%TO.P,J2,38*%
X64190000Y-86280000D03*
%TO.P,J2,37*%
%TO.N,KB_Tack*%
X64190000Y-88820000D03*
%TO.P,J2,36*%
%TO.N,RPI_AUX*%
X66730000Y-86280000D03*
%TO.P,J2,35*%
%TO.N,N/C*%
X66730000Y-88820000D03*
%TO.P,J2,34*%
X69270000Y-86280000D03*
%TO.P,J2,33*%
X69270000Y-88820000D03*
%TO.P,J2,32*%
X71810000Y-86280000D03*
%TO.P,J2,31*%
%TO.N,KB_Port_10*%
X71810000Y-88820000D03*
%TO.P,J2,30*%
%TO.N,N/C*%
X74350000Y-86280000D03*
%TO.P,J2,29*%
%TO.N,KB_Stb_10*%
X74350000Y-88820000D03*
%TO.P,J2,28*%
%TO.N,N/C*%
X76890000Y-86280000D03*
%TO.P,J2,27*%
X76890000Y-88820000D03*
%TO.P,J2,26*%
X79430000Y-86280000D03*
%TO.P,J2,25*%
X79430000Y-88820000D03*
%TO.P,J2,24*%
%TO.N,DISP1_CE*%
X81970000Y-86280000D03*
%TO.P,J2,23*%
%TO.N,DISP1_CLK*%
X81970000Y-88820000D03*
%TO.P,J2,22*%
%TO.N,DISP1_DC*%
X84510000Y-86280000D03*
%TO.P,J2,21*%
%TO.N,N/C*%
X84510000Y-88820000D03*
%TO.P,J2,20*%
X87050000Y-86280000D03*
%TO.P,J2,19*%
%TO.N,DISP1_DIN(MOSI)*%
X87050000Y-88820000D03*
%TO.P,J2,18*%
%TO.N,DISP1_RST*%
X89590000Y-86280000D03*
%TO.P,J2,17*%
%TO.N,N/C*%
X89590000Y-88820000D03*
%TO.P,J2,16*%
%TO.N,KB_Menue*%
X92130000Y-86280000D03*
%TO.P,J2,15*%
%TO.N,KB_Stb_1*%
X92130000Y-88820000D03*
%TO.P,J2,14*%
%TO.N,N/C*%
X94670000Y-86280000D03*
%TO.P,J2,13*%
%TO.N,KB_Port_1*%
X94670000Y-88820000D03*
%TO.P,J2,12*%
%TO.N,KB_Select*%
X97210000Y-86280000D03*
%TO.P,J2,11*%
%TO.N,KB_Auto*%
X97210000Y-88820000D03*
%TO.P,J2,10*%
%TO.N,RXMotorController3.3V*%
X99750000Y-86280000D03*
%TO.P,J2,9*%
%TO.N,N/C*%
X99750000Y-88820000D03*
%TO.P,J2,8*%
%TO.N,TXMotorController3.3V*%
X102290000Y-86280000D03*
%TO.P,J2,7*%
%TO.N,IR-Remote*%
X102290000Y-88820000D03*
%TO.P,J2,6*%
%TO.N,GND2*%
X104830000Y-86280000D03*
%TO.P,J2,5*%
%TO.N,MPU9250_SCL*%
X104830000Y-88820000D03*
%TO.P,J2,4*%
%TO.N,5VBridge*%
X107370000Y-86280000D03*
%TO.P,J2,3*%
%TO.N,MPU9250_SDA*%
X107370000Y-88820000D03*
%TO.P,J2,2*%
%TO.N,5VBridge*%
X109910000Y-86280000D03*
D15*
%TO.P,J2,1*%
%TO.N,RPi3.3V*%
X109910000Y-88820000D03*
%TD*%
D17*
%TO.P,C3,2*%
%TO.N,GND*%
X98985000Y-25635000D03*
D21*
%TO.P,C3,1*%
%TO.N,+3V3*%
X98985000Y-28135000D03*
%TD*%
D17*
%TO.P,C1,2*%
%TO.N,GND*%
X99065000Y-35120000D03*
%TO.P,C1,1*%
%TO.N,+3V3*%
X104065000Y-35120000D03*
%TD*%
D22*
%TO.P,A1,28*%
%TO.N,Net-(A1-Pad28)*%
X107878000Y-49450000D03*
%TO.P,A1,27*%
%TO.N,KeyPad*%
X105338000Y-49450000D03*
D23*
%TO.P,A1,26*%
%TO.N,N/C*%
X105719000Y-66087000D03*
%TO.P,A1,25*%
X105719000Y-68627000D03*
%TO.P,A1,27*%
%TO.N,KeyPad*%
X105719000Y-58213000D03*
D24*
%TO.P,A1,28*%
%TO.N,Net-(A1-Pad28)*%
X105719000Y-55673000D03*
D23*
%TO.P,A1,24*%
%TO.N,5VBridge*%
X102798000Y-77390000D03*
%TO.P,A1,23*%
%TO.N,GND2*%
X102798000Y-74850000D03*
%TO.P,A1,22*%
%TO.N,N/C*%
X102798000Y-72310000D03*
%TO.P,A1,21*%
%TO.N,3V3*%
X102798000Y-69770000D03*
%TO.P,A1,20*%
%TO.N,KB_Stb_1*%
X102798000Y-67230000D03*
%TO.P,A1,19*%
%TO.N,KB_Port_10*%
X102798000Y-64690000D03*
%TO.P,A1,18*%
%TO.N,KB_Stb_10*%
X102798000Y-62150000D03*
%TO.P,A1,17*%
%TO.N,KB_Tack*%
X102798000Y-59610000D03*
%TO.P,A1,16*%
%TO.N,DISP2_CLK*%
X102798000Y-57070000D03*
%TO.P,A1,15*%
%TO.N,N/C*%
X102798000Y-54530000D03*
%TO.P,A1,14*%
%TO.N,DISP2_DIN(MOSI)*%
X102798000Y-51990000D03*
%TO.P,A1,13*%
%TO.N,DISP2_CE*%
X102798000Y-49450000D03*
%TO.P,A1,12*%
%TO.N,DISP2_DC*%
X118038000Y-49450000D03*
%TO.P,A1,11*%
%TO.N,DISP2_RST*%
X118038000Y-51990000D03*
%TO.P,A1,10*%
%TO.N,Buzzer*%
X118038000Y-54530000D03*
%TO.P,A1,9*%
%TO.N,Arduino_AUX*%
X118038000Y-57070000D03*
%TO.P,A1,8*%
%TO.N,KB_Port_1*%
X118038000Y-59610000D03*
%TO.P,A1,7*%
%TO.N,KB_Menue*%
X118038000Y-62150000D03*
%TO.P,A1,6*%
%TO.N,KB_Select*%
X118038000Y-64690000D03*
%TO.P,A1,5*%
%TO.N,KB_Auto*%
X118038000Y-67230000D03*
%TO.P,A1,4*%
%TO.N,N/C*%
X118038000Y-69770000D03*
%TO.P,A1,3*%
X118038000Y-72310000D03*
%TO.P,A1,2*%
%TO.N,RXRudderAngle3.3V*%
X118038000Y-74850000D03*
%TO.P,A1,1*%
%TO.N,TXRudderAngle3.3V*%
X118038000Y-77390000D03*
%TD*%
D25*
%TO.P,J1,1*%
%TO.N,+5V*%
X79935000Y-27500000D03*
D26*
%TO.P,J1,2*%
%TO.N,GND*%
X76435000Y-27500000D03*
%TO.P,J1,3*%
X72935000Y-27500000D03*
%TD*%
D25*
%TO.P,J3,1*%
%TO.N,MotorControllerRS422_Y+*%
X68251000Y-27500000D03*
D26*
%TO.P,J3,2*%
%TO.N,MotorControllerRS422_Z-*%
X64751000Y-27500000D03*
%TO.P,J3,3*%
%TO.N,MotorControllerRS422_B-*%
X61251000Y-27500000D03*
%TO.P,J3,4*%
%TO.N,MotorControllerRS422_A+*%
X57751000Y-27500000D03*
%TO.P,J3,5*%
%TO.N,RudderAngleRS422_Y+*%
X54251000Y-27500000D03*
%TO.P,J3,6*%
%TO.N,RudderAngleRS422_Z-*%
X50751000Y-27500000D03*
%TO.P,J3,7*%
%TO.N,RudderAngleRS422_B-*%
X47251000Y-27500000D03*
%TO.P,J3,8*%
%TO.N,RudderAngleRS422_A+*%
X43751000Y-27500000D03*
%TD*%
D11*
%TO.P,JP1,2*%
%TO.N,5VBridge*%
X111685000Y-82745000D03*
%TO.P,JP1,1*%
%TO.N,+5V*%
X111685000Y-38549000D03*
%TD*%
%TO.P,JP2,1*%
%TO.N,GND2*%
X109145000Y-82745000D03*
%TO.P,JP2,2*%
%TO.N,GND*%
X109145000Y-38549000D03*
%TD*%
D27*
%TO.N,KeyPad*%
X100637990Y-55819990D02*
X103815771Y-55819990D01*
D28*
X98988000Y-54170000D02*
X100637990Y-55819990D01*
X105338000Y-49450000D02*
X105338000Y-48579000D01*
X105338000Y-48579000D02*
X106478000Y-47439000D01*
X106478000Y-47439000D02*
X109145000Y-47439000D01*
X109145000Y-47439000D02*
X109653000Y-47947000D01*
X109653000Y-47947000D02*
X109653000Y-55059000D01*
X106499000Y-58213000D02*
X105719000Y-58213000D01*
X109653000Y-55059000D02*
X106499000Y-58213000D01*
D27*
X105719000Y-57864641D02*
X105719000Y-58213000D01*
X103811000Y-55821000D02*
X105719000Y-57864641D01*
D28*
X89460000Y-54170000D02*
X92635000Y-54170000D01*
X92635000Y-54170000D02*
X95810000Y-54170000D01*
X95810000Y-54170000D02*
X98988000Y-54170000D01*
D29*
%TO.N,+5V*%
X79935000Y-27500000D02*
X79935000Y-28770000D01*
X80570000Y-29405000D02*
X85015000Y-29405000D01*
X79935000Y-28770000D02*
X80570000Y-29405000D01*
X90095000Y-29405000D02*
X91365000Y-28135000D01*
X85015000Y-29405000D02*
X90095000Y-29405000D01*
X96975000Y-31945000D02*
X107875000Y-31945000D01*
X93165000Y-28135000D02*
X96975000Y-31945000D01*
X91365000Y-28135000D02*
X93165000Y-28135000D01*
D28*
%TO.N,DISP2_CLK*%
X102531000Y-56803000D02*
X102798000Y-57070000D01*
X83300000Y-56803000D02*
X102531000Y-56803000D01*
%TO.N,DISP2_DIN(MOSI)*%
X83300000Y-59343000D02*
X80443000Y-59343000D01*
X78600000Y-57500000D02*
X78600000Y-47250000D01*
X80443000Y-59343000D02*
X78600000Y-57500000D01*
X78600000Y-47250000D02*
X80100000Y-45750000D01*
X80100000Y-45750000D02*
X86100000Y-45750000D01*
X86100000Y-45750000D02*
X88600000Y-48250000D01*
X88600000Y-48250000D02*
X96850000Y-48250000D01*
X100590000Y-51990000D02*
X102798000Y-51990000D01*
X96850000Y-48250000D02*
X100590000Y-51990000D01*
%TO.N,DISP2_CE*%
X99300000Y-49450000D02*
X102798000Y-49450000D01*
X94549999Y-44699999D02*
X99300000Y-49450000D01*
X79400001Y-44699999D02*
X94549999Y-44699999D01*
X77350000Y-46750000D02*
X79400001Y-44699999D01*
X77350000Y-62750000D02*
X77350000Y-46750000D01*
X81543000Y-66943000D02*
X77350000Y-62750000D01*
X83310000Y-66943000D02*
X81543000Y-66943000D01*
%TO.N,KB_Tack*%
X102798000Y-59610000D02*
X85990000Y-59610000D01*
X85990000Y-59610000D02*
X84850000Y-60750000D01*
X84850000Y-60750000D02*
X84850000Y-68500000D01*
X84850000Y-68500000D02*
X83600000Y-69750000D01*
X83600000Y-69750000D02*
X70100000Y-69750000D01*
X70100000Y-69750000D02*
X68100000Y-71750000D01*
X68100000Y-71750000D02*
X68100000Y-84250000D01*
D27*
X65440001Y-87569999D02*
X64190000Y-88820000D01*
X67290003Y-87569999D02*
X65440001Y-87569999D01*
X67980001Y-86880001D02*
X67290003Y-87569999D01*
X68000000Y-85769999D02*
X68000000Y-86880001D01*
X68100000Y-84250000D02*
X68000000Y-85800000D01*
%TO.N,KB_Stb_10*%
X75600001Y-87569999D02*
X74350000Y-88820000D01*
X75650000Y-85100000D02*
X75600001Y-87569999D01*
D28*
X100650000Y-65400000D02*
X100650000Y-63100000D01*
X99550000Y-66500000D02*
X100650000Y-65400000D01*
X88600000Y-66500000D02*
X99550000Y-66500000D01*
X87850000Y-67250000D02*
X88600000Y-66500000D01*
X87850000Y-75250000D02*
X87850000Y-67250000D01*
X100650000Y-63100000D02*
X101600000Y-62150000D01*
X82850000Y-80250000D02*
X87850000Y-75250000D01*
X101600000Y-62150000D02*
X102798000Y-62150000D01*
X77100000Y-80250000D02*
X82850000Y-80250000D01*
X75650000Y-81700000D02*
X77100000Y-80250000D01*
X75650000Y-85100000D02*
X75650000Y-81700000D01*
D27*
%TO.N,KB_Port_10*%
X70520001Y-87530001D02*
X71810000Y-88820000D01*
D28*
X72600000Y-77500000D02*
X70520001Y-79579999D01*
D27*
X70520001Y-82329999D02*
X70520001Y-87530001D01*
D28*
X70520001Y-79579999D02*
X70520001Y-82329999D01*
D27*
X104850000Y-62075641D02*
X104150000Y-60900000D01*
X104850000Y-63250000D02*
X104850000Y-62075641D01*
X103410000Y-64690000D02*
X104850000Y-63250000D01*
X102798000Y-64690000D02*
X103410000Y-64690000D01*
X104150000Y-60900000D02*
X100596754Y-60853246D01*
D28*
X100596754Y-60853246D02*
X86796754Y-60853246D01*
X86796754Y-60853246D02*
X85750000Y-61900000D01*
X83100000Y-77500000D02*
X72600000Y-77500000D01*
X85750000Y-74850000D02*
X83100000Y-77500000D01*
X85750000Y-61900000D02*
X85750000Y-74850000D01*
%TO.N,KB_Stb_1*%
X90904999Y-87594999D02*
X92130000Y-88820000D01*
D27*
X90857000Y-85666000D02*
X90857000Y-87569000D01*
X90857000Y-84904000D02*
X90857000Y-85666000D01*
X102798000Y-67230000D02*
X102805010Y-67237010D01*
D28*
X92762000Y-82999000D02*
X90857000Y-84904000D01*
X103813961Y-82999000D02*
X92762000Y-82999000D01*
X108002000Y-78826291D02*
X103813961Y-82999000D01*
X108002000Y-67632000D02*
X108002000Y-78826291D01*
X107707010Y-67337010D02*
X108002000Y-67632000D01*
X102905010Y-67337010D02*
X107707010Y-67337010D01*
X102798000Y-67230000D02*
X102905010Y-67337010D01*
%TO.N,KB_Menue*%
X93072664Y-83749010D02*
X92130000Y-84691674D01*
X100819665Y-83749009D02*
X93072664Y-83749010D01*
X104123821Y-83749008D02*
X100819665Y-83749009D01*
X113590000Y-74317478D02*
X104123821Y-83749008D01*
X113590000Y-64330000D02*
X113590000Y-74317478D01*
X92130000Y-84691674D02*
X92130000Y-86280000D01*
X115770000Y-62150000D02*
X113590000Y-64330000D01*
X118038000Y-62150000D02*
X115770000Y-62150000D01*
D30*
%TO.N,KB_Select*%
X97210000Y-86280000D02*
X97936998Y-86280000D01*
D28*
X118038000Y-64690000D02*
X115250010Y-64690000D01*
X114340010Y-65600000D02*
X114340010Y-74591338D01*
X115250010Y-64690000D02*
X114340010Y-65600000D01*
X104434124Y-84499018D02*
X104555071Y-84378071D01*
X97788901Y-84499018D02*
X104434124Y-84499018D01*
X97210000Y-85077919D02*
X97788901Y-84499018D01*
X97210000Y-86280000D02*
X97210000Y-85077919D01*
X114352000Y-74617000D02*
X104555071Y-84378071D01*
D29*
%TO.N,GND*%
X72935000Y-27500000D02*
X76435000Y-27500000D01*
X76435000Y-27500000D02*
X76435000Y-26415000D01*
X78445000Y-24405000D02*
X85015000Y-24405000D01*
X76435000Y-26415000D02*
X78445000Y-24405000D01*
X98985000Y-24635000D02*
X98985000Y-25635000D01*
X98755000Y-24405000D02*
X98985000Y-24635000D01*
X91365000Y-24515000D02*
X91255000Y-24405000D01*
X91365000Y-25635000D02*
X91365000Y-24515000D01*
X91255000Y-24405000D02*
X98755000Y-24405000D01*
X85015000Y-24405000D02*
X91255000Y-24405000D01*
X84196997Y-30954999D02*
X84246999Y-31005001D01*
X78192943Y-30954999D02*
X84196997Y-30954999D01*
X84246999Y-31005001D02*
X93844999Y-31005001D01*
X76435000Y-29197056D02*
X78192943Y-30954999D01*
X76435000Y-27500000D02*
X76435000Y-29197056D01*
X97959998Y-35120000D02*
X99065000Y-35120000D01*
X93844999Y-31005001D02*
X97959998Y-35120000D01*
X103850000Y-38500000D02*
X107850000Y-38500000D01*
X107850000Y-38500000D02*
X109145000Y-38549000D01*
X99065000Y-35120000D02*
X103850000Y-38500000D01*
D28*
%TO.N,RXRudderAngle3.3V*%
X45855001Y-51115761D02*
X38905761Y-58065001D01*
X45855001Y-45733003D02*
X45855001Y-51115761D01*
X34965010Y-44675664D02*
X44797662Y-44675664D01*
X44797662Y-44675664D02*
X45855001Y-45733003D01*
X38905761Y-58065001D02*
X37694239Y-58065001D01*
X108850010Y-116999990D02*
X75600010Y-116999990D01*
X111350000Y-114500000D02*
X108850010Y-116999990D01*
X111350000Y-98250000D02*
X111350000Y-114500000D01*
X118875000Y-90725000D02*
X111350000Y-98250000D01*
X75600010Y-116999990D02*
X77910664Y-116999990D01*
X118875000Y-84815000D02*
X118875000Y-90725000D01*
X34600000Y-56750000D02*
X36804620Y-58954620D01*
X34100000Y-56750000D02*
X34600000Y-56750000D01*
X37694239Y-58065001D02*
X36804620Y-58954620D01*
X34350000Y-71250000D02*
X34350000Y-74500000D01*
X36100000Y-69500000D02*
X34350000Y-71250000D01*
X34350000Y-74500000D02*
X36100000Y-76250000D01*
X36188010Y-69250000D02*
X36100000Y-69500000D01*
X36188010Y-59571230D02*
X36188010Y-69250000D01*
X36804620Y-58954620D02*
X36188010Y-59571230D01*
X36100000Y-108689326D02*
X36100000Y-107000000D01*
X39100010Y-111689336D02*
X36100000Y-108689326D01*
X39100010Y-115500010D02*
X39100010Y-111689336D01*
X40599990Y-116999990D02*
X39100010Y-115500010D01*
X36100000Y-107000000D02*
X36100000Y-107689326D01*
X75600010Y-116999990D02*
X40599990Y-116999990D01*
X36100000Y-76250000D02*
X36100000Y-107000000D01*
%TO.N,TXRudderAngle3.3V*%
X112600000Y-115250000D02*
X109600000Y-117750000D01*
X117600000Y-93500000D02*
X112600000Y-98500000D01*
X119850000Y-93500000D02*
X117600000Y-93500000D01*
X112600000Y-98500000D02*
X112600000Y-115250000D01*
X122050000Y-91300000D02*
X119850000Y-93500000D01*
X122050000Y-84815000D02*
X122050000Y-91300000D01*
X33850000Y-70376002D02*
X33850000Y-65750000D01*
X32226002Y-72000000D02*
X33850000Y-70376002D01*
X33850000Y-109750000D02*
X32226002Y-108126002D01*
X36100000Y-109750000D02*
X33850000Y-109750000D01*
X38350000Y-112000000D02*
X36100000Y-109750000D01*
X38350000Y-116250000D02*
X38350000Y-112000000D01*
X39850000Y-117750000D02*
X38350000Y-116250000D01*
X32226002Y-108126002D02*
X32226002Y-72000000D01*
X109650020Y-117750000D02*
X39850000Y-117750000D01*
D29*
%TO.N,+3V3*%
X47600000Y-42385000D02*
X48950000Y-43735000D01*
X44505000Y-42385000D02*
X47600000Y-42385000D01*
X65380000Y-43020000D02*
X66095000Y-43735000D01*
X61650000Y-43020000D02*
X65380000Y-43020000D01*
X48950000Y-43735000D02*
X48950000Y-46100000D01*
X48950000Y-46100000D02*
X49350000Y-46500000D01*
X58170000Y-46500000D02*
X61650000Y-43020000D01*
X49350000Y-46500000D02*
X58170000Y-46500000D01*
X70532000Y-64270000D02*
X65706000Y-64270000D01*
X65686000Y-64290000D02*
X65706000Y-64270000D01*
X124122792Y-100290000D02*
X125100000Y-99312792D01*
X122850000Y-100290000D02*
X124122792Y-100290000D01*
X125100000Y-99312792D02*
X125100000Y-45000000D01*
X125100000Y-45000000D02*
X122600000Y-42500000D01*
X37113000Y-54263000D02*
X38300000Y-54263000D01*
X36600000Y-52500000D02*
X37113000Y-54263000D01*
X37850000Y-46500000D02*
X36600000Y-47750000D01*
X36600000Y-47750000D02*
X36600000Y-52500000D01*
X44505000Y-46500000D02*
X37850000Y-46500000D01*
X122600000Y-42500000D02*
X107140000Y-42500000D01*
X106640000Y-42000000D02*
X107140000Y-42500000D01*
X122850000Y-106790000D02*
X124060000Y-106790000D01*
X125100000Y-105750000D02*
X125100000Y-99312792D01*
X124060000Y-106790000D02*
X125100000Y-105750000D01*
D28*
%TO.N,Net-(D1-Pad1)*%
X100890000Y-39565000D02*
X102160000Y-40835000D01*
X98985000Y-39565000D02*
X100890000Y-39565000D01*
D27*
%TO.N,DISP1_CE*%
X83220001Y-87530001D02*
X83220001Y-94870001D01*
X81970000Y-86280000D02*
X83220001Y-87530001D01*
D28*
X82100000Y-96000000D02*
X83100000Y-95000000D01*
X40850000Y-96149978D02*
X82100000Y-96000000D01*
X38310000Y-66943000D02*
X40400011Y-69033011D01*
X40400011Y-95699989D02*
X40850000Y-96149978D01*
X40400011Y-69033011D02*
X40400011Y-95699989D01*
%TO.N,DISP1_RST*%
X37047999Y-65675001D02*
X37047999Y-68447999D01*
X38300000Y-64423000D02*
X37047999Y-65675001D01*
X40100000Y-97000000D02*
X86350000Y-97000000D01*
X86350000Y-97000000D02*
X88350000Y-95000000D01*
X88350000Y-95000000D02*
X88350000Y-91000000D01*
D27*
X88300001Y-90950001D02*
X88350000Y-91000000D01*
X88300001Y-87569999D02*
X88300001Y-90950001D01*
X89590000Y-86280000D02*
X88300001Y-87569999D01*
D28*
X37047999Y-68447999D02*
X38297999Y-68447999D01*
X39650001Y-96550001D02*
X40100000Y-97000000D01*
X39650001Y-69800001D02*
X39650001Y-96550001D01*
X38297999Y-68447999D02*
X39650001Y-69800001D01*
%TO.N,RXMotorController3.3V*%
X68635000Y-43735000D02*
X68635000Y-44715000D01*
X66095000Y-47255000D02*
X66095000Y-48815000D01*
X68635000Y-44715000D02*
X66095000Y-47255000D01*
%TO.N,TXMotorController3.3V*%
X71175000Y-43735000D02*
X71175000Y-44675000D01*
X69270000Y-46580000D02*
X69270000Y-48815000D01*
X71175000Y-44675000D02*
X69270000Y-46580000D01*
%TO.N,IR-Remote*%
X41350000Y-103250000D02*
X46849990Y-97750010D01*
X46849990Y-97750010D02*
X98099990Y-97750010D01*
X41350000Y-112250000D02*
X41350000Y-103250000D01*
X102290000Y-93560000D02*
X102290000Y-88820000D01*
X98099990Y-97750010D02*
X102290000Y-93560000D01*
%TO.N,MPU9250_SCL*%
X47390000Y-102730000D02*
X45580000Y-102730000D01*
X45580000Y-102730000D02*
X45600000Y-102710000D01*
X45600000Y-100112238D02*
X46962238Y-98750000D01*
X45600000Y-102710000D02*
X45600000Y-100112238D01*
X46962238Y-98750000D02*
X48850000Y-98750000D01*
X48850000Y-98750000D02*
X50850000Y-100750000D01*
X50850000Y-100750000D02*
X50850000Y-108500000D01*
X54946021Y-112596021D02*
X103503979Y-112596021D01*
X50850000Y-108500000D02*
X54946021Y-112596021D01*
X103503979Y-112596021D02*
X104600000Y-111500000D01*
X104600000Y-89050000D02*
X104830000Y-88820000D01*
X104600000Y-111500000D02*
X104600000Y-89050000D01*
%TO.N,MPU9250_SDA*%
X47390000Y-100190000D02*
X49850000Y-102650000D01*
X49850000Y-109000000D02*
X55100000Y-114250000D01*
X49850000Y-102650000D02*
X49850000Y-109000000D01*
X55100000Y-114250000D02*
X105850000Y-114250000D01*
X107370000Y-112730000D02*
X107370000Y-88820000D01*
X105850000Y-114250000D02*
X107370000Y-112730000D01*
%TO.N,RudderAngleRS422_A+*%
X45775000Y-32940000D02*
X48950000Y-36115000D01*
X43870000Y-32940000D02*
X45775000Y-32940000D01*
X43751000Y-32821000D02*
X43870000Y-32940000D01*
X43751000Y-27500000D02*
X43751000Y-32821000D01*
%TO.N,RudderAngleRS422_B-*%
X51490000Y-32940000D02*
X54030000Y-32940000D01*
X51490000Y-33345000D02*
X51490000Y-32940000D01*
X51490000Y-36115000D02*
X51490000Y-33345000D01*
X47251000Y-27500000D02*
X47251000Y-29360000D01*
X50831000Y-32940000D02*
X51490000Y-32940000D01*
X47251000Y-29360000D02*
X50831000Y-32940000D01*
%TO.N,RudderAngleRS422_Z-*%
X50751000Y-27500000D02*
X50751000Y-30193000D01*
X50751000Y-30193000D02*
X51360000Y-30802000D01*
X51360000Y-30802000D02*
X55170000Y-30802000D01*
X55170000Y-30802000D02*
X56313000Y-31945000D01*
X56313000Y-33832000D02*
X54030000Y-36115000D01*
X56313000Y-31945000D02*
X56313000Y-33832000D01*
%TO.N,RudderAngleRS422_Y+*%
X57456000Y-35229000D02*
X56570000Y-36115000D01*
X57456000Y-30705000D02*
X57456000Y-35229000D01*
X54251000Y-27500000D02*
X57456000Y-30705000D01*
%TO.N,MotorControllerRS422_A+*%
X61650000Y-31670000D02*
X60380000Y-32940000D01*
X66095000Y-36115000D02*
X61650000Y-31670000D01*
X61650000Y-31399000D02*
X61650000Y-31670000D01*
X57751000Y-27500000D02*
X61650000Y-31399000D01*
%TO.N,MotorControllerRS422_B-*%
X68635000Y-34845000D02*
X70540000Y-32940000D01*
X68635000Y-36115000D02*
X68635000Y-34845000D01*
X68635000Y-34884000D02*
X68635000Y-36115000D01*
X61251000Y-27500000D02*
X68635000Y-34884000D01*
%TO.N,MotorControllerRS422_Z-*%
X72696000Y-33469000D02*
X71175000Y-34990000D01*
X72696000Y-31564000D02*
X72696000Y-33469000D01*
X72315000Y-31183000D02*
X72696000Y-31564000D01*
X66727000Y-31183000D02*
X72315000Y-31183000D01*
X64751000Y-29207000D02*
X66727000Y-31183000D01*
X71175000Y-34990000D02*
X71175000Y-36115000D01*
X64751000Y-27500000D02*
X64751000Y-29207000D01*
%TO.N,MotorControllerRS422_Y+*%
X68251000Y-27500000D02*
X68251000Y-28389000D01*
X68251000Y-28389000D02*
X70029000Y-30167000D01*
X70029000Y-30167000D02*
X72950000Y-30167000D01*
X73715000Y-30932000D02*
X73715000Y-36115000D01*
X72950000Y-30167000D02*
X73715000Y-30932000D01*
%TO.N,Net-(D2-Pad1)*%
X122050000Y-96950000D02*
X122850000Y-97750000D01*
X122050000Y-94975000D02*
X122050000Y-96950000D01*
%TO.N,Net-(D3-Pad1)*%
X69270000Y-60468000D02*
X70532000Y-61730000D01*
X69270000Y-58975000D02*
X69270000Y-60468000D01*
%TO.N,Net-(D4-Pad1)*%
X120350000Y-104250000D02*
X122850000Y-104250000D01*
X118875000Y-102775000D02*
X120350000Y-104250000D01*
X118875000Y-94975000D02*
X118875000Y-102775000D01*
%TO.N,Net-(D5-Pad1)*%
X66095000Y-61341000D02*
X65706000Y-61730000D01*
X66095000Y-58975000D02*
X66095000Y-61341000D01*
%TO.N,Net-(A1-Pad28)*%
X107878000Y-53514000D02*
X105719000Y-55673000D01*
X107878000Y-49450000D02*
X107878000Y-53514000D01*
%TO.N,Arduino_AUX*%
X122480000Y-49725000D02*
X122480000Y-51503000D01*
D27*
X120703010Y-53279990D02*
X116258010Y-53279990D01*
D28*
X122480000Y-51503000D02*
X120703010Y-53279990D01*
X116258010Y-53279990D02*
X115368000Y-54170000D01*
X115368000Y-54170000D02*
X115368000Y-55948000D01*
X116490000Y-57070000D02*
X118038000Y-57070000D01*
X115368000Y-55948000D02*
X116490000Y-57070000D01*
%TO.N,RPI_AUX*%
X66730000Y-85415000D02*
X66730000Y-86280000D01*
X48510000Y-77750000D02*
X64350000Y-77750000D01*
X66730000Y-80130000D02*
X66730000Y-86280000D01*
X64350000Y-77750000D02*
X66730000Y-80130000D01*
%TO.N,Net-(D6-Pad2)*%
X119813000Y-75169999D02*
X122480000Y-77665000D01*
X121261002Y-69088998D02*
X119850000Y-70500000D01*
X122480000Y-69088998D02*
X121261002Y-69088998D01*
X119850000Y-75132999D02*
X119813000Y-75169999D01*
X119850000Y-70500000D02*
X119850000Y-75132999D01*
X122480000Y-59885000D02*
X122480000Y-69088998D01*
%TO.N,3V3*%
X102798000Y-69770000D02*
X100412000Y-69770000D01*
X100412000Y-69770000D02*
X100412000Y-75358000D01*
X96636000Y-79134000D02*
X96636000Y-81166000D01*
X100412000Y-75358000D02*
X96636000Y-79134000D01*
D29*
%TO.N,5VBridge*%
X109910000Y-86280000D02*
X107370000Y-86280000D01*
X111685000Y-84505000D02*
X109910000Y-86280000D01*
X111685000Y-82745000D02*
X111685000Y-84505000D01*
%TO.N,GND2*%
X122099000Y-80586000D02*
X122480000Y-80205000D01*
X111304000Y-80586000D02*
X122099000Y-80586000D01*
X109145000Y-82745000D02*
X111304000Y-80586000D01*
X102404938Y-74850000D02*
X102798000Y-74850000D01*
X99176000Y-78078938D02*
X102404938Y-74850000D01*
X99176000Y-81166000D02*
X99176000Y-78078938D01*
D28*
%TO.N,Net-(JP3-Pad2)*%
X51490000Y-42640000D02*
X51490000Y-43735000D01*
X49350000Y-40500000D02*
X51490000Y-42640000D01*
X38080000Y-40500000D02*
X49350000Y-40500000D01*
X34100000Y-44480000D02*
X38080000Y-40500000D01*
X34100000Y-54210000D02*
X34100000Y-44480000D01*
%TO.N,Net-(JP4-Pad2)*%
X51099990Y-39749990D02*
X54030000Y-42680000D01*
X37769336Y-39749990D02*
X51099990Y-39749990D01*
X31890000Y-45629326D02*
X37769336Y-39749990D01*
X54030000Y-42680000D02*
X54030000Y-43735000D01*
X31890000Y-61250000D02*
X31890000Y-45629326D01*
X33850000Y-63210000D02*
X31890000Y-61250000D01*
%TO.N,RPi3.3V*%
X47390000Y-107810000D02*
X47390000Y-109540000D01*
X47390000Y-109540000D02*
X53350000Y-115500000D01*
X53350000Y-115500000D02*
X107350000Y-115500000D01*
X109910000Y-112940000D02*
X109910000Y-88820000D01*
X107350000Y-115500000D02*
X109910000Y-112940000D01*
X46430000Y-110500000D02*
X47390000Y-109540000D01*
X46430000Y-112250000D02*
X46430000Y-110500000D01*
%TD*%
M02*
