%TF.GenerationSoftware,KiCad,Pcbnew,(5.1.9)-1*%
%TF.CreationDate,2021-08-15T20:10:53+12:00*%
%TF.ProjectId,PyPilot_Main,50795069-6c6f-4745-9f4d-61696e2e6b69,rev?*%
%TF.SameCoordinates,Original*%
%TF.FileFunction,Legend,Top*%
%TF.FilePolarity,Positive*%
%FSLAX46Y46*%
G04 Gerber Fmt 4.6, Leading zero omitted, Abs format (unit mm)*
G04 Created by KiCad (PCBNEW (5.1.9)-1) date 2021-08-15 20:10:53*
%MOMM*%
%LPD*%
G01*
G04 APERTURE LIST*
%ADD10C,0.300000*%
%ADD11C,0.250000*%
%ADD12C,0.100000*%
%ADD13C,0.150000*%
%ADD14C,0.200000*%
%ADD15C,0.120000*%
%ADD16C,0.127000*%
%ADD17C,0.015000*%
G04 APERTURE END LIST*
D10*
X41207142Y-117928571D02*
X41207142Y-116428571D01*
X42778571Y-117928571D02*
X42278571Y-117214285D01*
X41921428Y-117928571D02*
X41921428Y-116428571D01*
X42492857Y-116428571D01*
X42635714Y-116500000D01*
X42707142Y-116571428D01*
X42778571Y-116714285D01*
X42778571Y-116928571D01*
X42707142Y-117071428D01*
X42635714Y-117142857D01*
X42492857Y-117214285D01*
X41921428Y-117214285D01*
X44564285Y-117928571D02*
X44564285Y-116428571D01*
X45278571Y-116928571D02*
X45278571Y-117928571D01*
X45278571Y-117071428D02*
X45350000Y-117000000D01*
X45492857Y-116928571D01*
X45707142Y-116928571D01*
X45850000Y-117000000D01*
X45921428Y-117142857D01*
X45921428Y-117928571D01*
X46635714Y-116928571D02*
X46635714Y-118428571D01*
X46635714Y-117000000D02*
X46778571Y-116928571D01*
X47064285Y-116928571D01*
X47207142Y-117000000D01*
X47278571Y-117071428D01*
X47350000Y-117214285D01*
X47350000Y-117642857D01*
X47278571Y-117785714D01*
X47207142Y-117857142D01*
X47064285Y-117928571D01*
X46778571Y-117928571D01*
X46635714Y-117857142D01*
X48635714Y-116928571D02*
X48635714Y-117928571D01*
X47992857Y-116928571D02*
X47992857Y-117714285D01*
X48064285Y-117857142D01*
X48207142Y-117928571D01*
X48421428Y-117928571D01*
X48564285Y-117857142D01*
X48635714Y-117785714D01*
X49135714Y-116928571D02*
X49707142Y-116928571D01*
X49350000Y-116428571D02*
X49350000Y-117714285D01*
X49421428Y-117857142D01*
X49564285Y-117928571D01*
X49707142Y-117928571D01*
D11*
X119528571Y-109428571D02*
X118028571Y-109428571D01*
X117957142Y-108238095D02*
X119885714Y-109095238D01*
X118028571Y-107714285D02*
X118028571Y-107523809D01*
X118100000Y-107428571D01*
X118242857Y-107333333D01*
X118528571Y-107285714D01*
X119028571Y-107285714D01*
X119314285Y-107333333D01*
X119457142Y-107428571D01*
X119528571Y-107523809D01*
X119528571Y-107714285D01*
X119457142Y-107809523D01*
X119314285Y-107904761D01*
X119028571Y-107952380D01*
X118528571Y-107952380D01*
X118242857Y-107904761D01*
X118100000Y-107809523D01*
X118028571Y-107714285D01*
X119528571Y-105523809D02*
X118814285Y-105857142D01*
X119528571Y-106095238D02*
X118028571Y-106095238D01*
X118028571Y-105714285D01*
X118100000Y-105619047D01*
X118171428Y-105571428D01*
X118314285Y-105523809D01*
X118528571Y-105523809D01*
X118671428Y-105571428D01*
X118742857Y-105619047D01*
X118814285Y-105714285D01*
X118814285Y-106095238D01*
X118528571Y-104666666D02*
X119528571Y-104666666D01*
X118528571Y-105095238D02*
X119314285Y-105095238D01*
X119457142Y-105047619D01*
X119528571Y-104952380D01*
X119528571Y-104809523D01*
X119457142Y-104714285D01*
X119385714Y-104666666D01*
X119528571Y-103761904D02*
X118028571Y-103761904D01*
X119457142Y-103761904D02*
X119528571Y-103857142D01*
X119528571Y-104047619D01*
X119457142Y-104142857D01*
X119385714Y-104190476D01*
X119242857Y-104238095D01*
X118814285Y-104238095D01*
X118671428Y-104190476D01*
X118600000Y-104142857D01*
X118528571Y-104047619D01*
X118528571Y-103857142D01*
X118600000Y-103761904D01*
X119528571Y-102857142D02*
X118028571Y-102857142D01*
X119457142Y-102857142D02*
X119528571Y-102952380D01*
X119528571Y-103142857D01*
X119457142Y-103238095D01*
X119385714Y-103285714D01*
X119242857Y-103333333D01*
X118814285Y-103333333D01*
X118671428Y-103285714D01*
X118600000Y-103238095D01*
X118528571Y-103142857D01*
X118528571Y-102952380D01*
X118600000Y-102857142D01*
X119457142Y-102000000D02*
X119528571Y-102095238D01*
X119528571Y-102285714D01*
X119457142Y-102380952D01*
X119314285Y-102428571D01*
X118742857Y-102428571D01*
X118600000Y-102380952D01*
X118528571Y-102285714D01*
X118528571Y-102095238D01*
X118600000Y-102000000D01*
X118742857Y-101952380D01*
X118885714Y-101952380D01*
X119028571Y-102428571D01*
X119528571Y-101523809D02*
X118528571Y-101523809D01*
X118814285Y-101523809D02*
X118671428Y-101476190D01*
X118600000Y-101428571D01*
X118528571Y-101333333D01*
X118528571Y-101238095D01*
X119100000Y-100190476D02*
X119100000Y-99714285D01*
X119528571Y-100285714D02*
X118028571Y-99952380D01*
X119528571Y-99619047D01*
X118528571Y-99285714D02*
X119528571Y-99285714D01*
X118671428Y-99285714D02*
X118600000Y-99238095D01*
X118528571Y-99142857D01*
X118528571Y-99000000D01*
X118600000Y-98904761D01*
X118742857Y-98857142D01*
X119528571Y-98857142D01*
X118528571Y-97952380D02*
X119742857Y-97952380D01*
X119885714Y-98000000D01*
X119957142Y-98047619D01*
X120028571Y-98142857D01*
X120028571Y-98285714D01*
X119957142Y-98380952D01*
X119457142Y-97952380D02*
X119528571Y-98047619D01*
X119528571Y-98238095D01*
X119457142Y-98333333D01*
X119385714Y-98380952D01*
X119242857Y-98428571D01*
X118814285Y-98428571D01*
X118671428Y-98380952D01*
X118600000Y-98333333D01*
X118528571Y-98238095D01*
X118528571Y-98047619D01*
X118600000Y-97952380D01*
X119528571Y-97333333D02*
X119457142Y-97428571D01*
X119314285Y-97476190D01*
X118028571Y-97476190D01*
X119457142Y-96571428D02*
X119528571Y-96666666D01*
X119528571Y-96857142D01*
X119457142Y-96952380D01*
X119314285Y-97000000D01*
X118742857Y-97000000D01*
X118600000Y-96952380D01*
X118528571Y-96857142D01*
X118528571Y-96666666D01*
X118600000Y-96571428D01*
X118742857Y-96523809D01*
X118885714Y-96523809D01*
X119028571Y-97000000D01*
D10*
X72064285Y-110678571D02*
X71350000Y-110678571D01*
X71350000Y-109178571D01*
X73207142Y-109678571D02*
X73207142Y-110678571D01*
X72564285Y-109678571D02*
X72564285Y-110464285D01*
X72635714Y-110607142D01*
X72778571Y-110678571D01*
X72992857Y-110678571D01*
X73135714Y-110607142D01*
X73207142Y-110535714D01*
X73707142Y-109678571D02*
X74278571Y-109678571D01*
X73921428Y-109178571D02*
X73921428Y-110464285D01*
X73992857Y-110607142D01*
X74135714Y-110678571D01*
X74278571Y-110678571D01*
X74635714Y-109678571D02*
X75421428Y-109678571D01*
X74635714Y-110678571D01*
X75421428Y-110678571D01*
X77564285Y-109178571D02*
X77564285Y-110250000D01*
X77492857Y-110464285D01*
X77350000Y-110607142D01*
X77135714Y-110678571D01*
X76992857Y-110678571D01*
X78278571Y-110535714D02*
X78350000Y-110607142D01*
X78278571Y-110678571D01*
X78207142Y-110607142D01*
X78278571Y-110535714D01*
X78278571Y-110678571D01*
X80135714Y-110678571D02*
X80135714Y-109178571D01*
X80707142Y-109178571D01*
X80850000Y-109250000D01*
X80921428Y-109321428D01*
X80992857Y-109464285D01*
X80992857Y-109678571D01*
X80921428Y-109821428D01*
X80850000Y-109892857D01*
X80707142Y-109964285D01*
X80135714Y-109964285D01*
X82207142Y-110607142D02*
X82064285Y-110678571D01*
X81778571Y-110678571D01*
X81635714Y-110607142D01*
X81564285Y-110464285D01*
X81564285Y-109892857D01*
X81635714Y-109750000D01*
X81778571Y-109678571D01*
X82064285Y-109678571D01*
X82207142Y-109750000D01*
X82278571Y-109892857D01*
X82278571Y-110035714D01*
X81564285Y-110178571D01*
X82850000Y-110607142D02*
X82992857Y-110678571D01*
X83278571Y-110678571D01*
X83421428Y-110607142D01*
X83492857Y-110464285D01*
X83492857Y-110392857D01*
X83421428Y-110250000D01*
X83278571Y-110178571D01*
X83064285Y-110178571D01*
X82921428Y-110107142D01*
X82850000Y-109964285D01*
X82850000Y-109892857D01*
X82921428Y-109750000D01*
X83064285Y-109678571D01*
X83278571Y-109678571D01*
X83421428Y-109750000D01*
X83921428Y-109678571D02*
X84492857Y-109678571D01*
X84135714Y-109178571D02*
X84135714Y-110464285D01*
X84207142Y-110607142D01*
X84350000Y-110678571D01*
X84492857Y-110678571D01*
X85564285Y-110607142D02*
X85421428Y-110678571D01*
X85135714Y-110678571D01*
X84992857Y-110607142D01*
X84921428Y-110464285D01*
X84921428Y-109892857D01*
X84992857Y-109750000D01*
X85135714Y-109678571D01*
X85421428Y-109678571D01*
X85564285Y-109750000D01*
X85635714Y-109892857D01*
X85635714Y-110035714D01*
X84921428Y-110178571D01*
X86492857Y-110678571D02*
X86350000Y-110607142D01*
X86278571Y-110464285D01*
X86278571Y-109178571D01*
D12*
X96802380Y-79476190D02*
X96802380Y-78857142D01*
X97183333Y-79190476D01*
X97183333Y-79047619D01*
X97230952Y-78952380D01*
X97278571Y-78904761D01*
X97373809Y-78857142D01*
X97611904Y-78857142D01*
X97707142Y-78904761D01*
X97754761Y-78952380D01*
X97802380Y-79047619D01*
X97802380Y-79333333D01*
X97754761Y-79428571D01*
X97707142Y-79476190D01*
X97707142Y-78428571D02*
X97754761Y-78380952D01*
X97802380Y-78428571D01*
X97754761Y-78476190D01*
X97707142Y-78428571D01*
X97802380Y-78428571D01*
X96802380Y-78047619D02*
X96802380Y-77428571D01*
X97183333Y-77761904D01*
X97183333Y-77619047D01*
X97230952Y-77523809D01*
X97278571Y-77476190D01*
X97373809Y-77428571D01*
X97611904Y-77428571D01*
X97707142Y-77476190D01*
X97754761Y-77523809D01*
X97802380Y-77619047D01*
X97802380Y-77904761D01*
X97754761Y-78000000D01*
X97707142Y-78047619D01*
X96802380Y-77142857D02*
X97802380Y-76809523D01*
X96802380Y-76476190D01*
X97754761Y-74952380D02*
X97802380Y-75047619D01*
X97802380Y-75238095D01*
X97754761Y-75333333D01*
X97707142Y-75380952D01*
X97611904Y-75428571D01*
X97326190Y-75428571D01*
X97230952Y-75380952D01*
X97183333Y-75333333D01*
X97135714Y-75238095D01*
X97135714Y-75047619D01*
X97183333Y-74952380D01*
X97802380Y-74380952D02*
X97754761Y-74476190D01*
X97707142Y-74523809D01*
X97611904Y-74571428D01*
X97326190Y-74571428D01*
X97230952Y-74523809D01*
X97183333Y-74476190D01*
X97135714Y-74380952D01*
X97135714Y-74238095D01*
X97183333Y-74142857D01*
X97230952Y-74095238D01*
X97326190Y-74047619D01*
X97611904Y-74047619D01*
X97707142Y-74095238D01*
X97754761Y-74142857D01*
X97802380Y-74238095D01*
X97802380Y-74380952D01*
X97802380Y-73619047D02*
X97135714Y-73619047D01*
X97230952Y-73619047D02*
X97183333Y-73571428D01*
X97135714Y-73476190D01*
X97135714Y-73333333D01*
X97183333Y-73238095D01*
X97278571Y-73190476D01*
X97802380Y-73190476D01*
X97278571Y-73190476D02*
X97183333Y-73142857D01*
X97135714Y-73047619D01*
X97135714Y-72904761D01*
X97183333Y-72809523D01*
X97278571Y-72761904D01*
X97802380Y-72761904D01*
X97802380Y-72285714D02*
X97135714Y-72285714D01*
X97230952Y-72285714D02*
X97183333Y-72238095D01*
X97135714Y-72142857D01*
X97135714Y-72000000D01*
X97183333Y-71904761D01*
X97278571Y-71857142D01*
X97802380Y-71857142D01*
X97278571Y-71857142D02*
X97183333Y-71809523D01*
X97135714Y-71714285D01*
X97135714Y-71571428D01*
X97183333Y-71476190D01*
X97278571Y-71428571D01*
X97802380Y-71428571D01*
X97802380Y-70809523D02*
X97754761Y-70904761D01*
X97707142Y-70952380D01*
X97611904Y-71000000D01*
X97326190Y-71000000D01*
X97230952Y-70952380D01*
X97183333Y-70904761D01*
X97135714Y-70809523D01*
X97135714Y-70666666D01*
X97183333Y-70571428D01*
X97230952Y-70523809D01*
X97326190Y-70476190D01*
X97611904Y-70476190D01*
X97707142Y-70523809D01*
X97754761Y-70571428D01*
X97802380Y-70666666D01*
X97802380Y-70809523D01*
X97135714Y-70047619D02*
X97802380Y-70047619D01*
X97230952Y-70047619D02*
X97183333Y-70000000D01*
X97135714Y-69904761D01*
X97135714Y-69761904D01*
X97183333Y-69666666D01*
X97278571Y-69619047D01*
X97802380Y-69619047D01*
X33697619Y-43470714D02*
X34364285Y-43470714D01*
X34173809Y-43470714D02*
X34269047Y-43518333D01*
X34316666Y-43565952D01*
X34364285Y-43661190D01*
X34364285Y-43756428D01*
X33745238Y-44470714D02*
X33697619Y-44375476D01*
X33697619Y-44185000D01*
X33745238Y-44089761D01*
X33840476Y-44042142D01*
X34221428Y-44042142D01*
X34316666Y-44089761D01*
X34364285Y-44185000D01*
X34364285Y-44375476D01*
X34316666Y-44470714D01*
X34221428Y-44518333D01*
X34126190Y-44518333D01*
X34030952Y-44042142D01*
X33697619Y-44946904D02*
X34364285Y-44946904D01*
X34269047Y-44946904D02*
X34316666Y-44994523D01*
X34364285Y-45089761D01*
X34364285Y-45232619D01*
X34316666Y-45327857D01*
X34221428Y-45375476D01*
X33697619Y-45375476D01*
X34221428Y-45375476D02*
X34316666Y-45423095D01*
X34364285Y-45518333D01*
X34364285Y-45661190D01*
X34316666Y-45756428D01*
X34221428Y-45804047D01*
X33697619Y-45804047D01*
X33697619Y-46423095D02*
X33745238Y-46327857D01*
X33792857Y-46280238D01*
X33888095Y-46232619D01*
X34173809Y-46232619D01*
X34269047Y-46280238D01*
X34316666Y-46327857D01*
X34364285Y-46423095D01*
X34364285Y-46565952D01*
X34316666Y-46661190D01*
X34269047Y-46708809D01*
X34173809Y-46756428D01*
X33888095Y-46756428D01*
X33792857Y-46708809D01*
X33745238Y-46661190D01*
X33697619Y-46565952D01*
X33697619Y-46423095D01*
X34364285Y-47089761D02*
X33697619Y-47327857D01*
X34364285Y-47565952D01*
X33745238Y-48327857D02*
X33697619Y-48232619D01*
X33697619Y-48042142D01*
X33745238Y-47946904D01*
X33840476Y-47899285D01*
X34221428Y-47899285D01*
X34316666Y-47946904D01*
X34364285Y-48042142D01*
X34364285Y-48232619D01*
X34316666Y-48327857D01*
X34221428Y-48375476D01*
X34126190Y-48375476D01*
X34030952Y-47899285D01*
X34364285Y-49423095D02*
X34364285Y-49804047D01*
X33697619Y-49565952D02*
X34554761Y-49565952D01*
X34650000Y-49613571D01*
X34697619Y-49708809D01*
X34697619Y-49804047D01*
X33697619Y-50280238D02*
X33745238Y-50185000D01*
X33792857Y-50137380D01*
X33888095Y-50089761D01*
X34173809Y-50089761D01*
X34269047Y-50137380D01*
X34316666Y-50185000D01*
X34364285Y-50280238D01*
X34364285Y-50423095D01*
X34316666Y-50518333D01*
X34269047Y-50565952D01*
X34173809Y-50613571D01*
X33888095Y-50613571D01*
X33792857Y-50565952D01*
X33745238Y-50518333D01*
X33697619Y-50423095D01*
X33697619Y-50280238D01*
X33697619Y-51042142D02*
X34364285Y-51042142D01*
X34173809Y-51042142D02*
X34269047Y-51089761D01*
X34316666Y-51137380D01*
X34364285Y-51232619D01*
X34364285Y-51327857D01*
X32764285Y-37613571D02*
X31764285Y-37613571D01*
X32716666Y-37613571D02*
X32764285Y-37708809D01*
X32764285Y-37899285D01*
X32716666Y-37994523D01*
X32669047Y-38042142D01*
X32573809Y-38089761D01*
X32288095Y-38089761D01*
X32192857Y-38042142D01*
X32145238Y-37994523D01*
X32097619Y-37899285D01*
X32097619Y-37708809D01*
X32145238Y-37613571D01*
X32097619Y-38518333D02*
X32764285Y-38518333D01*
X32573809Y-38518333D02*
X32669047Y-38565952D01*
X32716666Y-38613571D01*
X32764285Y-38708809D01*
X32764285Y-38804047D01*
X32097619Y-39280238D02*
X32145238Y-39185000D01*
X32192857Y-39137380D01*
X32288095Y-39089761D01*
X32573809Y-39089761D01*
X32669047Y-39137380D01*
X32716666Y-39185000D01*
X32764285Y-39280238D01*
X32764285Y-39423095D01*
X32716666Y-39518333D01*
X32669047Y-39565952D01*
X32573809Y-39613571D01*
X32288095Y-39613571D01*
X32192857Y-39565952D01*
X32145238Y-39518333D01*
X32097619Y-39423095D01*
X32097619Y-39280238D01*
X32764285Y-40470714D02*
X31954761Y-40470714D01*
X31859523Y-40423095D01*
X31811904Y-40375476D01*
X31764285Y-40280238D01*
X31764285Y-40137380D01*
X31811904Y-40042142D01*
X32145238Y-40470714D02*
X32097619Y-40375476D01*
X32097619Y-40185000D01*
X32145238Y-40089761D01*
X32192857Y-40042142D01*
X32288095Y-39994523D01*
X32573809Y-39994523D01*
X32669047Y-40042142D01*
X32716666Y-40089761D01*
X32764285Y-40185000D01*
X32764285Y-40375476D01*
X32716666Y-40470714D01*
X32097619Y-40946904D02*
X32764285Y-40946904D01*
X32573809Y-40946904D02*
X32669047Y-40994523D01*
X32716666Y-41042142D01*
X32764285Y-41137380D01*
X32764285Y-41232619D01*
X32097619Y-41994523D02*
X32621428Y-41994523D01*
X32716666Y-41946904D01*
X32764285Y-41851666D01*
X32764285Y-41661190D01*
X32716666Y-41565952D01*
X32145238Y-41994523D02*
X32097619Y-41899285D01*
X32097619Y-41661190D01*
X32145238Y-41565952D01*
X32240476Y-41518333D01*
X32335714Y-41518333D01*
X32430952Y-41565952D01*
X32478571Y-41661190D01*
X32478571Y-41899285D01*
X32526190Y-41994523D01*
X32097619Y-42470714D02*
X32764285Y-42470714D01*
X32669047Y-42470714D02*
X32716666Y-42518333D01*
X32764285Y-42613571D01*
X32764285Y-42756428D01*
X32716666Y-42851666D01*
X32621428Y-42899285D01*
X32097619Y-42899285D01*
X32621428Y-42899285D02*
X32716666Y-42946904D01*
X32764285Y-43042142D01*
X32764285Y-43185000D01*
X32716666Y-43280238D01*
X32621428Y-43327857D01*
X32097619Y-43327857D01*
X32097619Y-43804047D02*
X32764285Y-43804047D01*
X33097619Y-43804047D02*
X33050000Y-43756428D01*
X33002380Y-43804047D01*
X33050000Y-43851666D01*
X33097619Y-43804047D01*
X33002380Y-43804047D01*
X32764285Y-44280238D02*
X32097619Y-44280238D01*
X32669047Y-44280238D02*
X32716666Y-44327857D01*
X32764285Y-44423095D01*
X32764285Y-44565952D01*
X32716666Y-44661190D01*
X32621428Y-44708809D01*
X32097619Y-44708809D01*
X32764285Y-45613571D02*
X31954761Y-45613571D01*
X31859523Y-45565952D01*
X31811904Y-45518333D01*
X31764285Y-45423095D01*
X31764285Y-45280238D01*
X31811904Y-45185000D01*
X32145238Y-45613571D02*
X32097619Y-45518333D01*
X32097619Y-45327857D01*
X32145238Y-45232619D01*
X32192857Y-45185000D01*
X32288095Y-45137380D01*
X32573809Y-45137380D01*
X32669047Y-45185000D01*
X32716666Y-45232619D01*
X32764285Y-45327857D01*
X32764285Y-45518333D01*
X32716666Y-45613571D01*
X32383333Y-46804047D02*
X32383333Y-47280238D01*
X32097619Y-46708809D02*
X33097619Y-47042142D01*
X32097619Y-47375476D01*
X32097619Y-47708809D02*
X32764285Y-47708809D01*
X32573809Y-47708809D02*
X32669047Y-47756428D01*
X32716666Y-47804047D01*
X32764285Y-47899285D01*
X32764285Y-47994523D01*
X32097619Y-48756428D02*
X33097619Y-48756428D01*
X32145238Y-48756428D02*
X32097619Y-48661190D01*
X32097619Y-48470714D01*
X32145238Y-48375476D01*
X32192857Y-48327857D01*
X32288095Y-48280238D01*
X32573809Y-48280238D01*
X32669047Y-48327857D01*
X32716666Y-48375476D01*
X32764285Y-48470714D01*
X32764285Y-48661190D01*
X32716666Y-48756428D01*
X32764285Y-49661190D02*
X32097619Y-49661190D01*
X32764285Y-49232619D02*
X32240476Y-49232619D01*
X32145238Y-49280238D01*
X32097619Y-49375476D01*
X32097619Y-49518333D01*
X32145238Y-49613571D01*
X32192857Y-49661190D01*
X32097619Y-50137380D02*
X32764285Y-50137380D01*
X33097619Y-50137380D02*
X33050000Y-50089761D01*
X33002380Y-50137380D01*
X33050000Y-50185000D01*
X33097619Y-50137380D01*
X33002380Y-50137380D01*
X32764285Y-50613571D02*
X32097619Y-50613571D01*
X32669047Y-50613571D02*
X32716666Y-50661190D01*
X32764285Y-50756428D01*
X32764285Y-50899285D01*
X32716666Y-50994523D01*
X32621428Y-51042142D01*
X32097619Y-51042142D01*
X32097619Y-51661190D02*
X32145238Y-51565952D01*
X32192857Y-51518333D01*
X32288095Y-51470714D01*
X32573809Y-51470714D01*
X32669047Y-51518333D01*
X32716666Y-51565952D01*
X32764285Y-51661190D01*
X32764285Y-51804047D01*
X32716666Y-51899285D01*
X32669047Y-51946904D01*
X32573809Y-51994523D01*
X32288095Y-51994523D01*
X32192857Y-51946904D01*
X32145238Y-51899285D01*
X32097619Y-51804047D01*
X32097619Y-51661190D01*
D11*
X69350000Y-115178571D02*
X69635714Y-116178571D01*
X69921428Y-115464285D01*
X70207142Y-116178571D01*
X70492857Y-115178571D01*
X70921428Y-115178571D02*
X71207142Y-116178571D01*
X71492857Y-115464285D01*
X71778571Y-116178571D01*
X72064285Y-115178571D01*
X72492857Y-115178571D02*
X72778571Y-116178571D01*
X73064285Y-115464285D01*
X73350000Y-116178571D01*
X73635714Y-115178571D01*
X74207142Y-116035714D02*
X74278571Y-116107142D01*
X74207142Y-116178571D01*
X74135714Y-116107142D01*
X74207142Y-116035714D01*
X74207142Y-116178571D01*
X74707142Y-115178571D02*
X75278571Y-115178571D01*
X74921428Y-114678571D02*
X74921428Y-115964285D01*
X74992857Y-116107142D01*
X75135714Y-116178571D01*
X75278571Y-116178571D01*
X75778571Y-116178571D02*
X75778571Y-115178571D01*
X75778571Y-115464285D02*
X75850000Y-115321428D01*
X75921428Y-115250000D01*
X76064285Y-115178571D01*
X76207142Y-115178571D01*
X77350000Y-116178571D02*
X77350000Y-115392857D01*
X77278571Y-115250000D01*
X77135714Y-115178571D01*
X76850000Y-115178571D01*
X76707142Y-115250000D01*
X77350000Y-116107142D02*
X77207142Y-116178571D01*
X76850000Y-116178571D01*
X76707142Y-116107142D01*
X76635714Y-115964285D01*
X76635714Y-115821428D01*
X76707142Y-115678571D01*
X76850000Y-115607142D01*
X77207142Y-115607142D01*
X77350000Y-115535714D01*
X78707142Y-116178571D02*
X78707142Y-114678571D01*
X78707142Y-116107142D02*
X78564285Y-116178571D01*
X78278571Y-116178571D01*
X78135714Y-116107142D01*
X78064285Y-116035714D01*
X77992857Y-115892857D01*
X77992857Y-115464285D01*
X78064285Y-115321428D01*
X78135714Y-115250000D01*
X78278571Y-115178571D01*
X78564285Y-115178571D01*
X78707142Y-115250000D01*
X79992857Y-116107142D02*
X79850000Y-116178571D01*
X79564285Y-116178571D01*
X79421428Y-116107142D01*
X79350000Y-115964285D01*
X79350000Y-115392857D01*
X79421428Y-115250000D01*
X79564285Y-115178571D01*
X79850000Y-115178571D01*
X79992857Y-115250000D01*
X80064285Y-115392857D01*
X80064285Y-115535714D01*
X79350000Y-115678571D01*
X80707142Y-115607142D02*
X81850000Y-115607142D01*
X82421428Y-115178571D02*
X82707142Y-116178571D01*
X82992857Y-115464285D01*
X83278571Y-116178571D01*
X83564285Y-115178571D01*
X84135714Y-116178571D02*
X84135714Y-115178571D01*
X84135714Y-114678571D02*
X84064285Y-114750000D01*
X84135714Y-114821428D01*
X84207142Y-114750000D01*
X84135714Y-114678571D01*
X84135714Y-114821428D01*
X84850000Y-115178571D02*
X84850000Y-116178571D01*
X84850000Y-115321428D02*
X84921428Y-115250000D01*
X85064285Y-115178571D01*
X85278571Y-115178571D01*
X85421428Y-115250000D01*
X85492857Y-115392857D01*
X85492857Y-116178571D01*
X86850000Y-116178571D02*
X86850000Y-114678571D01*
X86850000Y-116107142D02*
X86707142Y-116178571D01*
X86421428Y-116178571D01*
X86278571Y-116107142D01*
X86207142Y-116035714D01*
X86135714Y-115892857D01*
X86135714Y-115464285D01*
X86207142Y-115321428D01*
X86278571Y-115250000D01*
X86421428Y-115178571D01*
X86707142Y-115178571D01*
X86850000Y-115250000D01*
X87564285Y-116035714D02*
X87635714Y-116107142D01*
X87564285Y-116178571D01*
X87492857Y-116107142D01*
X87564285Y-116035714D01*
X87564285Y-116178571D01*
X88921428Y-116178571D02*
X88921428Y-114678571D01*
X88921428Y-116107142D02*
X88778571Y-116178571D01*
X88492857Y-116178571D01*
X88350000Y-116107142D01*
X88278571Y-116035714D01*
X88207142Y-115892857D01*
X88207142Y-115464285D01*
X88278571Y-115321428D01*
X88350000Y-115250000D01*
X88492857Y-115178571D01*
X88778571Y-115178571D01*
X88921428Y-115250000D01*
X90207142Y-116107142D02*
X90064285Y-116178571D01*
X89778571Y-116178571D01*
X89635714Y-116107142D01*
X89564285Y-115964285D01*
X89564285Y-115392857D01*
X89635714Y-115250000D01*
X89778571Y-115178571D01*
X90064285Y-115178571D01*
X90207142Y-115250000D01*
X90278571Y-115392857D01*
X90278571Y-115535714D01*
X89564285Y-115678571D01*
D10*
X69742857Y-113678571D02*
X69742857Y-112178571D01*
X70314285Y-112178571D01*
X70457142Y-112250000D01*
X70528571Y-112321428D01*
X70600000Y-112464285D01*
X70600000Y-112678571D01*
X70528571Y-112821428D01*
X70457142Y-112892857D01*
X70314285Y-112964285D01*
X69742857Y-112964285D01*
X71100000Y-112678571D02*
X71457142Y-113678571D01*
X71814285Y-112678571D02*
X71457142Y-113678571D01*
X71314285Y-114035714D01*
X71242857Y-114107142D01*
X71100000Y-114178571D01*
X72385714Y-113678571D02*
X72385714Y-112178571D01*
X72957142Y-112178571D01*
X73100000Y-112250000D01*
X73171428Y-112321428D01*
X73242857Y-112464285D01*
X73242857Y-112678571D01*
X73171428Y-112821428D01*
X73100000Y-112892857D01*
X72957142Y-112964285D01*
X72385714Y-112964285D01*
X73885714Y-113678571D02*
X73885714Y-112678571D01*
X73885714Y-112178571D02*
X73814285Y-112250000D01*
X73885714Y-112321428D01*
X73957142Y-112250000D01*
X73885714Y-112178571D01*
X73885714Y-112321428D01*
X74814285Y-113678571D02*
X74671428Y-113607142D01*
X74600000Y-113464285D01*
X74600000Y-112178571D01*
X75600000Y-113678571D02*
X75457142Y-113607142D01*
X75385714Y-113535714D01*
X75314285Y-113392857D01*
X75314285Y-112964285D01*
X75385714Y-112821428D01*
X75457142Y-112750000D01*
X75600000Y-112678571D01*
X75814285Y-112678571D01*
X75957142Y-112750000D01*
X76028571Y-112821428D01*
X76100000Y-112964285D01*
X76100000Y-113392857D01*
X76028571Y-113535714D01*
X75957142Y-113607142D01*
X75814285Y-113678571D01*
X75600000Y-113678571D01*
X76528571Y-112678571D02*
X77100000Y-112678571D01*
X76742857Y-112178571D02*
X76742857Y-113464285D01*
X76814285Y-113607142D01*
X76957142Y-113678571D01*
X77100000Y-113678571D01*
X78671428Y-113250000D02*
X79385714Y-113250000D01*
X78528571Y-113678571D02*
X79028571Y-112178571D01*
X79528571Y-113678571D01*
X80671428Y-112678571D02*
X80671428Y-113678571D01*
X80028571Y-112678571D02*
X80028571Y-113464285D01*
X80100000Y-113607142D01*
X80242857Y-113678571D01*
X80457142Y-113678571D01*
X80600000Y-113607142D01*
X80671428Y-113535714D01*
X81171428Y-112678571D02*
X81742857Y-112678571D01*
X81385714Y-112178571D02*
X81385714Y-113464285D01*
X81457142Y-113607142D01*
X81600000Y-113678571D01*
X81742857Y-113678571D01*
X82457142Y-113678571D02*
X82314285Y-113607142D01*
X82242857Y-113535714D01*
X82171428Y-113392857D01*
X82171428Y-112964285D01*
X82242857Y-112821428D01*
X82314285Y-112750000D01*
X82457142Y-112678571D01*
X82671428Y-112678571D01*
X82814285Y-112750000D01*
X82885714Y-112821428D01*
X82957142Y-112964285D01*
X82957142Y-113392857D01*
X82885714Y-113535714D01*
X82814285Y-113607142D01*
X82671428Y-113678571D01*
X82457142Y-113678571D01*
X83600000Y-112678571D02*
X83600000Y-114178571D01*
X83600000Y-112750000D02*
X83742857Y-112678571D01*
X84028571Y-112678571D01*
X84171428Y-112750000D01*
X84242857Y-112821428D01*
X84314285Y-112964285D01*
X84314285Y-113392857D01*
X84242857Y-113535714D01*
X84171428Y-113607142D01*
X84028571Y-113678571D01*
X83742857Y-113678571D01*
X83600000Y-113607142D01*
X84957142Y-113678571D02*
X84957142Y-112678571D01*
X84957142Y-112178571D02*
X84885714Y-112250000D01*
X84957142Y-112321428D01*
X85028571Y-112250000D01*
X84957142Y-112178571D01*
X84957142Y-112321428D01*
X85885714Y-113678571D02*
X85742857Y-113607142D01*
X85671428Y-113464285D01*
X85671428Y-112178571D01*
X86671428Y-113678571D02*
X86528571Y-113607142D01*
X86457142Y-113535714D01*
X86385714Y-113392857D01*
X86385714Y-112964285D01*
X86457142Y-112821428D01*
X86528571Y-112750000D01*
X86671428Y-112678571D01*
X86885714Y-112678571D01*
X87028571Y-112750000D01*
X87100000Y-112821428D01*
X87171428Y-112964285D01*
X87171428Y-113392857D01*
X87100000Y-113535714D01*
X87028571Y-113607142D01*
X86885714Y-113678571D01*
X86671428Y-113678571D01*
X87600000Y-112678571D02*
X88171428Y-112678571D01*
X87814285Y-112178571D02*
X87814285Y-113464285D01*
X87885714Y-113607142D01*
X88028571Y-113678571D01*
X88171428Y-113678571D01*
X65564285Y-108011904D02*
X65921428Y-108130952D01*
X66516666Y-108130952D01*
X66754761Y-108011904D01*
X66873809Y-107892857D01*
X66992857Y-107654761D01*
X66992857Y-107416666D01*
X66873809Y-107178571D01*
X66754761Y-107059523D01*
X66516666Y-106940476D01*
X66040476Y-106821428D01*
X65802380Y-106702380D01*
X65683333Y-106583333D01*
X65564285Y-106345238D01*
X65564285Y-106107142D01*
X65683333Y-105869047D01*
X65802380Y-105750000D01*
X66040476Y-105630952D01*
X66635714Y-105630952D01*
X66992857Y-105750000D01*
X69135714Y-106464285D02*
X69135714Y-108130952D01*
X68064285Y-106464285D02*
X68064285Y-107773809D01*
X68183333Y-108011904D01*
X68421428Y-108130952D01*
X68778571Y-108130952D01*
X69016666Y-108011904D01*
X69135714Y-107892857D01*
X70207142Y-107416666D02*
X71397619Y-107416666D01*
X69969047Y-108130952D02*
X70802380Y-105630952D01*
X71635714Y-108130952D01*
X72469047Y-106464285D02*
X72469047Y-108130952D01*
X72469047Y-106702380D02*
X72588095Y-106583333D01*
X72826190Y-106464285D01*
X73183333Y-106464285D01*
X73421428Y-106583333D01*
X73540476Y-106821428D01*
X73540476Y-108130952D01*
X77588095Y-108011904D02*
X77350000Y-108130952D01*
X76873809Y-108130952D01*
X76635714Y-108011904D01*
X76516666Y-107773809D01*
X76516666Y-106821428D01*
X76635714Y-106583333D01*
X76873809Y-106464285D01*
X77350000Y-106464285D01*
X77588095Y-106583333D01*
X77707142Y-106821428D01*
X77707142Y-107059523D01*
X76516666Y-107297619D01*
X79135714Y-108130952D02*
X78897619Y-108011904D01*
X78778571Y-107773809D01*
X78778571Y-105630952D01*
X81040476Y-108011904D02*
X80802380Y-108130952D01*
X80326190Y-108130952D01*
X80088095Y-108011904D01*
X79969047Y-107773809D01*
X79969047Y-106821428D01*
X80088095Y-106583333D01*
X80326190Y-106464285D01*
X80802380Y-106464285D01*
X81040476Y-106583333D01*
X81159523Y-106821428D01*
X81159523Y-107059523D01*
X79969047Y-107297619D01*
X83302380Y-108011904D02*
X83064285Y-108130952D01*
X82588095Y-108130952D01*
X82350000Y-108011904D01*
X82230952Y-107892857D01*
X82111904Y-107654761D01*
X82111904Y-106940476D01*
X82230952Y-106702380D01*
X82350000Y-106583333D01*
X82588095Y-106464285D01*
X83064285Y-106464285D01*
X83302380Y-106583333D01*
X84016666Y-106464285D02*
X84969047Y-106464285D01*
X84373809Y-105630952D02*
X84373809Y-107773809D01*
X84492857Y-108011904D01*
X84730952Y-108130952D01*
X84969047Y-108130952D01*
X85802380Y-108130952D02*
X85802380Y-106464285D01*
X85802380Y-106940476D02*
X85921428Y-106702380D01*
X86040476Y-106583333D01*
X86278571Y-106464285D01*
X86516666Y-106464285D01*
X87707142Y-108130952D02*
X87469047Y-108011904D01*
X87350000Y-107892857D01*
X87230952Y-107654761D01*
X87230952Y-106940476D01*
X87350000Y-106702380D01*
X87469047Y-106583333D01*
X87707142Y-106464285D01*
X88064285Y-106464285D01*
X88302380Y-106583333D01*
X88421428Y-106702380D01*
X88540476Y-106940476D01*
X88540476Y-107654761D01*
X88421428Y-107892857D01*
X88302380Y-108011904D01*
X88064285Y-108130952D01*
X87707142Y-108130952D01*
X89611904Y-106464285D02*
X89611904Y-108130952D01*
X89611904Y-106702380D02*
X89730952Y-106583333D01*
X89969047Y-106464285D01*
X90326190Y-106464285D01*
X90564285Y-106583333D01*
X90683333Y-106821428D01*
X90683333Y-108130952D01*
X91873809Y-108130952D02*
X91873809Y-106464285D01*
X91873809Y-105630952D02*
X91754761Y-105750000D01*
X91873809Y-105869047D01*
X91992857Y-105750000D01*
X91873809Y-105630952D01*
X91873809Y-105869047D01*
X94135714Y-108011904D02*
X93897619Y-108130952D01*
X93421428Y-108130952D01*
X93183333Y-108011904D01*
X93064285Y-107892857D01*
X92945238Y-107654761D01*
X92945238Y-106940476D01*
X93064285Y-106702380D01*
X93183333Y-106583333D01*
X93421428Y-106464285D01*
X93897619Y-106464285D01*
X94135714Y-106583333D01*
D13*
X43192428Y-31889380D02*
X42992428Y-31413190D01*
X42849571Y-31889380D02*
X42849571Y-30889380D01*
X43078142Y-30889380D01*
X43135285Y-30937000D01*
X43163857Y-30984619D01*
X43192428Y-31079857D01*
X43192428Y-31222714D01*
X43163857Y-31317952D01*
X43135285Y-31365571D01*
X43078142Y-31413190D01*
X42849571Y-31413190D01*
X43421000Y-31603666D02*
X43706714Y-31603666D01*
X43363857Y-31889380D02*
X43563857Y-30889380D01*
X43763857Y-31889380D01*
X43821000Y-31984619D02*
X44278142Y-31984619D01*
X44392428Y-31603666D02*
X44678142Y-31603666D01*
X44335285Y-31889380D02*
X44535285Y-30889380D01*
X44735285Y-31889380D01*
X44935285Y-31508428D02*
X45392428Y-31508428D01*
X45163857Y-31889380D02*
X45163857Y-31127476D01*
X46832571Y-31889380D02*
X46632571Y-31413190D01*
X46489714Y-31889380D02*
X46489714Y-30889380D01*
X46718285Y-30889380D01*
X46775428Y-30937000D01*
X46804000Y-30984619D01*
X46832571Y-31079857D01*
X46832571Y-31222714D01*
X46804000Y-31317952D01*
X46775428Y-31365571D01*
X46718285Y-31413190D01*
X46489714Y-31413190D01*
X47061142Y-31603666D02*
X47346857Y-31603666D01*
X47004000Y-31889380D02*
X47204000Y-30889380D01*
X47404000Y-31889380D01*
X47461142Y-31984619D02*
X47918285Y-31984619D01*
X48261142Y-31365571D02*
X48346857Y-31413190D01*
X48375428Y-31460809D01*
X48404000Y-31556047D01*
X48404000Y-31698904D01*
X48375428Y-31794142D01*
X48346857Y-31841761D01*
X48289714Y-31889380D01*
X48061142Y-31889380D01*
X48061142Y-30889380D01*
X48261142Y-30889380D01*
X48318285Y-30937000D01*
X48346857Y-30984619D01*
X48375428Y-31079857D01*
X48375428Y-31175095D01*
X48346857Y-31270333D01*
X48318285Y-31317952D01*
X48261142Y-31365571D01*
X48061142Y-31365571D01*
X48661142Y-31508428D02*
X49118285Y-31508428D01*
X50148857Y-31889380D02*
X49948857Y-31413190D01*
X49806000Y-31889380D02*
X49806000Y-30889380D01*
X50034571Y-30889380D01*
X50091714Y-30937000D01*
X50120285Y-30984619D01*
X50148857Y-31079857D01*
X50148857Y-31222714D01*
X50120285Y-31317952D01*
X50091714Y-31365571D01*
X50034571Y-31413190D01*
X49806000Y-31413190D01*
X50377428Y-31603666D02*
X50663142Y-31603666D01*
X50320285Y-31889380D02*
X50520285Y-30889380D01*
X50720285Y-31889380D01*
X50777428Y-31984619D02*
X51234571Y-31984619D01*
X51320285Y-30889380D02*
X51720285Y-30889380D01*
X51320285Y-31889380D01*
X51720285Y-31889380D01*
X51948857Y-31508428D02*
X52406000Y-31508428D01*
X53352428Y-31889380D02*
X53152428Y-31413190D01*
X53009571Y-31889380D02*
X53009571Y-30889380D01*
X53238142Y-30889380D01*
X53295285Y-30937000D01*
X53323857Y-30984619D01*
X53352428Y-31079857D01*
X53352428Y-31222714D01*
X53323857Y-31317952D01*
X53295285Y-31365571D01*
X53238142Y-31413190D01*
X53009571Y-31413190D01*
X53581000Y-31603666D02*
X53866714Y-31603666D01*
X53523857Y-31889380D02*
X53723857Y-30889380D01*
X53923857Y-31889380D01*
X53981000Y-31984619D02*
X54438142Y-31984619D01*
X54695285Y-31413190D02*
X54695285Y-31889380D01*
X54495285Y-30889380D02*
X54695285Y-31413190D01*
X54895285Y-30889380D01*
X55095285Y-31508428D02*
X55552428Y-31508428D01*
X55323857Y-31889380D02*
X55323857Y-31127476D01*
X56733857Y-31889380D02*
X56733857Y-30889380D01*
X56933857Y-31603666D01*
X57133857Y-30889380D01*
X57133857Y-31889380D01*
X57762428Y-31794142D02*
X57733857Y-31841761D01*
X57648142Y-31889380D01*
X57591000Y-31889380D01*
X57505285Y-31841761D01*
X57448142Y-31746523D01*
X57419571Y-31651285D01*
X57391000Y-31460809D01*
X57391000Y-31317952D01*
X57419571Y-31127476D01*
X57448142Y-31032238D01*
X57505285Y-30937000D01*
X57591000Y-30889380D01*
X57648142Y-30889380D01*
X57733857Y-30937000D01*
X57762428Y-30984619D01*
X57876714Y-31984619D02*
X58333857Y-31984619D01*
X58448142Y-31603666D02*
X58733857Y-31603666D01*
X58391000Y-31889380D02*
X58591000Y-30889380D01*
X58791000Y-31889380D01*
X58991000Y-31508428D02*
X59448142Y-31508428D01*
X59219571Y-31889380D02*
X59219571Y-31127476D01*
X60120000Y-31889380D02*
X60120000Y-30889380D01*
X60320000Y-31603666D01*
X60520000Y-30889380D01*
X60520000Y-31889380D01*
X61148571Y-31794142D02*
X61120000Y-31841761D01*
X61034285Y-31889380D01*
X60977142Y-31889380D01*
X60891428Y-31841761D01*
X60834285Y-31746523D01*
X60805714Y-31651285D01*
X60777142Y-31460809D01*
X60777142Y-31317952D01*
X60805714Y-31127476D01*
X60834285Y-31032238D01*
X60891428Y-30937000D01*
X60977142Y-30889380D01*
X61034285Y-30889380D01*
X61120000Y-30937000D01*
X61148571Y-30984619D01*
X61262857Y-31984619D02*
X61720000Y-31984619D01*
X62062857Y-31365571D02*
X62148571Y-31413190D01*
X62177142Y-31460809D01*
X62205714Y-31556047D01*
X62205714Y-31698904D01*
X62177142Y-31794142D01*
X62148571Y-31841761D01*
X62091428Y-31889380D01*
X61862857Y-31889380D01*
X61862857Y-30889380D01*
X62062857Y-30889380D01*
X62120000Y-30937000D01*
X62148571Y-30984619D01*
X62177142Y-31079857D01*
X62177142Y-31175095D01*
X62148571Y-31270333D01*
X62120000Y-31317952D01*
X62062857Y-31365571D01*
X61862857Y-31365571D01*
X62462857Y-31508428D02*
X62920000Y-31508428D01*
X63563285Y-31889380D02*
X63563285Y-30889380D01*
X63763285Y-31603666D01*
X63963285Y-30889380D01*
X63963285Y-31889380D01*
X64591857Y-31794142D02*
X64563285Y-31841761D01*
X64477571Y-31889380D01*
X64420428Y-31889380D01*
X64334714Y-31841761D01*
X64277571Y-31746523D01*
X64249000Y-31651285D01*
X64220428Y-31460809D01*
X64220428Y-31317952D01*
X64249000Y-31127476D01*
X64277571Y-31032238D01*
X64334714Y-30937000D01*
X64420428Y-30889380D01*
X64477571Y-30889380D01*
X64563285Y-30937000D01*
X64591857Y-30984619D01*
X64706142Y-31984619D02*
X65163285Y-31984619D01*
X65249000Y-30889380D02*
X65649000Y-30889380D01*
X65249000Y-31889380D01*
X65649000Y-31889380D01*
X65877571Y-31508428D02*
X66334714Y-31508428D01*
X67147857Y-31889380D02*
X67147857Y-30889380D01*
X67347857Y-31603666D01*
X67547857Y-30889380D01*
X67547857Y-31889380D01*
X68176428Y-31794142D02*
X68147857Y-31841761D01*
X68062142Y-31889380D01*
X68005000Y-31889380D01*
X67919285Y-31841761D01*
X67862142Y-31746523D01*
X67833571Y-31651285D01*
X67805000Y-31460809D01*
X67805000Y-31317952D01*
X67833571Y-31127476D01*
X67862142Y-31032238D01*
X67919285Y-30937000D01*
X68005000Y-30889380D01*
X68062142Y-30889380D01*
X68147857Y-30937000D01*
X68176428Y-30984619D01*
X68290714Y-31984619D02*
X68747857Y-31984619D01*
X69005000Y-31413190D02*
X69005000Y-31889380D01*
X68805000Y-30889380D02*
X69005000Y-31413190D01*
X69205000Y-30889380D01*
X69405000Y-31508428D02*
X69862142Y-31508428D01*
X69633571Y-31889380D02*
X69633571Y-31127476D01*
D14*
X78903285Y-31635428D02*
X79665190Y-31635428D01*
X79284238Y-32016380D02*
X79284238Y-31254476D01*
X80617571Y-31016380D02*
X80141380Y-31016380D01*
X80093761Y-31492571D01*
X80141380Y-31444952D01*
X80236619Y-31397333D01*
X80474714Y-31397333D01*
X80569952Y-31444952D01*
X80617571Y-31492571D01*
X80665190Y-31587809D01*
X80665190Y-31825904D01*
X80617571Y-31921142D01*
X80569952Y-31968761D01*
X80474714Y-32016380D01*
X80236619Y-32016380D01*
X80141380Y-31968761D01*
X80093761Y-31921142D01*
X80950904Y-31016380D02*
X81284238Y-32016380D01*
X81617571Y-31016380D01*
X75744095Y-31064000D02*
X75648857Y-31016380D01*
X75506000Y-31016380D01*
X75363142Y-31064000D01*
X75267904Y-31159238D01*
X75220285Y-31254476D01*
X75172666Y-31444952D01*
X75172666Y-31587809D01*
X75220285Y-31778285D01*
X75267904Y-31873523D01*
X75363142Y-31968761D01*
X75506000Y-32016380D01*
X75601238Y-32016380D01*
X75744095Y-31968761D01*
X75791714Y-31921142D01*
X75791714Y-31587809D01*
X75601238Y-31587809D01*
X76220285Y-32016380D02*
X76220285Y-31016380D01*
X76791714Y-32016380D01*
X76791714Y-31016380D01*
X77267904Y-32016380D02*
X77267904Y-31016380D01*
X77506000Y-31016380D01*
X77648857Y-31064000D01*
X77744095Y-31159238D01*
X77791714Y-31254476D01*
X77839333Y-31444952D01*
X77839333Y-31587809D01*
X77791714Y-31778285D01*
X77744095Y-31873523D01*
X77648857Y-31968761D01*
X77506000Y-32016380D01*
X77267904Y-32016380D01*
X72188095Y-31064000D02*
X72092857Y-31016380D01*
X71950000Y-31016380D01*
X71807142Y-31064000D01*
X71711904Y-31159238D01*
X71664285Y-31254476D01*
X71616666Y-31444952D01*
X71616666Y-31587809D01*
X71664285Y-31778285D01*
X71711904Y-31873523D01*
X71807142Y-31968761D01*
X71950000Y-32016380D01*
X72045238Y-32016380D01*
X72188095Y-31968761D01*
X72235714Y-31921142D01*
X72235714Y-31587809D01*
X72045238Y-31587809D01*
X72664285Y-32016380D02*
X72664285Y-31016380D01*
X73235714Y-32016380D01*
X73235714Y-31016380D01*
X73711904Y-32016380D02*
X73711904Y-31016380D01*
X73950000Y-31016380D01*
X74092857Y-31064000D01*
X74188095Y-31159238D01*
X74235714Y-31254476D01*
X74283333Y-31444952D01*
X74283333Y-31587809D01*
X74235714Y-31778285D01*
X74188095Y-31873523D01*
X74092857Y-31968761D01*
X73950000Y-32016380D01*
X73711904Y-32016380D01*
X63607142Y-68428571D02*
X63607142Y-66928571D01*
X63873809Y-68000000D01*
X64140476Y-66928571D01*
X64140476Y-68428571D01*
X64635714Y-68428571D02*
X64559523Y-68357142D01*
X64521428Y-68285714D01*
X64483333Y-68142857D01*
X64483333Y-67714285D01*
X64521428Y-67571428D01*
X64559523Y-67500000D01*
X64635714Y-67428571D01*
X64750000Y-67428571D01*
X64826190Y-67500000D01*
X64864285Y-67571428D01*
X64902380Y-67714285D01*
X64902380Y-68142857D01*
X64864285Y-68285714D01*
X64826190Y-68357142D01*
X64750000Y-68428571D01*
X64635714Y-68428571D01*
X65130952Y-67428571D02*
X65435714Y-67428571D01*
X65245238Y-66928571D02*
X65245238Y-68214285D01*
X65283333Y-68357142D01*
X65359523Y-68428571D01*
X65435714Y-68428571D01*
X65816666Y-68428571D02*
X65740476Y-68357142D01*
X65702380Y-68285714D01*
X65664285Y-68142857D01*
X65664285Y-67714285D01*
X65702380Y-67571428D01*
X65740476Y-67500000D01*
X65816666Y-67428571D01*
X65930952Y-67428571D01*
X66007142Y-67500000D01*
X66045238Y-67571428D01*
X66083333Y-67714285D01*
X66083333Y-68142857D01*
X66045238Y-68285714D01*
X66007142Y-68357142D01*
X65930952Y-68428571D01*
X65816666Y-68428571D01*
X66426190Y-68428571D02*
X66426190Y-67428571D01*
X66426190Y-67714285D02*
X66464285Y-67571428D01*
X66502380Y-67500000D01*
X66578571Y-67428571D01*
X66654761Y-67428571D01*
X67988095Y-68285714D02*
X67950000Y-68357142D01*
X67835714Y-68428571D01*
X67759523Y-68428571D01*
X67645238Y-68357142D01*
X67569047Y-68214285D01*
X67530952Y-68071428D01*
X67492857Y-67785714D01*
X67492857Y-67571428D01*
X67530952Y-67285714D01*
X67569047Y-67142857D01*
X67645238Y-67000000D01*
X67759523Y-66928571D01*
X67835714Y-66928571D01*
X67950000Y-67000000D01*
X67988095Y-67071428D01*
X68445238Y-68428571D02*
X68369047Y-68357142D01*
X68330952Y-68285714D01*
X68292857Y-68142857D01*
X68292857Y-67714285D01*
X68330952Y-67571428D01*
X68369047Y-67500000D01*
X68445238Y-67428571D01*
X68559523Y-67428571D01*
X68635714Y-67500000D01*
X68673809Y-67571428D01*
X68711904Y-67714285D01*
X68711904Y-68142857D01*
X68673809Y-68285714D01*
X68635714Y-68357142D01*
X68559523Y-68428571D01*
X68445238Y-68428571D01*
X69054761Y-67428571D02*
X69054761Y-68428571D01*
X69054761Y-67571428D02*
X69092857Y-67500000D01*
X69169047Y-67428571D01*
X69283333Y-67428571D01*
X69359523Y-67500000D01*
X69397619Y-67642857D01*
X69397619Y-68428571D01*
X69664285Y-67428571D02*
X69969047Y-67428571D01*
X69778571Y-66928571D02*
X69778571Y-68214285D01*
X69816666Y-68357142D01*
X69892857Y-68428571D01*
X69969047Y-68428571D01*
X70235714Y-68428571D02*
X70235714Y-67428571D01*
X70235714Y-67714285D02*
X70273809Y-67571428D01*
X70311904Y-67500000D01*
X70388095Y-67428571D01*
X70464285Y-67428571D01*
X70845238Y-68428571D02*
X70769047Y-68357142D01*
X70730952Y-68285714D01*
X70692857Y-68142857D01*
X70692857Y-67714285D01*
X70730952Y-67571428D01*
X70769047Y-67500000D01*
X70845238Y-67428571D01*
X70959523Y-67428571D01*
X71035714Y-67500000D01*
X71073809Y-67571428D01*
X71111904Y-67714285D01*
X71111904Y-68142857D01*
X71073809Y-68285714D01*
X71035714Y-68357142D01*
X70959523Y-68428571D01*
X70845238Y-68428571D01*
X71569047Y-68428571D02*
X71492857Y-68357142D01*
X71454761Y-68214285D01*
X71454761Y-66928571D01*
X71988095Y-68428571D02*
X71911904Y-68357142D01*
X71873809Y-68214285D01*
X71873809Y-66928571D01*
X72597619Y-68357142D02*
X72521428Y-68428571D01*
X72369047Y-68428571D01*
X72292857Y-68357142D01*
X72254761Y-68214285D01*
X72254761Y-67642857D01*
X72292857Y-67500000D01*
X72369047Y-67428571D01*
X72521428Y-67428571D01*
X72597619Y-67500000D01*
X72635714Y-67642857D01*
X72635714Y-67785714D01*
X72254761Y-67928571D01*
X72978571Y-68428571D02*
X72978571Y-67428571D01*
X72978571Y-67714285D02*
X73016666Y-67571428D01*
X73054761Y-67500000D01*
X73130952Y-67428571D01*
X73207142Y-67428571D01*
D15*
%TO.C,U3*%
X41390000Y-114550000D02*
G75*
G03*
X46590000Y-114550000I2600000J1100000D01*
G01*
X47050000Y-114550000D02*
X47050000Y-113350000D01*
X47050000Y-114550000D02*
X46590000Y-114550000D01*
X46970000Y-110890000D02*
X43890000Y-110890000D01*
X41390000Y-114550000D02*
X41170000Y-114550000D01*
%TO.C,U2*%
X39570000Y-68049000D02*
X37284000Y-68049000D01*
X39570000Y-37753000D02*
X39570000Y-68049000D01*
X37284000Y-37763000D02*
X39570000Y-37763000D01*
X37284000Y-68049000D02*
X37284000Y-37753000D01*
%TO.C,U4*%
X84570000Y-68049000D02*
X82284000Y-68049000D01*
X84570000Y-37753000D02*
X84570000Y-68049000D01*
X82284000Y-37763000D02*
X84570000Y-37763000D01*
X82284000Y-68049000D02*
X82284000Y-37753000D01*
%TO.C,BZ1*%
X99759358Y-72525400D02*
G75*
G03*
X99759358Y-72525400I-6150158J0D01*
G01*
%TO.C,J4*%
X85146000Y-79836000D02*
X85146000Y-82496000D01*
X97906000Y-79836000D02*
X85146000Y-79836000D01*
X97906000Y-82496000D02*
X85146000Y-82496000D01*
X97906000Y-79836000D02*
X97906000Y-82496000D01*
X99176000Y-79836000D02*
X100506000Y-79836000D01*
X100506000Y-79836000D02*
X100506000Y-81166000D01*
%TO.C,JP4*%
X35180000Y-67080000D02*
X33850000Y-67080000D01*
X35180000Y-65750000D02*
X35180000Y-67080000D01*
X35180000Y-64480000D02*
X32520000Y-64480000D01*
X32520000Y-64480000D02*
X32520000Y-61880000D01*
X35180000Y-64480000D02*
X35180000Y-61880000D01*
X35180000Y-61880000D02*
X32520000Y-61880000D01*
%TO.C,JP3*%
X35430000Y-58080000D02*
X34100000Y-58080000D01*
X35430000Y-56750000D02*
X35430000Y-58080000D01*
X35430000Y-55480000D02*
X32770000Y-55480000D01*
X32770000Y-55480000D02*
X32770000Y-52880000D01*
X35430000Y-55480000D02*
X35430000Y-52880000D01*
X35430000Y-52880000D02*
X32770000Y-52880000D01*
%TO.C,U5*%
X46120000Y-109080000D02*
X46120000Y-98666000D01*
X46120000Y-98666000D02*
X48850000Y-98666000D01*
X48850000Y-98666000D02*
X48850000Y-109080000D01*
X46120000Y-109080000D02*
X48850000Y-109080000D01*
%TO.C,R16*%
X47470000Y-77750000D02*
X46700000Y-77750000D01*
X39390000Y-77750000D02*
X40160000Y-77750000D01*
X46700000Y-76380000D02*
X40160000Y-76380000D01*
X46700000Y-79120000D02*
X46700000Y-76380000D01*
X40160000Y-79120000D02*
X46700000Y-79120000D01*
X40160000Y-76380000D02*
X40160000Y-79120000D01*
%TO.C,R15*%
X122480000Y-50765000D02*
X122480000Y-51535000D01*
X122480000Y-58845000D02*
X122480000Y-58075000D01*
X121110000Y-51535000D02*
X121110000Y-58075000D01*
X123850000Y-51535000D02*
X121110000Y-51535000D01*
X123850000Y-58075000D02*
X123850000Y-51535000D01*
X121110000Y-58075000D02*
X123850000Y-58075000D01*
%TO.C,R2*%
X44505000Y-55620000D02*
X44505000Y-54850000D01*
X44505000Y-47540000D02*
X44505000Y-48310000D01*
X45875000Y-54850000D02*
X45875000Y-48310000D01*
X43135000Y-54850000D02*
X45875000Y-54850000D01*
X43135000Y-48310000D02*
X43135000Y-54850000D01*
X45875000Y-48310000D02*
X43135000Y-48310000D01*
%TO.C,D7*%
X35295000Y-80495000D02*
X35451000Y-80495000D01*
X32979000Y-80495000D02*
X33135000Y-80495000D01*
X35294837Y-77893870D02*
G75*
G02*
X35295000Y-79975961I-1079837J-1041130D01*
G01*
X33135163Y-77893870D02*
G75*
G03*
X33135000Y-79975961I1079837J-1041130D01*
G01*
X35293608Y-77262665D02*
G75*
G02*
X35450516Y-80495000I-1078608J-1672335D01*
G01*
X33136392Y-77262665D02*
G75*
G03*
X32979484Y-80495000I1078608J-1672335D01*
G01*
%TO.C,D6*%
X123560000Y-80495000D02*
X123716000Y-80495000D01*
X121244000Y-80495000D02*
X121400000Y-80495000D01*
X123559837Y-77893870D02*
G75*
G02*
X123560000Y-79975961I-1079837J-1041130D01*
G01*
X121400163Y-77893870D02*
G75*
G03*
X121400000Y-79975961I1079837J-1041130D01*
G01*
X123558608Y-77262665D02*
G75*
G02*
X123715516Y-80495000I-1078608J-1672335D01*
G01*
X121401392Y-77262665D02*
G75*
G03*
X121244484Y-80495000I1078608J-1672335D01*
G01*
%TO.C,U7*%
X47620000Y-40925000D02*
X47620000Y-42175000D01*
X47620000Y-42175000D02*
X57900000Y-42175000D01*
X57900000Y-42175000D02*
X57900000Y-37675000D01*
X57900000Y-37675000D02*
X47620000Y-37675000D01*
X47620000Y-37675000D02*
X47620000Y-38925000D01*
X47620000Y-38925000D02*
G75*
G02*
X47620000Y-40925000I0J-1000000D01*
G01*
%TO.C,U6*%
X64765000Y-40925000D02*
X64765000Y-42175000D01*
X64765000Y-42175000D02*
X75045000Y-42175000D01*
X75045000Y-42175000D02*
X75045000Y-37675000D01*
X75045000Y-37675000D02*
X64765000Y-37675000D01*
X64765000Y-37675000D02*
X64765000Y-38925000D01*
X64765000Y-38925000D02*
G75*
G02*
X64765000Y-40925000I0J-1000000D01*
G01*
%TO.C,R7*%
X64725000Y-57165000D02*
X67465000Y-57165000D01*
X67465000Y-57165000D02*
X67465000Y-50625000D01*
X67465000Y-50625000D02*
X64725000Y-50625000D01*
X64725000Y-50625000D02*
X64725000Y-57165000D01*
X66095000Y-57935000D02*
X66095000Y-57165000D01*
X66095000Y-49855000D02*
X66095000Y-50625000D01*
%TO.C,R9*%
X62190000Y-31570000D02*
X62190000Y-34310000D01*
X62190000Y-34310000D02*
X68730000Y-34310000D01*
X68730000Y-34310000D02*
X68730000Y-31570000D01*
X68730000Y-31570000D02*
X62190000Y-31570000D01*
X61420000Y-32940000D02*
X62190000Y-32940000D01*
X69500000Y-32940000D02*
X68730000Y-32940000D01*
%TO.C,R8*%
X45680000Y-31570000D02*
X45680000Y-34310000D01*
X45680000Y-34310000D02*
X52220000Y-34310000D01*
X52220000Y-34310000D02*
X52220000Y-31570000D01*
X52220000Y-31570000D02*
X45680000Y-31570000D01*
X44910000Y-32940000D02*
X45680000Y-32940000D01*
X52990000Y-32940000D02*
X52220000Y-32940000D01*
%TO.C,R6*%
X117505000Y-93165000D02*
X120245000Y-93165000D01*
X120245000Y-93165000D02*
X120245000Y-86625000D01*
X120245000Y-86625000D02*
X117505000Y-86625000D01*
X117505000Y-86625000D02*
X117505000Y-93165000D01*
X118875000Y-93935000D02*
X118875000Y-93165000D01*
X118875000Y-85855000D02*
X118875000Y-86625000D01*
%TO.C,R5*%
X67900000Y-57165000D02*
X70640000Y-57165000D01*
X70640000Y-57165000D02*
X70640000Y-50625000D01*
X70640000Y-50625000D02*
X67900000Y-50625000D01*
X67900000Y-50625000D02*
X67900000Y-57165000D01*
X69270000Y-57935000D02*
X69270000Y-57165000D01*
X69270000Y-49855000D02*
X69270000Y-50625000D01*
%TO.C,R4*%
X120680000Y-93165000D02*
X123420000Y-93165000D01*
X123420000Y-93165000D02*
X123420000Y-86625000D01*
X123420000Y-86625000D02*
X120680000Y-86625000D01*
X120680000Y-86625000D02*
X120680000Y-93165000D01*
X122050000Y-93935000D02*
X122050000Y-93165000D01*
X122050000Y-85855000D02*
X122050000Y-86625000D01*
%TO.C,D5*%
X66942000Y-61440000D02*
X66786000Y-61440000D01*
X64626000Y-61440000D02*
X64470000Y-61440000D01*
X64626163Y-64041130D02*
G75*
G02*
X64626000Y-61959039I1079837J1041130D01*
G01*
X66785837Y-64041130D02*
G75*
G03*
X66786000Y-61959039I-1079837J1041130D01*
G01*
X64627392Y-64672335D02*
G75*
G02*
X64470484Y-61440000I1078608J1672335D01*
G01*
X66784608Y-64672335D02*
G75*
G03*
X66941516Y-61440000I-1078608J1672335D01*
G01*
%TO.C,D4*%
X124086000Y-103960000D02*
X123930000Y-103960000D01*
X121770000Y-103960000D02*
X121614000Y-103960000D01*
X121770163Y-106561130D02*
G75*
G02*
X121770000Y-104479039I1079837J1041130D01*
G01*
X123929837Y-106561130D02*
G75*
G03*
X123930000Y-104479039I-1079837J1041130D01*
G01*
X121771392Y-107192335D02*
G75*
G02*
X121614484Y-103960000I1078608J1672335D01*
G01*
X123928608Y-107192335D02*
G75*
G03*
X124085516Y-103960000I-1078608J1672335D01*
G01*
%TO.C,D3*%
X71768000Y-61440000D02*
X71612000Y-61440000D01*
X69452000Y-61440000D02*
X69296000Y-61440000D01*
X69452163Y-64041130D02*
G75*
G02*
X69452000Y-61959039I1079837J1041130D01*
G01*
X71611837Y-64041130D02*
G75*
G03*
X71612000Y-61959039I-1079837J1041130D01*
G01*
X69453392Y-64672335D02*
G75*
G02*
X69296484Y-61440000I1078608J1672335D01*
G01*
X71610608Y-64672335D02*
G75*
G03*
X71767516Y-61440000I-1078608J1672335D01*
G01*
%TO.C,D2*%
X124086000Y-97460000D02*
X123930000Y-97460000D01*
X121770000Y-97460000D02*
X121614000Y-97460000D01*
X121770163Y-100061130D02*
G75*
G02*
X121770000Y-97979039I1079837J1041130D01*
G01*
X123929837Y-100061130D02*
G75*
G03*
X123930000Y-97979039I-1079837J1041130D01*
G01*
X121771392Y-100692335D02*
G75*
G02*
X121614484Y-97460000I1078608J1672335D01*
G01*
X123928608Y-100692335D02*
G75*
G03*
X124085516Y-97460000I-1078608J1672335D01*
G01*
%TO.C,C6*%
X46826000Y-36765000D02*
X46826000Y-43005000D01*
X42184000Y-36765000D02*
X42184000Y-43005000D01*
X46826000Y-36765000D02*
X45430000Y-36765000D01*
X43580000Y-36765000D02*
X42184000Y-36765000D01*
X46826000Y-43005000D02*
X45430000Y-43005000D01*
X43580000Y-43005000D02*
X42184000Y-43005000D01*
%TO.C,C5*%
X63971000Y-37400000D02*
X63971000Y-43640000D01*
X59329000Y-37400000D02*
X59329000Y-43640000D01*
X63971000Y-37400000D02*
X62575000Y-37400000D01*
X60725000Y-37400000D02*
X59329000Y-37400000D01*
X63971000Y-43640000D02*
X62575000Y-43640000D01*
X60725000Y-43640000D02*
X59329000Y-43640000D01*
%TO.C,C4*%
X94635000Y-26885000D02*
G75*
G03*
X94635000Y-26885000I-3270000J0D01*
G01*
X88135000Y-26885000D02*
X94595000Y-26885000D01*
X88135000Y-26845000D02*
X94595000Y-26845000D01*
X88135000Y-26805000D02*
X94595000Y-26805000D01*
X88137000Y-26765000D02*
X94593000Y-26765000D01*
X88138000Y-26725000D02*
X94592000Y-26725000D01*
X88141000Y-26685000D02*
X94589000Y-26685000D01*
X88143000Y-26645000D02*
X90325000Y-26645000D01*
X92405000Y-26645000D02*
X94587000Y-26645000D01*
X88147000Y-26605000D02*
X90325000Y-26605000D01*
X92405000Y-26605000D02*
X94583000Y-26605000D01*
X88150000Y-26565000D02*
X90325000Y-26565000D01*
X92405000Y-26565000D02*
X94580000Y-26565000D01*
X88154000Y-26525000D02*
X90325000Y-26525000D01*
X92405000Y-26525000D02*
X94576000Y-26525000D01*
X88159000Y-26485000D02*
X90325000Y-26485000D01*
X92405000Y-26485000D02*
X94571000Y-26485000D01*
X88164000Y-26445000D02*
X90325000Y-26445000D01*
X92405000Y-26445000D02*
X94566000Y-26445000D01*
X88170000Y-26405000D02*
X90325000Y-26405000D01*
X92405000Y-26405000D02*
X94560000Y-26405000D01*
X88176000Y-26365000D02*
X90325000Y-26365000D01*
X92405000Y-26365000D02*
X94554000Y-26365000D01*
X88183000Y-26325000D02*
X90325000Y-26325000D01*
X92405000Y-26325000D02*
X94547000Y-26325000D01*
X88190000Y-26285000D02*
X90325000Y-26285000D01*
X92405000Y-26285000D02*
X94540000Y-26285000D01*
X88198000Y-26245000D02*
X90325000Y-26245000D01*
X92405000Y-26245000D02*
X94532000Y-26245000D01*
X88206000Y-26205000D02*
X90325000Y-26205000D01*
X92405000Y-26205000D02*
X94524000Y-26205000D01*
X88215000Y-26164000D02*
X90325000Y-26164000D01*
X92405000Y-26164000D02*
X94515000Y-26164000D01*
X88224000Y-26124000D02*
X90325000Y-26124000D01*
X92405000Y-26124000D02*
X94506000Y-26124000D01*
X88234000Y-26084000D02*
X90325000Y-26084000D01*
X92405000Y-26084000D02*
X94496000Y-26084000D01*
X88244000Y-26044000D02*
X90325000Y-26044000D01*
X92405000Y-26044000D02*
X94486000Y-26044000D01*
X88255000Y-26004000D02*
X90325000Y-26004000D01*
X92405000Y-26004000D02*
X94475000Y-26004000D01*
X88267000Y-25964000D02*
X90325000Y-25964000D01*
X92405000Y-25964000D02*
X94463000Y-25964000D01*
X88279000Y-25924000D02*
X90325000Y-25924000D01*
X92405000Y-25924000D02*
X94451000Y-25924000D01*
X88291000Y-25884000D02*
X90325000Y-25884000D01*
X92405000Y-25884000D02*
X94439000Y-25884000D01*
X88304000Y-25844000D02*
X90325000Y-25844000D01*
X92405000Y-25844000D02*
X94426000Y-25844000D01*
X88318000Y-25804000D02*
X90325000Y-25804000D01*
X92405000Y-25804000D02*
X94412000Y-25804000D01*
X88332000Y-25764000D02*
X90325000Y-25764000D01*
X92405000Y-25764000D02*
X94398000Y-25764000D01*
X88347000Y-25724000D02*
X90325000Y-25724000D01*
X92405000Y-25724000D02*
X94383000Y-25724000D01*
X88363000Y-25684000D02*
X90325000Y-25684000D01*
X92405000Y-25684000D02*
X94367000Y-25684000D01*
X88379000Y-25644000D02*
X90325000Y-25644000D01*
X92405000Y-25644000D02*
X94351000Y-25644000D01*
X88395000Y-25604000D02*
X90325000Y-25604000D01*
X92405000Y-25604000D02*
X94335000Y-25604000D01*
X88413000Y-25564000D02*
X90325000Y-25564000D01*
X92405000Y-25564000D02*
X94317000Y-25564000D01*
X88431000Y-25524000D02*
X90325000Y-25524000D01*
X92405000Y-25524000D02*
X94299000Y-25524000D01*
X88449000Y-25484000D02*
X90325000Y-25484000D01*
X92405000Y-25484000D02*
X94281000Y-25484000D01*
X88469000Y-25444000D02*
X90325000Y-25444000D01*
X92405000Y-25444000D02*
X94261000Y-25444000D01*
X88489000Y-25404000D02*
X90325000Y-25404000D01*
X92405000Y-25404000D02*
X94241000Y-25404000D01*
X88509000Y-25364000D02*
X90325000Y-25364000D01*
X92405000Y-25364000D02*
X94221000Y-25364000D01*
X88531000Y-25324000D02*
X90325000Y-25324000D01*
X92405000Y-25324000D02*
X94199000Y-25324000D01*
X88553000Y-25284000D02*
X90325000Y-25284000D01*
X92405000Y-25284000D02*
X94177000Y-25284000D01*
X88575000Y-25244000D02*
X90325000Y-25244000D01*
X92405000Y-25244000D02*
X94155000Y-25244000D01*
X88599000Y-25204000D02*
X90325000Y-25204000D01*
X92405000Y-25204000D02*
X94131000Y-25204000D01*
X88623000Y-25164000D02*
X90325000Y-25164000D01*
X92405000Y-25164000D02*
X94107000Y-25164000D01*
X88649000Y-25124000D02*
X90325000Y-25124000D01*
X92405000Y-25124000D02*
X94081000Y-25124000D01*
X88675000Y-25084000D02*
X90325000Y-25084000D01*
X92405000Y-25084000D02*
X94055000Y-25084000D01*
X88701000Y-25044000D02*
X90325000Y-25044000D01*
X92405000Y-25044000D02*
X94029000Y-25044000D01*
X88729000Y-25004000D02*
X90325000Y-25004000D01*
X92405000Y-25004000D02*
X94001000Y-25004000D01*
X88758000Y-24964000D02*
X90325000Y-24964000D01*
X92405000Y-24964000D02*
X93972000Y-24964000D01*
X88787000Y-24924000D02*
X90325000Y-24924000D01*
X92405000Y-24924000D02*
X93943000Y-24924000D01*
X88817000Y-24884000D02*
X90325000Y-24884000D01*
X92405000Y-24884000D02*
X93913000Y-24884000D01*
X88849000Y-24844000D02*
X90325000Y-24844000D01*
X92405000Y-24844000D02*
X93881000Y-24844000D01*
X88881000Y-24804000D02*
X90325000Y-24804000D01*
X92405000Y-24804000D02*
X93849000Y-24804000D01*
X88915000Y-24764000D02*
X90325000Y-24764000D01*
X92405000Y-24764000D02*
X93815000Y-24764000D01*
X88949000Y-24724000D02*
X90325000Y-24724000D01*
X92405000Y-24724000D02*
X93781000Y-24724000D01*
X88985000Y-24684000D02*
X90325000Y-24684000D01*
X92405000Y-24684000D02*
X93745000Y-24684000D01*
X89022000Y-24644000D02*
X90325000Y-24644000D01*
X92405000Y-24644000D02*
X93708000Y-24644000D01*
X89060000Y-24604000D02*
X90325000Y-24604000D01*
X92405000Y-24604000D02*
X93670000Y-24604000D01*
X89100000Y-24564000D02*
X93630000Y-24564000D01*
X89141000Y-24524000D02*
X93589000Y-24524000D01*
X89183000Y-24484000D02*
X93547000Y-24484000D01*
X89228000Y-24444000D02*
X93502000Y-24444000D01*
X89273000Y-24404000D02*
X93457000Y-24404000D01*
X89321000Y-24364000D02*
X93409000Y-24364000D01*
X89370000Y-24324000D02*
X93360000Y-24324000D01*
X89421000Y-24284000D02*
X93309000Y-24284000D01*
X89475000Y-24244000D02*
X93255000Y-24244000D01*
X89531000Y-24204000D02*
X93199000Y-24204000D01*
X89589000Y-24164000D02*
X93141000Y-24164000D01*
X89651000Y-24124000D02*
X93079000Y-24124000D01*
X89715000Y-24084000D02*
X93015000Y-24084000D01*
X89784000Y-24044000D02*
X92946000Y-24044000D01*
X89856000Y-24004000D02*
X92874000Y-24004000D01*
X89933000Y-23964000D02*
X92797000Y-23964000D01*
X90015000Y-23924000D02*
X92715000Y-23924000D01*
X90103000Y-23884000D02*
X92627000Y-23884000D01*
X90200000Y-23844000D02*
X92530000Y-23844000D01*
X90306000Y-23804000D02*
X92424000Y-23804000D01*
X90425000Y-23764000D02*
X92305000Y-23764000D01*
X90563000Y-23724000D02*
X92167000Y-23724000D01*
X90732000Y-23684000D02*
X91998000Y-23684000D01*
X90963000Y-23644000D02*
X91767000Y-23644000D01*
X89526000Y-30385241D02*
X89526000Y-29755241D01*
X89211000Y-30070241D02*
X89841000Y-30070241D01*
%TO.C,C2*%
X82694000Y-30025000D02*
X82694000Y-23785000D01*
X87336000Y-30025000D02*
X87336000Y-23785000D01*
X82694000Y-30025000D02*
X84090000Y-30025000D01*
X85940000Y-30025000D02*
X87336000Y-30025000D01*
X82694000Y-23785000D02*
X84090000Y-23785000D01*
X85940000Y-23785000D02*
X87336000Y-23785000D01*
%TO.C,D1*%
X103810000Y-40764000D02*
X103810000Y-40920000D01*
X103810000Y-43080000D02*
X103810000Y-43236000D01*
X106411130Y-43079837D02*
G75*
G02*
X104329039Y-43080000I-1041130J1079837D01*
G01*
X106411130Y-40920163D02*
G75*
G03*
X104329039Y-40920000I-1041130J-1079837D01*
G01*
X107042335Y-43078608D02*
G75*
G02*
X103810000Y-43235516I-1672335J1078608D01*
G01*
X107042335Y-40921392D02*
G75*
G03*
X103810000Y-40764484I-1672335J-1078608D01*
G01*
%TO.C,U1*%
X106605000Y-33215000D02*
X106605000Y-30675000D01*
X114225000Y-33215000D02*
X106605000Y-33215000D01*
X114225000Y-30675000D02*
X114225000Y-33215000D01*
X106605000Y-30675000D02*
X114225000Y-30675000D01*
%TO.C,R14*%
X97175000Y-44110000D02*
X97175000Y-41370000D01*
X97175000Y-41370000D02*
X90635000Y-41370000D01*
X90635000Y-41370000D02*
X90635000Y-44110000D01*
X90635000Y-44110000D02*
X97175000Y-44110000D01*
X97945000Y-42740000D02*
X97175000Y-42740000D01*
X89865000Y-42740000D02*
X90635000Y-42740000D01*
%TO.C,R13*%
X88090000Y-62520000D02*
X90830000Y-62520000D01*
X90830000Y-62520000D02*
X90830000Y-55980000D01*
X90830000Y-55980000D02*
X88090000Y-55980000D01*
X88090000Y-55980000D02*
X88090000Y-62520000D01*
X89460000Y-63290000D02*
X89460000Y-62520000D01*
X89460000Y-55210000D02*
X89460000Y-55980000D01*
%TO.C,R12*%
X91265000Y-62520000D02*
X94005000Y-62520000D01*
X94005000Y-62520000D02*
X94005000Y-55980000D01*
X94005000Y-55980000D02*
X91265000Y-55980000D01*
X91265000Y-55980000D02*
X91265000Y-62520000D01*
X92635000Y-63290000D02*
X92635000Y-62520000D01*
X92635000Y-55210000D02*
X92635000Y-55980000D01*
%TO.C,R11*%
X94440000Y-62520000D02*
X97180000Y-62520000D01*
X97180000Y-62520000D02*
X97180000Y-55980000D01*
X97180000Y-55980000D02*
X94440000Y-55980000D01*
X94440000Y-55980000D02*
X94440000Y-62520000D01*
X95810000Y-63290000D02*
X95810000Y-62520000D01*
X95810000Y-55210000D02*
X95810000Y-55980000D01*
%TO.C,R10*%
X97618000Y-62520000D02*
X100358000Y-62520000D01*
X100358000Y-62520000D02*
X100358000Y-55980000D01*
X100358000Y-55980000D02*
X97618000Y-55980000D01*
X97618000Y-55980000D02*
X97618000Y-62520000D01*
X98988000Y-63290000D02*
X98988000Y-62520000D01*
X98988000Y-55210000D02*
X98988000Y-55980000D01*
%TO.C,R3*%
X97290000Y-47370000D02*
X97290000Y-44630000D01*
X97290000Y-44630000D02*
X90750000Y-44630000D01*
X90750000Y-44630000D02*
X90750000Y-47370000D01*
X90750000Y-47370000D02*
X97290000Y-47370000D01*
X98060000Y-46000000D02*
X97290000Y-46000000D01*
X89980000Y-46000000D02*
X90750000Y-46000000D01*
%TO.C,R1*%
X90635000Y-38195000D02*
X90635000Y-40935000D01*
X90635000Y-40935000D02*
X97175000Y-40935000D01*
X97175000Y-40935000D02*
X97175000Y-38195000D01*
X97175000Y-38195000D02*
X90635000Y-38195000D01*
X89865000Y-39565000D02*
X90635000Y-39565000D01*
X97945000Y-39565000D02*
X97175000Y-39565000D01*
%TO.C,J2*%
X111240000Y-84950000D02*
X111240000Y-87550000D01*
X111240000Y-84950000D02*
X60320000Y-84950000D01*
X60320000Y-84950000D02*
X60320000Y-90150000D01*
X108640000Y-90150000D02*
X60320000Y-90150000D01*
X108640000Y-87550000D02*
X108640000Y-90150000D01*
X111240000Y-87550000D02*
X108640000Y-87550000D01*
X111240000Y-90150000D02*
X109910000Y-90150000D01*
X111240000Y-88820000D02*
X111240000Y-90150000D01*
%TO.C,C3*%
X102255000Y-26885000D02*
G75*
G03*
X102255000Y-26885000I-3270000J0D01*
G01*
X95755000Y-26885000D02*
X102215000Y-26885000D01*
X95755000Y-26845000D02*
X102215000Y-26845000D01*
X95755000Y-26805000D02*
X102215000Y-26805000D01*
X95757000Y-26765000D02*
X102213000Y-26765000D01*
X95758000Y-26725000D02*
X102212000Y-26725000D01*
X95761000Y-26685000D02*
X102209000Y-26685000D01*
X95763000Y-26645000D02*
X97945000Y-26645000D01*
X100025000Y-26645000D02*
X102207000Y-26645000D01*
X95767000Y-26605000D02*
X97945000Y-26605000D01*
X100025000Y-26605000D02*
X102203000Y-26605000D01*
X95770000Y-26565000D02*
X97945000Y-26565000D01*
X100025000Y-26565000D02*
X102200000Y-26565000D01*
X95774000Y-26525000D02*
X97945000Y-26525000D01*
X100025000Y-26525000D02*
X102196000Y-26525000D01*
X95779000Y-26485000D02*
X97945000Y-26485000D01*
X100025000Y-26485000D02*
X102191000Y-26485000D01*
X95784000Y-26445000D02*
X97945000Y-26445000D01*
X100025000Y-26445000D02*
X102186000Y-26445000D01*
X95790000Y-26405000D02*
X97945000Y-26405000D01*
X100025000Y-26405000D02*
X102180000Y-26405000D01*
X95796000Y-26365000D02*
X97945000Y-26365000D01*
X100025000Y-26365000D02*
X102174000Y-26365000D01*
X95803000Y-26325000D02*
X97945000Y-26325000D01*
X100025000Y-26325000D02*
X102167000Y-26325000D01*
X95810000Y-26285000D02*
X97945000Y-26285000D01*
X100025000Y-26285000D02*
X102160000Y-26285000D01*
X95818000Y-26245000D02*
X97945000Y-26245000D01*
X100025000Y-26245000D02*
X102152000Y-26245000D01*
X95826000Y-26205000D02*
X97945000Y-26205000D01*
X100025000Y-26205000D02*
X102144000Y-26205000D01*
X95835000Y-26164000D02*
X97945000Y-26164000D01*
X100025000Y-26164000D02*
X102135000Y-26164000D01*
X95844000Y-26124000D02*
X97945000Y-26124000D01*
X100025000Y-26124000D02*
X102126000Y-26124000D01*
X95854000Y-26084000D02*
X97945000Y-26084000D01*
X100025000Y-26084000D02*
X102116000Y-26084000D01*
X95864000Y-26044000D02*
X97945000Y-26044000D01*
X100025000Y-26044000D02*
X102106000Y-26044000D01*
X95875000Y-26004000D02*
X97945000Y-26004000D01*
X100025000Y-26004000D02*
X102095000Y-26004000D01*
X95887000Y-25964000D02*
X97945000Y-25964000D01*
X100025000Y-25964000D02*
X102083000Y-25964000D01*
X95899000Y-25924000D02*
X97945000Y-25924000D01*
X100025000Y-25924000D02*
X102071000Y-25924000D01*
X95911000Y-25884000D02*
X97945000Y-25884000D01*
X100025000Y-25884000D02*
X102059000Y-25884000D01*
X95924000Y-25844000D02*
X97945000Y-25844000D01*
X100025000Y-25844000D02*
X102046000Y-25844000D01*
X95938000Y-25804000D02*
X97945000Y-25804000D01*
X100025000Y-25804000D02*
X102032000Y-25804000D01*
X95952000Y-25764000D02*
X97945000Y-25764000D01*
X100025000Y-25764000D02*
X102018000Y-25764000D01*
X95967000Y-25724000D02*
X97945000Y-25724000D01*
X100025000Y-25724000D02*
X102003000Y-25724000D01*
X95983000Y-25684000D02*
X97945000Y-25684000D01*
X100025000Y-25684000D02*
X101987000Y-25684000D01*
X95999000Y-25644000D02*
X97945000Y-25644000D01*
X100025000Y-25644000D02*
X101971000Y-25644000D01*
X96015000Y-25604000D02*
X97945000Y-25604000D01*
X100025000Y-25604000D02*
X101955000Y-25604000D01*
X96033000Y-25564000D02*
X97945000Y-25564000D01*
X100025000Y-25564000D02*
X101937000Y-25564000D01*
X96051000Y-25524000D02*
X97945000Y-25524000D01*
X100025000Y-25524000D02*
X101919000Y-25524000D01*
X96069000Y-25484000D02*
X97945000Y-25484000D01*
X100025000Y-25484000D02*
X101901000Y-25484000D01*
X96089000Y-25444000D02*
X97945000Y-25444000D01*
X100025000Y-25444000D02*
X101881000Y-25444000D01*
X96109000Y-25404000D02*
X97945000Y-25404000D01*
X100025000Y-25404000D02*
X101861000Y-25404000D01*
X96129000Y-25364000D02*
X97945000Y-25364000D01*
X100025000Y-25364000D02*
X101841000Y-25364000D01*
X96151000Y-25324000D02*
X97945000Y-25324000D01*
X100025000Y-25324000D02*
X101819000Y-25324000D01*
X96173000Y-25284000D02*
X97945000Y-25284000D01*
X100025000Y-25284000D02*
X101797000Y-25284000D01*
X96195000Y-25244000D02*
X97945000Y-25244000D01*
X100025000Y-25244000D02*
X101775000Y-25244000D01*
X96219000Y-25204000D02*
X97945000Y-25204000D01*
X100025000Y-25204000D02*
X101751000Y-25204000D01*
X96243000Y-25164000D02*
X97945000Y-25164000D01*
X100025000Y-25164000D02*
X101727000Y-25164000D01*
X96269000Y-25124000D02*
X97945000Y-25124000D01*
X100025000Y-25124000D02*
X101701000Y-25124000D01*
X96295000Y-25084000D02*
X97945000Y-25084000D01*
X100025000Y-25084000D02*
X101675000Y-25084000D01*
X96321000Y-25044000D02*
X97945000Y-25044000D01*
X100025000Y-25044000D02*
X101649000Y-25044000D01*
X96349000Y-25004000D02*
X97945000Y-25004000D01*
X100025000Y-25004000D02*
X101621000Y-25004000D01*
X96378000Y-24964000D02*
X97945000Y-24964000D01*
X100025000Y-24964000D02*
X101592000Y-24964000D01*
X96407000Y-24924000D02*
X97945000Y-24924000D01*
X100025000Y-24924000D02*
X101563000Y-24924000D01*
X96437000Y-24884000D02*
X97945000Y-24884000D01*
X100025000Y-24884000D02*
X101533000Y-24884000D01*
X96469000Y-24844000D02*
X97945000Y-24844000D01*
X100025000Y-24844000D02*
X101501000Y-24844000D01*
X96501000Y-24804000D02*
X97945000Y-24804000D01*
X100025000Y-24804000D02*
X101469000Y-24804000D01*
X96535000Y-24764000D02*
X97945000Y-24764000D01*
X100025000Y-24764000D02*
X101435000Y-24764000D01*
X96569000Y-24724000D02*
X97945000Y-24724000D01*
X100025000Y-24724000D02*
X101401000Y-24724000D01*
X96605000Y-24684000D02*
X97945000Y-24684000D01*
X100025000Y-24684000D02*
X101365000Y-24684000D01*
X96642000Y-24644000D02*
X97945000Y-24644000D01*
X100025000Y-24644000D02*
X101328000Y-24644000D01*
X96680000Y-24604000D02*
X97945000Y-24604000D01*
X100025000Y-24604000D02*
X101290000Y-24604000D01*
X96720000Y-24564000D02*
X101250000Y-24564000D01*
X96761000Y-24524000D02*
X101209000Y-24524000D01*
X96803000Y-24484000D02*
X101167000Y-24484000D01*
X96848000Y-24444000D02*
X101122000Y-24444000D01*
X96893000Y-24404000D02*
X101077000Y-24404000D01*
X96941000Y-24364000D02*
X101029000Y-24364000D01*
X96990000Y-24324000D02*
X100980000Y-24324000D01*
X97041000Y-24284000D02*
X100929000Y-24284000D01*
X97095000Y-24244000D02*
X100875000Y-24244000D01*
X97151000Y-24204000D02*
X100819000Y-24204000D01*
X97209000Y-24164000D02*
X100761000Y-24164000D01*
X97271000Y-24124000D02*
X100699000Y-24124000D01*
X97335000Y-24084000D02*
X100635000Y-24084000D01*
X97404000Y-24044000D02*
X100566000Y-24044000D01*
X97476000Y-24004000D02*
X100494000Y-24004000D01*
X97553000Y-23964000D02*
X100417000Y-23964000D01*
X97635000Y-23924000D02*
X100335000Y-23924000D01*
X97723000Y-23884000D02*
X100247000Y-23884000D01*
X97820000Y-23844000D02*
X100150000Y-23844000D01*
X97926000Y-23804000D02*
X100044000Y-23804000D01*
X98045000Y-23764000D02*
X99925000Y-23764000D01*
X98183000Y-23724000D02*
X99787000Y-23724000D01*
X98352000Y-23684000D02*
X99618000Y-23684000D01*
X98583000Y-23644000D02*
X99387000Y-23644000D01*
X97146000Y-30385241D02*
X97146000Y-29755241D01*
X96831000Y-30070241D02*
X97461000Y-30070241D01*
%TO.C,C1*%
X104685000Y-37441000D02*
X98445000Y-37441000D01*
X104685000Y-32799000D02*
X98445000Y-32799000D01*
X104685000Y-37441000D02*
X104685000Y-36045000D01*
X104685000Y-34195000D02*
X104685000Y-32799000D01*
X98445000Y-37441000D02*
X98445000Y-36045000D01*
X98445000Y-34195000D02*
X98445000Y-32799000D01*
D16*
%TO.C,A1*%
X119308000Y-81200000D02*
X119308000Y-48180000D01*
X119308000Y-48180000D02*
X101528000Y-48180000D01*
X101528000Y-48180000D02*
X101528000Y-81200000D01*
X101528000Y-81200000D02*
X119308000Y-81200000D01*
D15*
%TO.C,J1*%
X81985000Y-22700000D02*
X81585000Y-22700000D01*
X81985000Y-23340000D02*
X81985000Y-22700000D01*
X74080000Y-26559000D02*
X74209000Y-26431000D01*
X71865000Y-28775000D02*
X71959000Y-28681000D01*
X73910000Y-26319000D02*
X74004000Y-26226000D01*
X71660000Y-28569000D02*
X71789000Y-28441000D01*
X77580000Y-26559000D02*
X77709000Y-26431000D01*
X75365000Y-28775000D02*
X75459000Y-28681000D01*
X77410000Y-26319000D02*
X77504000Y-26226000D01*
X75160000Y-28569000D02*
X75289000Y-28441000D01*
X71125000Y-30660000D02*
X71125000Y-22940000D01*
X81745000Y-30660000D02*
X81745000Y-22940000D01*
X81745000Y-22940000D02*
X71125000Y-22940000D01*
X81745000Y-30660000D02*
X71125000Y-30660000D01*
X81745000Y-24500000D02*
X71125000Y-24500000D01*
X81745000Y-23400000D02*
X71125000Y-23400000D01*
X74615000Y-27500000D02*
G75*
G03*
X74615000Y-27500000I-1680000J0D01*
G01*
X78115000Y-27500000D02*
G75*
G03*
X78115000Y-27500000I-1680000J0D01*
G01*
X79044736Y-26075279D02*
G75*
G02*
X79935000Y-25820000I890264J-1424721D01*
G01*
X78509495Y-28390193D02*
G75*
G02*
X78510000Y-26609000I1425505J890193D01*
G01*
X80824894Y-28925358D02*
G75*
G02*
X79069000Y-28940000I-889894J1425358D01*
G01*
X81360358Y-26610106D02*
G75*
G02*
X81375000Y-28366000I-1425358J-889894D01*
G01*
X79906326Y-25819901D02*
G75*
G02*
X80801000Y-26060000I28674J-1680099D01*
G01*
%TO.C,J3*%
X70301000Y-22700000D02*
X69901000Y-22700000D01*
X70301000Y-23340000D02*
X70301000Y-22700000D01*
X44896000Y-26559000D02*
X45025000Y-26431000D01*
X42681000Y-28775000D02*
X42775000Y-28681000D01*
X44726000Y-26319000D02*
X44820000Y-26226000D01*
X42476000Y-28569000D02*
X42605000Y-28441000D01*
X48396000Y-26559000D02*
X48525000Y-26431000D01*
X46181000Y-28775000D02*
X46275000Y-28681000D01*
X48226000Y-26319000D02*
X48320000Y-26226000D01*
X45976000Y-28569000D02*
X46105000Y-28441000D01*
X51896000Y-26559000D02*
X52025000Y-26431000D01*
X49681000Y-28775000D02*
X49775000Y-28681000D01*
X51726000Y-26319000D02*
X51820000Y-26226000D01*
X49476000Y-28569000D02*
X49605000Y-28441000D01*
X55396000Y-26559000D02*
X55525000Y-26431000D01*
X53181000Y-28775000D02*
X53275000Y-28681000D01*
X55226000Y-26319000D02*
X55320000Y-26226000D01*
X52976000Y-28569000D02*
X53105000Y-28441000D01*
X58896000Y-26559000D02*
X59025000Y-26431000D01*
X56681000Y-28775000D02*
X56775000Y-28681000D01*
X58726000Y-26319000D02*
X58820000Y-26226000D01*
X56476000Y-28569000D02*
X56605000Y-28441000D01*
X62396000Y-26559000D02*
X62525000Y-26431000D01*
X60181000Y-28775000D02*
X60275000Y-28681000D01*
X62226000Y-26319000D02*
X62320000Y-26226000D01*
X59976000Y-28569000D02*
X60105000Y-28441000D01*
X65896000Y-26559000D02*
X66025000Y-26431000D01*
X63681000Y-28775000D02*
X63775000Y-28681000D01*
X65726000Y-26319000D02*
X65820000Y-26226000D01*
X63476000Y-28569000D02*
X63605000Y-28441000D01*
X41941000Y-30660000D02*
X41941000Y-22940000D01*
X70061000Y-30660000D02*
X70061000Y-22940000D01*
X70061000Y-22940000D02*
X41941000Y-22940000D01*
X70061000Y-30660000D02*
X41941000Y-30660000D01*
X70061000Y-24500000D02*
X41941000Y-24500000D01*
X70061000Y-23400000D02*
X41941000Y-23400000D01*
X45431000Y-27500000D02*
G75*
G03*
X45431000Y-27500000I-1680000J0D01*
G01*
X48931000Y-27500000D02*
G75*
G03*
X48931000Y-27500000I-1680000J0D01*
G01*
X52431000Y-27500000D02*
G75*
G03*
X52431000Y-27500000I-1680000J0D01*
G01*
X55931000Y-27500000D02*
G75*
G03*
X55931000Y-27500000I-1680000J0D01*
G01*
X59431000Y-27500000D02*
G75*
G03*
X59431000Y-27500000I-1680000J0D01*
G01*
X62931000Y-27500000D02*
G75*
G03*
X62931000Y-27500000I-1680000J0D01*
G01*
X66431000Y-27500000D02*
G75*
G03*
X66431000Y-27500000I-1680000J0D01*
G01*
X67360736Y-26075279D02*
G75*
G02*
X68251000Y-25820000I890264J-1424721D01*
G01*
X66825495Y-28390193D02*
G75*
G02*
X66826000Y-26609000I1425505J890193D01*
G01*
X69140894Y-28925358D02*
G75*
G02*
X67385000Y-28940000I-889894J1425358D01*
G01*
X69676358Y-26610106D02*
G75*
G02*
X69691000Y-28366000I-1425358J-889894D01*
G01*
X68222326Y-25819901D02*
G75*
G02*
X69117000Y-26060000I28674J-1680099D01*
G01*
%TO.C,JP1*%
X111685000Y-82618000D02*
X111685000Y-38549000D01*
X111685000Y-38549000D02*
X111685000Y-82618000D01*
%TO.C,JP2*%
X109145000Y-82745000D02*
X109145000Y-38676000D01*
X109145000Y-38676000D02*
X109145000Y-82745000D01*
%TO.C,U3*%
D13*
X43088095Y-109452380D02*
X43088095Y-110261904D01*
X43135714Y-110357142D01*
X43183333Y-110404761D01*
X43278571Y-110452380D01*
X43469047Y-110452380D01*
X43564285Y-110404761D01*
X43611904Y-110357142D01*
X43659523Y-110261904D01*
X43659523Y-109452380D01*
X44040476Y-109452380D02*
X44659523Y-109452380D01*
X44326190Y-109833333D01*
X44469047Y-109833333D01*
X44564285Y-109880952D01*
X44611904Y-109928571D01*
X44659523Y-110023809D01*
X44659523Y-110261904D01*
X44611904Y-110357142D01*
X44564285Y-110404761D01*
X44469047Y-110452380D01*
X44183333Y-110452380D01*
X44088095Y-110404761D01*
X44040476Y-110357142D01*
%TO.C,U2*%
X35599619Y-32275095D02*
X34790095Y-32275095D01*
X34694857Y-32322714D01*
X34647238Y-32370333D01*
X34599619Y-32465571D01*
X34599619Y-32656047D01*
X34647238Y-32751285D01*
X34694857Y-32798904D01*
X34790095Y-32846523D01*
X35599619Y-32846523D01*
X35504380Y-33275095D02*
X35552000Y-33322714D01*
X35599619Y-33417952D01*
X35599619Y-33656047D01*
X35552000Y-33751285D01*
X35504380Y-33798904D01*
X35409142Y-33846523D01*
X35313904Y-33846523D01*
X35171047Y-33798904D01*
X34599619Y-33227476D01*
X34599619Y-33846523D01*
X35853619Y-35259952D02*
X35139333Y-35259952D01*
X34996476Y-35212333D01*
X34901238Y-35117095D01*
X34853619Y-34974238D01*
X34853619Y-34879000D01*
X34853619Y-36212333D02*
X34853619Y-35736142D01*
X35853619Y-35736142D01*
X35853619Y-36450428D02*
X34853619Y-37117095D01*
X35853619Y-37117095D02*
X34853619Y-36450428D01*
X34853619Y-38021857D02*
X34853619Y-37450428D01*
X34853619Y-37736142D02*
X35853619Y-37736142D01*
X35710761Y-37640904D01*
X35615523Y-37545666D01*
X35567904Y-37450428D01*
X35758380Y-38402809D02*
X35806000Y-38450428D01*
X35853619Y-38545666D01*
X35853619Y-38783761D01*
X35806000Y-38879000D01*
X35758380Y-38926619D01*
X35663142Y-38974238D01*
X35567904Y-38974238D01*
X35425047Y-38926619D01*
X34853619Y-38355190D01*
X34853619Y-38974238D01*
X35425047Y-39545666D02*
X35472666Y-39450428D01*
X35520285Y-39402809D01*
X35615523Y-39355190D01*
X35663142Y-39355190D01*
X35758380Y-39402809D01*
X35806000Y-39450428D01*
X35853619Y-39545666D01*
X35853619Y-39736142D01*
X35806000Y-39831380D01*
X35758380Y-39879000D01*
X35663142Y-39926619D01*
X35615523Y-39926619D01*
X35520285Y-39879000D01*
X35472666Y-39831380D01*
X35425047Y-39736142D01*
X35425047Y-39545666D01*
X35377428Y-39450428D01*
X35329809Y-39402809D01*
X35234571Y-39355190D01*
X35044095Y-39355190D01*
X34948857Y-39402809D01*
X34901238Y-39450428D01*
X34853619Y-39545666D01*
X34853619Y-39736142D01*
X34901238Y-39831380D01*
X34948857Y-39879000D01*
X35044095Y-39926619D01*
X35234571Y-39926619D01*
X35329809Y-39879000D01*
X35377428Y-39831380D01*
X35425047Y-39736142D01*
X35853619Y-40783761D02*
X35853619Y-40593285D01*
X35806000Y-40498047D01*
X35758380Y-40450428D01*
X35615523Y-40355190D01*
X35425047Y-40307571D01*
X35044095Y-40307571D01*
X34948857Y-40355190D01*
X34901238Y-40402809D01*
X34853619Y-40498047D01*
X34853619Y-40688523D01*
X34901238Y-40783761D01*
X34948857Y-40831380D01*
X35044095Y-40879000D01*
X35282190Y-40879000D01*
X35377428Y-40831380D01*
X35425047Y-40783761D01*
X35472666Y-40688523D01*
X35472666Y-40498047D01*
X35425047Y-40402809D01*
X35377428Y-40355190D01*
X35282190Y-40307571D01*
X35520285Y-41736142D02*
X34853619Y-41736142D01*
X35901238Y-41498047D02*
X35186952Y-41259952D01*
X35186952Y-41879000D01*
X35806000Y-42783761D02*
X35853619Y-42688523D01*
X35853619Y-42545666D01*
X35806000Y-42402809D01*
X35710761Y-42307571D01*
X35615523Y-42259952D01*
X35425047Y-42212333D01*
X35282190Y-42212333D01*
X35091714Y-42259952D01*
X34996476Y-42307571D01*
X34901238Y-42402809D01*
X34853619Y-42545666D01*
X34853619Y-42640904D01*
X34901238Y-42783761D01*
X34948857Y-42831380D01*
X35282190Y-42831380D01*
X35282190Y-42640904D01*
D12*
X41240285Y-66882142D02*
X41211714Y-66929761D01*
X41126000Y-66977380D01*
X41068857Y-66977380D01*
X40983142Y-66929761D01*
X40926000Y-66834523D01*
X40897428Y-66739285D01*
X40868857Y-66548809D01*
X40868857Y-66405952D01*
X40897428Y-66215476D01*
X40926000Y-66120238D01*
X40983142Y-66025000D01*
X41068857Y-65977380D01*
X41126000Y-65977380D01*
X41211714Y-66025000D01*
X41240285Y-66072619D01*
X41497428Y-66453571D02*
X41697428Y-66453571D01*
X41783142Y-66977380D02*
X41497428Y-66977380D01*
X41497428Y-65977380D01*
X41783142Y-65977380D01*
X40997428Y-64437380D02*
X40797428Y-63961190D01*
X40654571Y-64437380D02*
X40654571Y-63437380D01*
X40883142Y-63437380D01*
X40940285Y-63485000D01*
X40968857Y-63532619D01*
X40997428Y-63627857D01*
X40997428Y-63770714D01*
X40968857Y-63865952D01*
X40940285Y-63913571D01*
X40883142Y-63961190D01*
X40654571Y-63961190D01*
X41226000Y-64389761D02*
X41311714Y-64437380D01*
X41454571Y-64437380D01*
X41511714Y-64389761D01*
X41540285Y-64342142D01*
X41568857Y-64246904D01*
X41568857Y-64151666D01*
X41540285Y-64056428D01*
X41511714Y-64008809D01*
X41454571Y-63961190D01*
X41340285Y-63913571D01*
X41283142Y-63865952D01*
X41254571Y-63818333D01*
X41226000Y-63723095D01*
X41226000Y-63627857D01*
X41254571Y-63532619D01*
X41283142Y-63485000D01*
X41340285Y-63437380D01*
X41483142Y-63437380D01*
X41568857Y-63485000D01*
X41740285Y-63437380D02*
X42083142Y-63437380D01*
X41911714Y-64437380D02*
X41911714Y-63437380D01*
X40311714Y-61897380D02*
X40111714Y-61421190D01*
X39968857Y-61897380D02*
X39968857Y-60897380D01*
X40197428Y-60897380D01*
X40254571Y-60945000D01*
X40283142Y-60992619D01*
X40311714Y-61087857D01*
X40311714Y-61230714D01*
X40283142Y-61325952D01*
X40254571Y-61373571D01*
X40197428Y-61421190D01*
X39968857Y-61421190D01*
X40540285Y-61849761D02*
X40626000Y-61897380D01*
X40768857Y-61897380D01*
X40826000Y-61849761D01*
X40854571Y-61802142D01*
X40883142Y-61706904D01*
X40883142Y-61611666D01*
X40854571Y-61516428D01*
X40826000Y-61468809D01*
X40768857Y-61421190D01*
X40654571Y-61373571D01*
X40597428Y-61325952D01*
X40568857Y-61278333D01*
X40540285Y-61183095D01*
X40540285Y-61087857D01*
X40568857Y-60992619D01*
X40597428Y-60945000D01*
X40654571Y-60897380D01*
X40797428Y-60897380D01*
X40883142Y-60945000D01*
X41568857Y-60849761D02*
X41054571Y-62135476D01*
X41768857Y-61897380D02*
X41768857Y-60897380D01*
X41911714Y-60897380D01*
X41997428Y-60945000D01*
X42054571Y-61040238D01*
X42083142Y-61135476D01*
X42111714Y-61325952D01*
X42111714Y-61468809D01*
X42083142Y-61659285D01*
X42054571Y-61754523D01*
X41997428Y-61849761D01*
X41911714Y-61897380D01*
X41768857Y-61897380D01*
X42711714Y-61802142D02*
X42683142Y-61849761D01*
X42597428Y-61897380D01*
X42540285Y-61897380D01*
X42454571Y-61849761D01*
X42397428Y-61754523D01*
X42368857Y-61659285D01*
X42340285Y-61468809D01*
X42340285Y-61325952D01*
X42368857Y-61135476D01*
X42397428Y-61040238D01*
X42454571Y-60945000D01*
X42540285Y-60897380D01*
X42597428Y-60897380D01*
X42683142Y-60945000D01*
X42711714Y-60992619D01*
X40383142Y-59357380D02*
X40383142Y-58357380D01*
X40583142Y-59071666D01*
X40783142Y-58357380D01*
X40783142Y-59357380D01*
X41183142Y-58357380D02*
X41297428Y-58357380D01*
X41354571Y-58405000D01*
X41411714Y-58500238D01*
X41440285Y-58690714D01*
X41440285Y-59024047D01*
X41411714Y-59214523D01*
X41354571Y-59309761D01*
X41297428Y-59357380D01*
X41183142Y-59357380D01*
X41126000Y-59309761D01*
X41068857Y-59214523D01*
X41040285Y-59024047D01*
X41040285Y-58690714D01*
X41068857Y-58500238D01*
X41126000Y-58405000D01*
X41183142Y-58357380D01*
X41668857Y-59309761D02*
X41754571Y-59357380D01*
X41897428Y-59357380D01*
X41954571Y-59309761D01*
X41983142Y-59262142D01*
X42011714Y-59166904D01*
X42011714Y-59071666D01*
X41983142Y-58976428D01*
X41954571Y-58928809D01*
X41897428Y-58881190D01*
X41783142Y-58833571D01*
X41726000Y-58785952D01*
X41697428Y-58738333D01*
X41668857Y-58643095D01*
X41668857Y-58547857D01*
X41697428Y-58452619D01*
X41726000Y-58405000D01*
X41783142Y-58357380D01*
X41926000Y-58357380D01*
X42011714Y-58405000D01*
X42268857Y-59357380D02*
X42268857Y-58357380D01*
X40554571Y-56769761D02*
X40640285Y-56817380D01*
X40783142Y-56817380D01*
X40840285Y-56769761D01*
X40868857Y-56722142D01*
X40897428Y-56626904D01*
X40897428Y-56531666D01*
X40868857Y-56436428D01*
X40840285Y-56388809D01*
X40783142Y-56341190D01*
X40668857Y-56293571D01*
X40611714Y-56245952D01*
X40583142Y-56198333D01*
X40554571Y-56103095D01*
X40554571Y-56007857D01*
X40583142Y-55912619D01*
X40611714Y-55865000D01*
X40668857Y-55817380D01*
X40811714Y-55817380D01*
X40897428Y-55865000D01*
X41497428Y-56722142D02*
X41468857Y-56769761D01*
X41383142Y-56817380D01*
X41326000Y-56817380D01*
X41240285Y-56769761D01*
X41183142Y-56674523D01*
X41154571Y-56579285D01*
X41126000Y-56388809D01*
X41126000Y-56245952D01*
X41154571Y-56055476D01*
X41183142Y-55960238D01*
X41240285Y-55865000D01*
X41326000Y-55817380D01*
X41383142Y-55817380D01*
X41468857Y-55865000D01*
X41497428Y-55912619D01*
X41754571Y-56817380D02*
X41754571Y-55817380D01*
X42097428Y-56817380D02*
X41840285Y-56245952D01*
X42097428Y-55817380D02*
X41754571Y-56388809D01*
X40440285Y-53277380D02*
X40811714Y-53277380D01*
X40611714Y-53658333D01*
X40697428Y-53658333D01*
X40754571Y-53705952D01*
X40783142Y-53753571D01*
X40811714Y-53848809D01*
X40811714Y-54086904D01*
X40783142Y-54182142D01*
X40754571Y-54229761D01*
X40697428Y-54277380D01*
X40526000Y-54277380D01*
X40468857Y-54229761D01*
X40440285Y-54182142D01*
X41068857Y-54182142D02*
X41097428Y-54229761D01*
X41068857Y-54277380D01*
X41040285Y-54229761D01*
X41068857Y-54182142D01*
X41068857Y-54277380D01*
X41297428Y-53277380D02*
X41668857Y-53277380D01*
X41468857Y-53658333D01*
X41554571Y-53658333D01*
X41611714Y-53705952D01*
X41640285Y-53753571D01*
X41668857Y-53848809D01*
X41668857Y-54086904D01*
X41640285Y-54182142D01*
X41611714Y-54229761D01*
X41554571Y-54277380D01*
X41383142Y-54277380D01*
X41326000Y-54229761D01*
X41297428Y-54182142D01*
X41840285Y-53277380D02*
X42040285Y-54277380D01*
X42240285Y-53277380D01*
X40868857Y-50785000D02*
X40811714Y-50737380D01*
X40726000Y-50737380D01*
X40640285Y-50785000D01*
X40583142Y-50880238D01*
X40554571Y-50975476D01*
X40526000Y-51165952D01*
X40526000Y-51308809D01*
X40554571Y-51499285D01*
X40583142Y-51594523D01*
X40640285Y-51689761D01*
X40726000Y-51737380D01*
X40783142Y-51737380D01*
X40868857Y-51689761D01*
X40897428Y-51642142D01*
X40897428Y-51308809D01*
X40783142Y-51308809D01*
X41154571Y-51737380D02*
X41154571Y-50737380D01*
X41497428Y-51737380D01*
X41497428Y-50737380D01*
X41783142Y-51737380D02*
X41783142Y-50737380D01*
X41926000Y-50737380D01*
X42011714Y-50785000D01*
X42068857Y-50880238D01*
X42097428Y-50975476D01*
X42126000Y-51165952D01*
X42126000Y-51308809D01*
X42097428Y-51499285D01*
X42068857Y-51594523D01*
X42011714Y-51689761D01*
X41926000Y-51737380D01*
X41783142Y-51737380D01*
X41126000Y-48673571D02*
X41211714Y-48721190D01*
X41240285Y-48768809D01*
X41268857Y-48864047D01*
X41268857Y-49006904D01*
X41240285Y-49102142D01*
X41211714Y-49149761D01*
X41154571Y-49197380D01*
X40926000Y-49197380D01*
X40926000Y-48197380D01*
X41126000Y-48197380D01*
X41183142Y-48245000D01*
X41211714Y-48292619D01*
X41240285Y-48387857D01*
X41240285Y-48483095D01*
X41211714Y-48578333D01*
X41183142Y-48625952D01*
X41126000Y-48673571D01*
X40926000Y-48673571D01*
X41811714Y-49197380D02*
X41526000Y-49197380D01*
X41526000Y-48197380D01*
%TO.C,U4*%
D13*
X80599619Y-32275095D02*
X79790095Y-32275095D01*
X79694857Y-32322714D01*
X79647238Y-32370333D01*
X79599619Y-32465571D01*
X79599619Y-32656047D01*
X79647238Y-32751285D01*
X79694857Y-32798904D01*
X79790095Y-32846523D01*
X80599619Y-32846523D01*
X80266285Y-33751285D02*
X79599619Y-33751285D01*
X80647238Y-33513190D02*
X79932952Y-33275095D01*
X79932952Y-33894142D01*
X80853619Y-35259952D02*
X80139333Y-35259952D01*
X79996476Y-35212333D01*
X79901238Y-35117095D01*
X79853619Y-34974238D01*
X79853619Y-34879000D01*
X79853619Y-36212333D02*
X79853619Y-35736142D01*
X80853619Y-35736142D01*
X80853619Y-36450428D02*
X79853619Y-37117095D01*
X80853619Y-37117095D02*
X79853619Y-36450428D01*
X79853619Y-38021857D02*
X79853619Y-37450428D01*
X79853619Y-37736142D02*
X80853619Y-37736142D01*
X80710761Y-37640904D01*
X80615523Y-37545666D01*
X80567904Y-37450428D01*
X80758380Y-38402809D02*
X80806000Y-38450428D01*
X80853619Y-38545666D01*
X80853619Y-38783761D01*
X80806000Y-38879000D01*
X80758380Y-38926619D01*
X80663142Y-38974238D01*
X80567904Y-38974238D01*
X80425047Y-38926619D01*
X79853619Y-38355190D01*
X79853619Y-38974238D01*
X80425047Y-39545666D02*
X80472666Y-39450428D01*
X80520285Y-39402809D01*
X80615523Y-39355190D01*
X80663142Y-39355190D01*
X80758380Y-39402809D01*
X80806000Y-39450428D01*
X80853619Y-39545666D01*
X80853619Y-39736142D01*
X80806000Y-39831380D01*
X80758380Y-39879000D01*
X80663142Y-39926619D01*
X80615523Y-39926619D01*
X80520285Y-39879000D01*
X80472666Y-39831380D01*
X80425047Y-39736142D01*
X80425047Y-39545666D01*
X80377428Y-39450428D01*
X80329809Y-39402809D01*
X80234571Y-39355190D01*
X80044095Y-39355190D01*
X79948857Y-39402809D01*
X79901238Y-39450428D01*
X79853619Y-39545666D01*
X79853619Y-39736142D01*
X79901238Y-39831380D01*
X79948857Y-39879000D01*
X80044095Y-39926619D01*
X80234571Y-39926619D01*
X80329809Y-39879000D01*
X80377428Y-39831380D01*
X80425047Y-39736142D01*
X80853619Y-40783761D02*
X80853619Y-40593285D01*
X80806000Y-40498047D01*
X80758380Y-40450428D01*
X80615523Y-40355190D01*
X80425047Y-40307571D01*
X80044095Y-40307571D01*
X79948857Y-40355190D01*
X79901238Y-40402809D01*
X79853619Y-40498047D01*
X79853619Y-40688523D01*
X79901238Y-40783761D01*
X79948857Y-40831380D01*
X80044095Y-40879000D01*
X80282190Y-40879000D01*
X80377428Y-40831380D01*
X80425047Y-40783761D01*
X80472666Y-40688523D01*
X80472666Y-40498047D01*
X80425047Y-40402809D01*
X80377428Y-40355190D01*
X80282190Y-40307571D01*
X80520285Y-41736142D02*
X79853619Y-41736142D01*
X80901238Y-41498047D02*
X80186952Y-41259952D01*
X80186952Y-41879000D01*
X80806000Y-42783761D02*
X80853619Y-42688523D01*
X80853619Y-42545666D01*
X80806000Y-42402809D01*
X80710761Y-42307571D01*
X80615523Y-42259952D01*
X80425047Y-42212333D01*
X80282190Y-42212333D01*
X80091714Y-42259952D01*
X79996476Y-42307571D01*
X79901238Y-42402809D01*
X79853619Y-42545666D01*
X79853619Y-42640904D01*
X79901238Y-42783761D01*
X79948857Y-42831380D01*
X80282190Y-42831380D01*
X80282190Y-42640904D01*
D12*
X86126000Y-48673571D02*
X86211714Y-48721190D01*
X86240285Y-48768809D01*
X86268857Y-48864047D01*
X86268857Y-49006904D01*
X86240285Y-49102142D01*
X86211714Y-49149761D01*
X86154571Y-49197380D01*
X85926000Y-49197380D01*
X85926000Y-48197380D01*
X86126000Y-48197380D01*
X86183142Y-48245000D01*
X86211714Y-48292619D01*
X86240285Y-48387857D01*
X86240285Y-48483095D01*
X86211714Y-48578333D01*
X86183142Y-48625952D01*
X86126000Y-48673571D01*
X85926000Y-48673571D01*
X86811714Y-49197380D02*
X86526000Y-49197380D01*
X86526000Y-48197380D01*
X85868857Y-50785000D02*
X85811714Y-50737380D01*
X85726000Y-50737380D01*
X85640285Y-50785000D01*
X85583142Y-50880238D01*
X85554571Y-50975476D01*
X85526000Y-51165952D01*
X85526000Y-51308809D01*
X85554571Y-51499285D01*
X85583142Y-51594523D01*
X85640285Y-51689761D01*
X85726000Y-51737380D01*
X85783142Y-51737380D01*
X85868857Y-51689761D01*
X85897428Y-51642142D01*
X85897428Y-51308809D01*
X85783142Y-51308809D01*
X86154571Y-51737380D02*
X86154571Y-50737380D01*
X86497428Y-51737380D01*
X86497428Y-50737380D01*
X86783142Y-51737380D02*
X86783142Y-50737380D01*
X86926000Y-50737380D01*
X87011714Y-50785000D01*
X87068857Y-50880238D01*
X87097428Y-50975476D01*
X87126000Y-51165952D01*
X87126000Y-51308809D01*
X87097428Y-51499285D01*
X87068857Y-51594523D01*
X87011714Y-51689761D01*
X86926000Y-51737380D01*
X86783142Y-51737380D01*
X85440285Y-53277380D02*
X85811714Y-53277380D01*
X85611714Y-53658333D01*
X85697428Y-53658333D01*
X85754571Y-53705952D01*
X85783142Y-53753571D01*
X85811714Y-53848809D01*
X85811714Y-54086904D01*
X85783142Y-54182142D01*
X85754571Y-54229761D01*
X85697428Y-54277380D01*
X85526000Y-54277380D01*
X85468857Y-54229761D01*
X85440285Y-54182142D01*
X86068857Y-54182142D02*
X86097428Y-54229761D01*
X86068857Y-54277380D01*
X86040285Y-54229761D01*
X86068857Y-54182142D01*
X86068857Y-54277380D01*
X86297428Y-53277380D02*
X86668857Y-53277380D01*
X86468857Y-53658333D01*
X86554571Y-53658333D01*
X86611714Y-53705952D01*
X86640285Y-53753571D01*
X86668857Y-53848809D01*
X86668857Y-54086904D01*
X86640285Y-54182142D01*
X86611714Y-54229761D01*
X86554571Y-54277380D01*
X86383142Y-54277380D01*
X86326000Y-54229761D01*
X86297428Y-54182142D01*
X86840285Y-53277380D02*
X87040285Y-54277380D01*
X87240285Y-53277380D01*
X85554571Y-56769761D02*
X85640285Y-56817380D01*
X85783142Y-56817380D01*
X85840285Y-56769761D01*
X85868857Y-56722142D01*
X85897428Y-56626904D01*
X85897428Y-56531666D01*
X85868857Y-56436428D01*
X85840285Y-56388809D01*
X85783142Y-56341190D01*
X85668857Y-56293571D01*
X85611714Y-56245952D01*
X85583142Y-56198333D01*
X85554571Y-56103095D01*
X85554571Y-56007857D01*
X85583142Y-55912619D01*
X85611714Y-55865000D01*
X85668857Y-55817380D01*
X85811714Y-55817380D01*
X85897428Y-55865000D01*
X86497428Y-56722142D02*
X86468857Y-56769761D01*
X86383142Y-56817380D01*
X86326000Y-56817380D01*
X86240285Y-56769761D01*
X86183142Y-56674523D01*
X86154571Y-56579285D01*
X86126000Y-56388809D01*
X86126000Y-56245952D01*
X86154571Y-56055476D01*
X86183142Y-55960238D01*
X86240285Y-55865000D01*
X86326000Y-55817380D01*
X86383142Y-55817380D01*
X86468857Y-55865000D01*
X86497428Y-55912619D01*
X86754571Y-56817380D02*
X86754571Y-55817380D01*
X87097428Y-56817380D02*
X86840285Y-56245952D01*
X87097428Y-55817380D02*
X86754571Y-56388809D01*
X85383142Y-59357380D02*
X85383142Y-58357380D01*
X85583142Y-59071666D01*
X85783142Y-58357380D01*
X85783142Y-59357380D01*
X86183142Y-58357380D02*
X86297428Y-58357380D01*
X86354571Y-58405000D01*
X86411714Y-58500238D01*
X86440285Y-58690714D01*
X86440285Y-59024047D01*
X86411714Y-59214523D01*
X86354571Y-59309761D01*
X86297428Y-59357380D01*
X86183142Y-59357380D01*
X86126000Y-59309761D01*
X86068857Y-59214523D01*
X86040285Y-59024047D01*
X86040285Y-58690714D01*
X86068857Y-58500238D01*
X86126000Y-58405000D01*
X86183142Y-58357380D01*
X86668857Y-59309761D02*
X86754571Y-59357380D01*
X86897428Y-59357380D01*
X86954571Y-59309761D01*
X86983142Y-59262142D01*
X87011714Y-59166904D01*
X87011714Y-59071666D01*
X86983142Y-58976428D01*
X86954571Y-58928809D01*
X86897428Y-58881190D01*
X86783142Y-58833571D01*
X86726000Y-58785952D01*
X86697428Y-58738333D01*
X86668857Y-58643095D01*
X86668857Y-58547857D01*
X86697428Y-58452619D01*
X86726000Y-58405000D01*
X86783142Y-58357380D01*
X86926000Y-58357380D01*
X87011714Y-58405000D01*
X87268857Y-59357380D02*
X87268857Y-58357380D01*
X85311714Y-61897380D02*
X85111714Y-61421190D01*
X84968857Y-61897380D02*
X84968857Y-60897380D01*
X85197428Y-60897380D01*
X85254571Y-60945000D01*
X85283142Y-60992619D01*
X85311714Y-61087857D01*
X85311714Y-61230714D01*
X85283142Y-61325952D01*
X85254571Y-61373571D01*
X85197428Y-61421190D01*
X84968857Y-61421190D01*
X85540285Y-61849761D02*
X85626000Y-61897380D01*
X85768857Y-61897380D01*
X85826000Y-61849761D01*
X85854571Y-61802142D01*
X85883142Y-61706904D01*
X85883142Y-61611666D01*
X85854571Y-61516428D01*
X85826000Y-61468809D01*
X85768857Y-61421190D01*
X85654571Y-61373571D01*
X85597428Y-61325952D01*
X85568857Y-61278333D01*
X85540285Y-61183095D01*
X85540285Y-61087857D01*
X85568857Y-60992619D01*
X85597428Y-60945000D01*
X85654571Y-60897380D01*
X85797428Y-60897380D01*
X85883142Y-60945000D01*
X86568857Y-60849761D02*
X86054571Y-62135476D01*
X86768857Y-61897380D02*
X86768857Y-60897380D01*
X86911714Y-60897380D01*
X86997428Y-60945000D01*
X87054571Y-61040238D01*
X87083142Y-61135476D01*
X87111714Y-61325952D01*
X87111714Y-61468809D01*
X87083142Y-61659285D01*
X87054571Y-61754523D01*
X86997428Y-61849761D01*
X86911714Y-61897380D01*
X86768857Y-61897380D01*
X87711714Y-61802142D02*
X87683142Y-61849761D01*
X87597428Y-61897380D01*
X87540285Y-61897380D01*
X87454571Y-61849761D01*
X87397428Y-61754523D01*
X87368857Y-61659285D01*
X87340285Y-61468809D01*
X87340285Y-61325952D01*
X87368857Y-61135476D01*
X87397428Y-61040238D01*
X87454571Y-60945000D01*
X87540285Y-60897380D01*
X87597428Y-60897380D01*
X87683142Y-60945000D01*
X87711714Y-60992619D01*
X85997428Y-64437380D02*
X85797428Y-63961190D01*
X85654571Y-64437380D02*
X85654571Y-63437380D01*
X85883142Y-63437380D01*
X85940285Y-63485000D01*
X85968857Y-63532619D01*
X85997428Y-63627857D01*
X85997428Y-63770714D01*
X85968857Y-63865952D01*
X85940285Y-63913571D01*
X85883142Y-63961190D01*
X85654571Y-63961190D01*
X86226000Y-64389761D02*
X86311714Y-64437380D01*
X86454571Y-64437380D01*
X86511714Y-64389761D01*
X86540285Y-64342142D01*
X86568857Y-64246904D01*
X86568857Y-64151666D01*
X86540285Y-64056428D01*
X86511714Y-64008809D01*
X86454571Y-63961190D01*
X86340285Y-63913571D01*
X86283142Y-63865952D01*
X86254571Y-63818333D01*
X86226000Y-63723095D01*
X86226000Y-63627857D01*
X86254571Y-63532619D01*
X86283142Y-63485000D01*
X86340285Y-63437380D01*
X86483142Y-63437380D01*
X86568857Y-63485000D01*
X86740285Y-63437380D02*
X87083142Y-63437380D01*
X86911714Y-64437380D02*
X86911714Y-63437380D01*
X86240285Y-66882142D02*
X86211714Y-66929761D01*
X86126000Y-66977380D01*
X86068857Y-66977380D01*
X85983142Y-66929761D01*
X85926000Y-66834523D01*
X85897428Y-66739285D01*
X85868857Y-66548809D01*
X85868857Y-66405952D01*
X85897428Y-66215476D01*
X85926000Y-66120238D01*
X85983142Y-66025000D01*
X86068857Y-65977380D01*
X86126000Y-65977380D01*
X86211714Y-66025000D01*
X86240285Y-66072619D01*
X86497428Y-66453571D02*
X86697428Y-66453571D01*
X86783142Y-66977380D02*
X86497428Y-66977380D01*
X86497428Y-65977380D01*
X86783142Y-65977380D01*
%TO.C,BZ1*%
D13*
X92956847Y-75044771D02*
X93099704Y-75092390D01*
X93147323Y-75140009D01*
X93194942Y-75235247D01*
X93194942Y-75378104D01*
X93147323Y-75473342D01*
X93099704Y-75520961D01*
X93004466Y-75568580D01*
X92623514Y-75568580D01*
X92623514Y-74568580D01*
X92956847Y-74568580D01*
X93052085Y-74616200D01*
X93099704Y-74663819D01*
X93147323Y-74759057D01*
X93147323Y-74854295D01*
X93099704Y-74949533D01*
X93052085Y-74997152D01*
X92956847Y-75044771D01*
X92623514Y-75044771D01*
X93528276Y-74568580D02*
X94194942Y-74568580D01*
X93528276Y-75568580D01*
X94194942Y-75568580D01*
X95099704Y-75568580D02*
X94528276Y-75568580D01*
X94813990Y-75568580D02*
X94813990Y-74568580D01*
X94718752Y-74711438D01*
X94623514Y-74806676D01*
X94528276Y-74854295D01*
X100365647Y-72596828D02*
X101127552Y-72596828D01*
X86116247Y-72368228D02*
X86878152Y-72368228D01*
X86497200Y-72749180D02*
X86497200Y-71987276D01*
X91833028Y-71488771D02*
X91975885Y-71536390D01*
X92023504Y-71584009D01*
X92071123Y-71679247D01*
X92071123Y-71822104D01*
X92023504Y-71917342D01*
X91975885Y-71964961D01*
X91880647Y-72012580D01*
X91499695Y-72012580D01*
X91499695Y-71012580D01*
X91833028Y-71012580D01*
X91928266Y-71060200D01*
X91975885Y-71107819D01*
X92023504Y-71203057D01*
X92023504Y-71298295D01*
X91975885Y-71393533D01*
X91928266Y-71441152D01*
X91833028Y-71488771D01*
X91499695Y-71488771D01*
X92928266Y-71345914D02*
X92928266Y-72012580D01*
X92499695Y-71345914D02*
X92499695Y-71869723D01*
X92547314Y-71964961D01*
X92642552Y-72012580D01*
X92785409Y-72012580D01*
X92880647Y-71964961D01*
X92928266Y-71917342D01*
X93309219Y-71345914D02*
X93833028Y-71345914D01*
X93309219Y-72012580D01*
X93833028Y-72012580D01*
X94118742Y-71345914D02*
X94642552Y-71345914D01*
X94118742Y-72012580D01*
X94642552Y-72012580D01*
X95404457Y-71964961D02*
X95309219Y-72012580D01*
X95118742Y-72012580D01*
X95023504Y-71964961D01*
X94975885Y-71869723D01*
X94975885Y-71488771D01*
X95023504Y-71393533D01*
X95118742Y-71345914D01*
X95309219Y-71345914D01*
X95404457Y-71393533D01*
X95452076Y-71488771D01*
X95452076Y-71584009D01*
X94975885Y-71679247D01*
X95880647Y-72012580D02*
X95880647Y-71345914D01*
X95880647Y-71536390D02*
X95928266Y-71441152D01*
X95975885Y-71393533D01*
X96071123Y-71345914D01*
X96166361Y-71345914D01*
%TO.C,J4*%
X100958380Y-81499333D02*
X101672666Y-81499333D01*
X101815523Y-81546952D01*
X101910761Y-81642190D01*
X101958380Y-81785047D01*
X101958380Y-81880285D01*
X101291714Y-80594571D02*
X101958380Y-80594571D01*
X100910761Y-80832666D02*
X101625047Y-81070761D01*
X101625047Y-80451714D01*
X87794095Y-78411714D02*
X87794095Y-79078380D01*
X87556000Y-78030761D02*
X87317904Y-78745047D01*
X87936952Y-78745047D01*
X88317904Y-78697428D02*
X89079809Y-78697428D01*
X89556000Y-79078380D02*
X89556000Y-78078380D01*
X90127428Y-79078380D02*
X89698857Y-78506952D01*
X90127428Y-78078380D02*
X89556000Y-78649809D01*
X90936952Y-79030761D02*
X90841714Y-79078380D01*
X90651238Y-79078380D01*
X90556000Y-79030761D01*
X90508380Y-78935523D01*
X90508380Y-78554571D01*
X90556000Y-78459333D01*
X90651238Y-78411714D01*
X90841714Y-78411714D01*
X90936952Y-78459333D01*
X90984571Y-78554571D01*
X90984571Y-78649809D01*
X90508380Y-78745047D01*
X91317904Y-78411714D02*
X91556000Y-79078380D01*
X91794095Y-78411714D02*
X91556000Y-79078380D01*
X91460761Y-79316476D01*
X91413142Y-79364095D01*
X91317904Y-79411714D01*
X92175047Y-78697428D02*
X92936952Y-78697428D01*
X93413142Y-79078380D02*
X93413142Y-78078380D01*
X93794095Y-78078380D01*
X93889333Y-78126000D01*
X93936952Y-78173619D01*
X93984571Y-78268857D01*
X93984571Y-78411714D01*
X93936952Y-78506952D01*
X93889333Y-78554571D01*
X93794095Y-78602190D01*
X93413142Y-78602190D01*
X94841714Y-79078380D02*
X94841714Y-78554571D01*
X94794095Y-78459333D01*
X94698857Y-78411714D01*
X94508380Y-78411714D01*
X94413142Y-78459333D01*
X94841714Y-79030761D02*
X94746476Y-79078380D01*
X94508380Y-79078380D01*
X94413142Y-79030761D01*
X94365523Y-78935523D01*
X94365523Y-78840285D01*
X94413142Y-78745047D01*
X94508380Y-78697428D01*
X94746476Y-78697428D01*
X94841714Y-78649809D01*
X95746476Y-79078380D02*
X95746476Y-78078380D01*
X95746476Y-79030761D02*
X95651238Y-79078380D01*
X95460761Y-79078380D01*
X95365523Y-79030761D01*
X95317904Y-78983142D01*
X95270285Y-78887904D01*
X95270285Y-78602190D01*
X95317904Y-78506952D01*
X95365523Y-78459333D01*
X95460761Y-78411714D01*
X95651238Y-78411714D01*
X95746476Y-78459333D01*
%TO.C,JP4*%
X36397619Y-63416666D02*
X35683333Y-63416666D01*
X35540476Y-63369047D01*
X35445238Y-63273809D01*
X35397619Y-63130952D01*
X35397619Y-63035714D01*
X35397619Y-63892857D02*
X36397619Y-63892857D01*
X36397619Y-64273809D01*
X36350000Y-64369047D01*
X36302380Y-64416666D01*
X36207142Y-64464285D01*
X36064285Y-64464285D01*
X35969047Y-64416666D01*
X35921428Y-64369047D01*
X35873809Y-64273809D01*
X35873809Y-63892857D01*
X36064285Y-65321428D02*
X35397619Y-65321428D01*
X36445238Y-65083333D02*
X35730952Y-64845238D01*
X35730952Y-65464285D01*
X33088095Y-67952380D02*
X33659523Y-67952380D01*
X33373809Y-68952380D02*
X33373809Y-67952380D01*
X33897619Y-67952380D02*
X34564285Y-68952380D01*
X34564285Y-67952380D02*
X33897619Y-68952380D01*
%TO.C,JP3*%
X36806619Y-54773666D02*
X36092333Y-54773666D01*
X35949476Y-54726047D01*
X35854238Y-54630809D01*
X35806619Y-54487952D01*
X35806619Y-54392714D01*
X35806619Y-55249857D02*
X36806619Y-55249857D01*
X36806619Y-55630809D01*
X36759000Y-55726047D01*
X36711380Y-55773666D01*
X36616142Y-55821285D01*
X36473285Y-55821285D01*
X36378047Y-55773666D01*
X36330428Y-55726047D01*
X36282809Y-55630809D01*
X36282809Y-55249857D01*
X36806619Y-56154619D02*
X36806619Y-56773666D01*
X36425666Y-56440333D01*
X36425666Y-56583190D01*
X36378047Y-56678428D01*
X36330428Y-56726047D01*
X36235190Y-56773666D01*
X35997095Y-56773666D01*
X35901857Y-56726047D01*
X35854238Y-56678428D01*
X35806619Y-56583190D01*
X35806619Y-56297476D01*
X35854238Y-56202238D01*
X35901857Y-56154619D01*
X33679333Y-59742380D02*
X33346000Y-59266190D01*
X33107904Y-59742380D02*
X33107904Y-58742380D01*
X33488857Y-58742380D01*
X33584095Y-58790000D01*
X33631714Y-58837619D01*
X33679333Y-58932857D01*
X33679333Y-59075714D01*
X33631714Y-59170952D01*
X33584095Y-59218571D01*
X33488857Y-59266190D01*
X33107904Y-59266190D01*
X34012666Y-58742380D02*
X34679333Y-59742380D01*
X34679333Y-58742380D02*
X34012666Y-59742380D01*
%TO.C,U5*%
X39302380Y-104261904D02*
X40111904Y-104261904D01*
X40207142Y-104214285D01*
X40254761Y-104166666D01*
X40302380Y-104071428D01*
X40302380Y-103880952D01*
X40254761Y-103785714D01*
X40207142Y-103738095D01*
X40111904Y-103690476D01*
X39302380Y-103690476D01*
X39302380Y-102738095D02*
X39302380Y-103214285D01*
X39778571Y-103261904D01*
X39730952Y-103214285D01*
X39683333Y-103119047D01*
X39683333Y-102880952D01*
X39730952Y-102785714D01*
X39778571Y-102738095D01*
X39873809Y-102690476D01*
X40111904Y-102690476D01*
X40207142Y-102738095D01*
X40254761Y-102785714D01*
X40302380Y-102880952D01*
X40302380Y-103119047D01*
X40254761Y-103214285D01*
X40207142Y-103261904D01*
D12*
X45254761Y-100971428D02*
X45302380Y-100857142D01*
X45302380Y-100666666D01*
X45254761Y-100590476D01*
X45207142Y-100552380D01*
X45111904Y-100514285D01*
X45016666Y-100514285D01*
X44921428Y-100552380D01*
X44873809Y-100590476D01*
X44826190Y-100666666D01*
X44778571Y-100819047D01*
X44730952Y-100895238D01*
X44683333Y-100933333D01*
X44588095Y-100971428D01*
X44492857Y-100971428D01*
X44397619Y-100933333D01*
X44350000Y-100895238D01*
X44302380Y-100819047D01*
X44302380Y-100628571D01*
X44350000Y-100514285D01*
X45302380Y-100171428D02*
X44302380Y-100171428D01*
X44302380Y-99980952D01*
X44350000Y-99866666D01*
X44445238Y-99790476D01*
X44540476Y-99752380D01*
X44730952Y-99714285D01*
X44873809Y-99714285D01*
X45064285Y-99752380D01*
X45159523Y-99790476D01*
X45254761Y-99866666D01*
X45302380Y-99980952D01*
X45302380Y-100171428D01*
X45016666Y-99409523D02*
X45016666Y-99028571D01*
X45302380Y-99485714D02*
X44302380Y-99219047D01*
X45302380Y-98952380D01*
X45254761Y-103682380D02*
X45302380Y-103568095D01*
X45302380Y-103377619D01*
X45254761Y-103301428D01*
X45207142Y-103263333D01*
X45111904Y-103225238D01*
X45016666Y-103225238D01*
X44921428Y-103263333D01*
X44873809Y-103301428D01*
X44826190Y-103377619D01*
X44778571Y-103530000D01*
X44730952Y-103606190D01*
X44683333Y-103644285D01*
X44588095Y-103682380D01*
X44492857Y-103682380D01*
X44397619Y-103644285D01*
X44350000Y-103606190D01*
X44302380Y-103530000D01*
X44302380Y-103339523D01*
X44350000Y-103225238D01*
X45207142Y-102425238D02*
X45254761Y-102463333D01*
X45302380Y-102577619D01*
X45302380Y-102653809D01*
X45254761Y-102768095D01*
X45159523Y-102844285D01*
X45064285Y-102882380D01*
X44873809Y-102920476D01*
X44730952Y-102920476D01*
X44540476Y-102882380D01*
X44445238Y-102844285D01*
X44350000Y-102768095D01*
X44302380Y-102653809D01*
X44302380Y-102577619D01*
X44350000Y-102463333D01*
X44397619Y-102425238D01*
X45302380Y-101701428D02*
X45302380Y-102082380D01*
X44302380Y-102082380D01*
X44350000Y-105879523D02*
X44302380Y-105955714D01*
X44302380Y-106070000D01*
X44350000Y-106184285D01*
X44445238Y-106260476D01*
X44540476Y-106298571D01*
X44730952Y-106336666D01*
X44873809Y-106336666D01*
X45064285Y-106298571D01*
X45159523Y-106260476D01*
X45254761Y-106184285D01*
X45302380Y-106070000D01*
X45302380Y-105993809D01*
X45254761Y-105879523D01*
X45207142Y-105841428D01*
X44873809Y-105841428D01*
X44873809Y-105993809D01*
X45302380Y-105498571D02*
X44302380Y-105498571D01*
X45302380Y-105041428D01*
X44302380Y-105041428D01*
X45302380Y-104660476D02*
X44302380Y-104660476D01*
X44302380Y-104470000D01*
X44350000Y-104355714D01*
X44445238Y-104279523D01*
X44540476Y-104241428D01*
X44730952Y-104203333D01*
X44873809Y-104203333D01*
X45064285Y-104241428D01*
X45159523Y-104279523D01*
X45254761Y-104355714D01*
X45302380Y-104470000D01*
X45302380Y-104660476D01*
X44302380Y-108762380D02*
X45302380Y-108495714D01*
X44302380Y-108229047D01*
X45254761Y-107619523D02*
X45302380Y-107695714D01*
X45302380Y-107848095D01*
X45254761Y-107924285D01*
X45207142Y-107962380D01*
X45111904Y-108000476D01*
X44826190Y-108000476D01*
X44730952Y-107962380D01*
X44683333Y-107924285D01*
X44635714Y-107848095D01*
X44635714Y-107695714D01*
X44683333Y-107619523D01*
X45254761Y-106933809D02*
X45302380Y-107010000D01*
X45302380Y-107162380D01*
X45254761Y-107238571D01*
X45207142Y-107276666D01*
X45111904Y-107314761D01*
X44826190Y-107314761D01*
X44730952Y-107276666D01*
X44683333Y-107238571D01*
X44635714Y-107162380D01*
X44635714Y-107010000D01*
X44683333Y-106933809D01*
D13*
X45302380Y-96261904D02*
X44302380Y-96261904D01*
X45016666Y-95928571D01*
X44302380Y-95595238D01*
X45302380Y-95595238D01*
X45302380Y-95119047D02*
X44302380Y-95119047D01*
X44302380Y-94738095D01*
X44350000Y-94642857D01*
X44397619Y-94595238D01*
X44492857Y-94547619D01*
X44635714Y-94547619D01*
X44730952Y-94595238D01*
X44778571Y-94642857D01*
X44826190Y-94738095D01*
X44826190Y-95119047D01*
X44302380Y-94119047D02*
X45111904Y-94119047D01*
X45207142Y-94071428D01*
X45254761Y-94023809D01*
X45302380Y-93928571D01*
X45302380Y-93738095D01*
X45254761Y-93642857D01*
X45207142Y-93595238D01*
X45111904Y-93547619D01*
X44302380Y-93547619D01*
X45302380Y-93023809D02*
X45302380Y-92833333D01*
X45254761Y-92738095D01*
X45207142Y-92690476D01*
X45064285Y-92595238D01*
X44873809Y-92547619D01*
X44492857Y-92547619D01*
X44397619Y-92595238D01*
X44350000Y-92642857D01*
X44302380Y-92738095D01*
X44302380Y-92928571D01*
X44350000Y-93023809D01*
X44397619Y-93071428D01*
X44492857Y-93119047D01*
X44730952Y-93119047D01*
X44826190Y-93071428D01*
X44873809Y-93023809D01*
X44921428Y-92928571D01*
X44921428Y-92738095D01*
X44873809Y-92642857D01*
X44826190Y-92595238D01*
X44730952Y-92547619D01*
X44397619Y-92166666D02*
X44350000Y-92119047D01*
X44302380Y-92023809D01*
X44302380Y-91785714D01*
X44350000Y-91690476D01*
X44397619Y-91642857D01*
X44492857Y-91595238D01*
X44588095Y-91595238D01*
X44730952Y-91642857D01*
X45302380Y-92214285D01*
X45302380Y-91595238D01*
X44302380Y-90690476D02*
X44302380Y-91166666D01*
X44778571Y-91214285D01*
X44730952Y-91166666D01*
X44683333Y-91071428D01*
X44683333Y-90833333D01*
X44730952Y-90738095D01*
X44778571Y-90690476D01*
X44873809Y-90642857D01*
X45111904Y-90642857D01*
X45207142Y-90690476D01*
X45254761Y-90738095D01*
X45302380Y-90833333D01*
X45302380Y-91071428D01*
X45254761Y-91166666D01*
X45207142Y-91214285D01*
X44302380Y-90023809D02*
X44302380Y-89928571D01*
X44350000Y-89833333D01*
X44397619Y-89785714D01*
X44492857Y-89738095D01*
X44683333Y-89690476D01*
X44921428Y-89690476D01*
X45111904Y-89738095D01*
X45207142Y-89785714D01*
X45254761Y-89833333D01*
X45302380Y-89928571D01*
X45302380Y-90023809D01*
X45254761Y-90119047D01*
X45207142Y-90166666D01*
X45111904Y-90214285D01*
X44921428Y-90261904D01*
X44683333Y-90261904D01*
X44492857Y-90214285D01*
X44397619Y-90166666D01*
X44350000Y-90119047D01*
X44302380Y-90023809D01*
%TO.C,R16*%
X37655142Y-76694380D02*
X37321809Y-76218190D01*
X37083714Y-76694380D02*
X37083714Y-75694380D01*
X37464666Y-75694380D01*
X37559904Y-75742000D01*
X37607523Y-75789619D01*
X37655142Y-75884857D01*
X37655142Y-76027714D01*
X37607523Y-76122952D01*
X37559904Y-76170571D01*
X37464666Y-76218190D01*
X37083714Y-76218190D01*
X38607523Y-76694380D02*
X38036095Y-76694380D01*
X38321809Y-76694380D02*
X38321809Y-75694380D01*
X38226571Y-75837238D01*
X38131333Y-75932476D01*
X38036095Y-75980095D01*
X39464666Y-75694380D02*
X39274190Y-75694380D01*
X39178952Y-75742000D01*
X39131333Y-75789619D01*
X39036095Y-75932476D01*
X38988476Y-76122952D01*
X38988476Y-76503904D01*
X39036095Y-76599142D01*
X39083714Y-76646761D01*
X39178952Y-76694380D01*
X39369428Y-76694380D01*
X39464666Y-76646761D01*
X39512285Y-76599142D01*
X39559904Y-76503904D01*
X39559904Y-76265809D01*
X39512285Y-76170571D01*
X39464666Y-76122952D01*
X39369428Y-76075333D01*
X39178952Y-76075333D01*
X39083714Y-76122952D01*
X39036095Y-76170571D01*
X38988476Y-76265809D01*
X44528952Y-77964380D02*
X43957523Y-77964380D01*
X44243238Y-77964380D02*
X44243238Y-76964380D01*
X44148000Y-77107238D01*
X44052761Y-77202476D01*
X43957523Y-77250095D01*
X44957523Y-77964380D02*
X44957523Y-76964380D01*
X45052761Y-77583428D02*
X45338476Y-77964380D01*
X45338476Y-77297714D02*
X44957523Y-77678666D01*
%TO.C,R15*%
X121664380Y-60579857D02*
X121188190Y-60913190D01*
X121664380Y-61151285D02*
X120664380Y-61151285D01*
X120664380Y-60770333D01*
X120712000Y-60675095D01*
X120759619Y-60627476D01*
X120854857Y-60579857D01*
X120997714Y-60579857D01*
X121092952Y-60627476D01*
X121140571Y-60675095D01*
X121188190Y-60770333D01*
X121188190Y-61151285D01*
X121664380Y-59627476D02*
X121664380Y-60198904D01*
X121664380Y-59913190D02*
X120664380Y-59913190D01*
X120807238Y-60008428D01*
X120902476Y-60103666D01*
X120950095Y-60198904D01*
X120664380Y-58722714D02*
X120664380Y-59198904D01*
X121140571Y-59246523D01*
X121092952Y-59198904D01*
X121045333Y-59103666D01*
X121045333Y-58865571D01*
X121092952Y-58770333D01*
X121140571Y-58722714D01*
X121235809Y-58675095D01*
X121473904Y-58675095D01*
X121569142Y-58722714D01*
X121616761Y-58770333D01*
X121664380Y-58865571D01*
X121664380Y-59103666D01*
X121616761Y-59198904D01*
X121569142Y-59246523D01*
X122934380Y-53706047D02*
X122934380Y-54277476D01*
X122934380Y-53991761D02*
X121934380Y-53991761D01*
X122077238Y-54087000D01*
X122172476Y-54182238D01*
X122220095Y-54277476D01*
X122934380Y-53277476D02*
X121934380Y-53277476D01*
X122553428Y-53182238D02*
X122934380Y-52896523D01*
X122267714Y-52896523D02*
X122648666Y-53277476D01*
%TO.C,R2*%
X47327380Y-51746666D02*
X46851190Y-52080000D01*
X47327380Y-52318095D02*
X46327380Y-52318095D01*
X46327380Y-51937142D01*
X46375000Y-51841904D01*
X46422619Y-51794285D01*
X46517857Y-51746666D01*
X46660714Y-51746666D01*
X46755952Y-51794285D01*
X46803571Y-51841904D01*
X46851190Y-51937142D01*
X46851190Y-52318095D01*
X46422619Y-51365714D02*
X46375000Y-51318095D01*
X46327380Y-51222857D01*
X46327380Y-50984761D01*
X46375000Y-50889523D01*
X46422619Y-50841904D01*
X46517857Y-50794285D01*
X46613095Y-50794285D01*
X46755952Y-50841904D01*
X47327380Y-51413333D01*
X47327380Y-50794285D01*
X44957380Y-52969047D02*
X44957380Y-53540476D01*
X44957380Y-53254761D02*
X43957380Y-53254761D01*
X44100238Y-53350000D01*
X44195476Y-53445238D01*
X44243095Y-53540476D01*
X44957380Y-52540476D02*
X43957380Y-52540476D01*
X44576428Y-52445238D02*
X44957380Y-52159523D01*
X44290714Y-52159523D02*
X44671666Y-52540476D01*
%TO.C,D7*%
X35254904Y-81165380D02*
X35254904Y-80165380D01*
X35493000Y-80165380D01*
X35635857Y-80213000D01*
X35731095Y-80308238D01*
X35778714Y-80403476D01*
X35826333Y-80593952D01*
X35826333Y-80736809D01*
X35778714Y-80927285D01*
X35731095Y-81022523D01*
X35635857Y-81117761D01*
X35493000Y-81165380D01*
X35254904Y-81165380D01*
X36159666Y-80165380D02*
X36826333Y-80165380D01*
X36397761Y-81165380D01*
X32754714Y-76085380D02*
X32421380Y-75609190D01*
X32183285Y-76085380D02*
X32183285Y-75085380D01*
X32564238Y-75085380D01*
X32659476Y-75133000D01*
X32707095Y-75180619D01*
X32754714Y-75275857D01*
X32754714Y-75418714D01*
X32707095Y-75513952D01*
X32659476Y-75561571D01*
X32564238Y-75609190D01*
X32183285Y-75609190D01*
X33183285Y-76085380D02*
X33183285Y-75085380D01*
X33564238Y-75085380D01*
X33659476Y-75133000D01*
X33707095Y-75180619D01*
X33754714Y-75275857D01*
X33754714Y-75418714D01*
X33707095Y-75513952D01*
X33659476Y-75561571D01*
X33564238Y-75609190D01*
X33183285Y-75609190D01*
X34183285Y-76085380D02*
X34183285Y-75418714D01*
X34183285Y-75085380D02*
X34135666Y-75133000D01*
X34183285Y-75180619D01*
X34230904Y-75133000D01*
X34183285Y-75085380D01*
X34183285Y-75180619D01*
X34611857Y-75799666D02*
X35088047Y-75799666D01*
X34516619Y-76085380D02*
X34849952Y-75085380D01*
X35183285Y-76085380D01*
X35945190Y-75418714D02*
X35945190Y-76085380D01*
X35516619Y-75418714D02*
X35516619Y-75942523D01*
X35564238Y-76037761D01*
X35659476Y-76085380D01*
X35802333Y-76085380D01*
X35897571Y-76037761D01*
X35945190Y-75990142D01*
X36326142Y-76085380D02*
X36849952Y-75418714D01*
X36326142Y-75418714D02*
X36849952Y-76085380D01*
%TO.C,D6*%
X124027904Y-81165380D02*
X124027904Y-80165380D01*
X124266000Y-80165380D01*
X124408857Y-80213000D01*
X124504095Y-80308238D01*
X124551714Y-80403476D01*
X124599333Y-80593952D01*
X124599333Y-80736809D01*
X124551714Y-80927285D01*
X124504095Y-81022523D01*
X124408857Y-81117761D01*
X124266000Y-81165380D01*
X124027904Y-81165380D01*
X125456476Y-80165380D02*
X125266000Y-80165380D01*
X125170761Y-80213000D01*
X125123142Y-80260619D01*
X125027904Y-80403476D01*
X124980285Y-80593952D01*
X124980285Y-80974904D01*
X125027904Y-81070142D01*
X125075523Y-81117761D01*
X125170761Y-81165380D01*
X125361238Y-81165380D01*
X125456476Y-81117761D01*
X125504095Y-81070142D01*
X125551714Y-80974904D01*
X125551714Y-80736809D01*
X125504095Y-80641571D01*
X125456476Y-80593952D01*
X125361238Y-80546333D01*
X125170761Y-80546333D01*
X125075523Y-80593952D01*
X125027904Y-80641571D01*
X124980285Y-80736809D01*
X119702190Y-75799666D02*
X120178380Y-75799666D01*
X119606952Y-76085380D02*
X119940285Y-75085380D01*
X120273619Y-76085380D01*
X120606952Y-76085380D02*
X120606952Y-75418714D01*
X120606952Y-75609190D02*
X120654571Y-75513952D01*
X120702190Y-75466333D01*
X120797428Y-75418714D01*
X120892666Y-75418714D01*
X121654571Y-76085380D02*
X121654571Y-75085380D01*
X121654571Y-76037761D02*
X121559333Y-76085380D01*
X121368857Y-76085380D01*
X121273619Y-76037761D01*
X121226000Y-75990142D01*
X121178380Y-75894904D01*
X121178380Y-75609190D01*
X121226000Y-75513952D01*
X121273619Y-75466333D01*
X121368857Y-75418714D01*
X121559333Y-75418714D01*
X121654571Y-75466333D01*
X122130761Y-75990142D02*
X122178380Y-76037761D01*
X122130761Y-76085380D01*
X122083142Y-76037761D01*
X122130761Y-75990142D01*
X122130761Y-76085380D01*
X122559333Y-75799666D02*
X123035523Y-75799666D01*
X122464095Y-76085380D02*
X122797428Y-75085380D01*
X123130761Y-76085380D01*
X123892666Y-75418714D02*
X123892666Y-76085380D01*
X123464095Y-75418714D02*
X123464095Y-75942523D01*
X123511714Y-76037761D01*
X123606952Y-76085380D01*
X123749809Y-76085380D01*
X123845047Y-76037761D01*
X123892666Y-75990142D01*
X124273619Y-76085380D02*
X124797428Y-75418714D01*
X124273619Y-75418714D02*
X124797428Y-76085380D01*
%TO.C,U7*%
X51537895Y-39779380D02*
X51537895Y-40588904D01*
X51585514Y-40684142D01*
X51633133Y-40731761D01*
X51728371Y-40779380D01*
X51918847Y-40779380D01*
X52014085Y-40731761D01*
X52061704Y-40684142D01*
X52109323Y-40588904D01*
X52109323Y-39779380D01*
X52490276Y-39779380D02*
X53156942Y-39779380D01*
X52728371Y-40779380D01*
X49136361Y-39026780D02*
X49136361Y-38026780D01*
X49469695Y-38741066D01*
X49803028Y-38026780D01*
X49803028Y-39026780D01*
X50231600Y-38741066D02*
X50707790Y-38741066D01*
X50136361Y-39026780D02*
X50469695Y-38026780D01*
X50803028Y-39026780D01*
X51041123Y-38026780D02*
X51707790Y-39026780D01*
X51707790Y-38026780D02*
X51041123Y-39026780D01*
X51993504Y-38026780D02*
X52612552Y-38026780D01*
X52279219Y-38407733D01*
X52422076Y-38407733D01*
X52517314Y-38455352D01*
X52564933Y-38502971D01*
X52612552Y-38598209D01*
X52612552Y-38836304D01*
X52564933Y-38931542D01*
X52517314Y-38979161D01*
X52422076Y-39026780D01*
X52136361Y-39026780D01*
X52041123Y-38979161D01*
X51993504Y-38931542D01*
X53469695Y-38360114D02*
X53469695Y-39026780D01*
X53231600Y-37979161D02*
X52993504Y-38693447D01*
X53612552Y-38693447D01*
X54136361Y-38455352D02*
X54041123Y-38407733D01*
X53993504Y-38360114D01*
X53945885Y-38264876D01*
X53945885Y-38217257D01*
X53993504Y-38122019D01*
X54041123Y-38074400D01*
X54136361Y-38026780D01*
X54326838Y-38026780D01*
X54422076Y-38074400D01*
X54469695Y-38122019D01*
X54517314Y-38217257D01*
X54517314Y-38264876D01*
X54469695Y-38360114D01*
X54422076Y-38407733D01*
X54326838Y-38455352D01*
X54136361Y-38455352D01*
X54041123Y-38502971D01*
X53993504Y-38550590D01*
X53945885Y-38645828D01*
X53945885Y-38836304D01*
X53993504Y-38931542D01*
X54041123Y-38979161D01*
X54136361Y-39026780D01*
X54326838Y-39026780D01*
X54422076Y-38979161D01*
X54469695Y-38931542D01*
X54517314Y-38836304D01*
X54517314Y-38645828D01*
X54469695Y-38550590D01*
X54422076Y-38502971D01*
X54326838Y-38455352D01*
X55088742Y-38455352D02*
X54993504Y-38407733D01*
X54945885Y-38360114D01*
X54898266Y-38264876D01*
X54898266Y-38217257D01*
X54945885Y-38122019D01*
X54993504Y-38074400D01*
X55088742Y-38026780D01*
X55279219Y-38026780D01*
X55374457Y-38074400D01*
X55422076Y-38122019D01*
X55469695Y-38217257D01*
X55469695Y-38264876D01*
X55422076Y-38360114D01*
X55374457Y-38407733D01*
X55279219Y-38455352D01*
X55088742Y-38455352D01*
X54993504Y-38502971D01*
X54945885Y-38550590D01*
X54898266Y-38645828D01*
X54898266Y-38836304D01*
X54945885Y-38931542D01*
X54993504Y-38979161D01*
X55088742Y-39026780D01*
X55279219Y-39026780D01*
X55374457Y-38979161D01*
X55422076Y-38931542D01*
X55469695Y-38836304D01*
X55469695Y-38645828D01*
X55422076Y-38550590D01*
X55374457Y-38502971D01*
X55279219Y-38455352D01*
X55898266Y-38502971D02*
X56231600Y-38502971D01*
X56374457Y-39026780D02*
X55898266Y-39026780D01*
X55898266Y-38026780D01*
X56374457Y-38026780D01*
%TO.C,U6*%
X69267095Y-39398380D02*
X69267095Y-40207904D01*
X69314714Y-40303142D01*
X69362333Y-40350761D01*
X69457571Y-40398380D01*
X69648047Y-40398380D01*
X69743285Y-40350761D01*
X69790904Y-40303142D01*
X69838523Y-40207904D01*
X69838523Y-39398380D01*
X70743285Y-39398380D02*
X70552809Y-39398380D01*
X70457571Y-39446000D01*
X70409952Y-39493619D01*
X70314714Y-39636476D01*
X70267095Y-39826952D01*
X70267095Y-40207904D01*
X70314714Y-40303142D01*
X70362333Y-40350761D01*
X70457571Y-40398380D01*
X70648047Y-40398380D01*
X70743285Y-40350761D01*
X70790904Y-40303142D01*
X70838523Y-40207904D01*
X70838523Y-39969809D01*
X70790904Y-39874571D01*
X70743285Y-39826952D01*
X70648047Y-39779333D01*
X70457571Y-39779333D01*
X70362333Y-39826952D01*
X70314714Y-39874571D01*
X70267095Y-39969809D01*
X66586161Y-39052180D02*
X66586161Y-38052180D01*
X66919495Y-38766466D01*
X67252828Y-38052180D01*
X67252828Y-39052180D01*
X67681400Y-38766466D02*
X68157590Y-38766466D01*
X67586161Y-39052180D02*
X67919495Y-38052180D01*
X68252828Y-39052180D01*
X68490923Y-38052180D02*
X69157590Y-39052180D01*
X69157590Y-38052180D02*
X68490923Y-39052180D01*
X69443304Y-38052180D02*
X70062352Y-38052180D01*
X69729019Y-38433133D01*
X69871876Y-38433133D01*
X69967114Y-38480752D01*
X70014733Y-38528371D01*
X70062352Y-38623609D01*
X70062352Y-38861704D01*
X70014733Y-38956942D01*
X69967114Y-39004561D01*
X69871876Y-39052180D01*
X69586161Y-39052180D01*
X69490923Y-39004561D01*
X69443304Y-38956942D01*
X70919495Y-38385514D02*
X70919495Y-39052180D01*
X70681400Y-38004561D02*
X70443304Y-38718847D01*
X71062352Y-38718847D01*
X71586161Y-38480752D02*
X71490923Y-38433133D01*
X71443304Y-38385514D01*
X71395685Y-38290276D01*
X71395685Y-38242657D01*
X71443304Y-38147419D01*
X71490923Y-38099800D01*
X71586161Y-38052180D01*
X71776638Y-38052180D01*
X71871876Y-38099800D01*
X71919495Y-38147419D01*
X71967114Y-38242657D01*
X71967114Y-38290276D01*
X71919495Y-38385514D01*
X71871876Y-38433133D01*
X71776638Y-38480752D01*
X71586161Y-38480752D01*
X71490923Y-38528371D01*
X71443304Y-38575990D01*
X71395685Y-38671228D01*
X71395685Y-38861704D01*
X71443304Y-38956942D01*
X71490923Y-39004561D01*
X71586161Y-39052180D01*
X71776638Y-39052180D01*
X71871876Y-39004561D01*
X71919495Y-38956942D01*
X71967114Y-38861704D01*
X71967114Y-38671228D01*
X71919495Y-38575990D01*
X71871876Y-38528371D01*
X71776638Y-38480752D01*
X72538542Y-38480752D02*
X72443304Y-38433133D01*
X72395685Y-38385514D01*
X72348066Y-38290276D01*
X72348066Y-38242657D01*
X72395685Y-38147419D01*
X72443304Y-38099800D01*
X72538542Y-38052180D01*
X72729019Y-38052180D01*
X72824257Y-38099800D01*
X72871876Y-38147419D01*
X72919495Y-38242657D01*
X72919495Y-38290276D01*
X72871876Y-38385514D01*
X72824257Y-38433133D01*
X72729019Y-38480752D01*
X72538542Y-38480752D01*
X72443304Y-38528371D01*
X72395685Y-38575990D01*
X72348066Y-38671228D01*
X72348066Y-38861704D01*
X72395685Y-38956942D01*
X72443304Y-39004561D01*
X72538542Y-39052180D01*
X72729019Y-39052180D01*
X72824257Y-39004561D01*
X72871876Y-38956942D01*
X72919495Y-38861704D01*
X72919495Y-38671228D01*
X72871876Y-38575990D01*
X72824257Y-38528371D01*
X72729019Y-38480752D01*
X73348066Y-38528371D02*
X73681400Y-38528371D01*
X73824257Y-39052180D02*
X73348066Y-39052180D01*
X73348066Y-38052180D01*
X73824257Y-38052180D01*
%TO.C,R7*%
X64896380Y-59098666D02*
X64420190Y-59432000D01*
X64896380Y-59670095D02*
X63896380Y-59670095D01*
X63896380Y-59289142D01*
X63944000Y-59193904D01*
X63991619Y-59146285D01*
X64086857Y-59098666D01*
X64229714Y-59098666D01*
X64324952Y-59146285D01*
X64372571Y-59193904D01*
X64420190Y-59289142D01*
X64420190Y-59670095D01*
X63896380Y-58765333D02*
X63896380Y-58098666D01*
X64896380Y-58527238D01*
X66801380Y-53336047D02*
X66801380Y-53907476D01*
X66801380Y-53621761D02*
X65801380Y-53621761D01*
X65944238Y-53717000D01*
X66039476Y-53812238D01*
X66087095Y-53907476D01*
X66801380Y-52907476D02*
X65801380Y-52907476D01*
X66420428Y-52812238D02*
X66801380Y-52526523D01*
X66134714Y-52526523D02*
X66515666Y-52907476D01*
%TO.C,R9*%
X61099333Y-34937380D02*
X60766000Y-34461190D01*
X60527904Y-34937380D02*
X60527904Y-33937380D01*
X60908857Y-33937380D01*
X61004095Y-33985000D01*
X61051714Y-34032619D01*
X61099333Y-34127857D01*
X61099333Y-34270714D01*
X61051714Y-34365952D01*
X61004095Y-34413571D01*
X60908857Y-34461190D01*
X60527904Y-34461190D01*
X61575523Y-34937380D02*
X61766000Y-34937380D01*
X61861238Y-34889761D01*
X61908857Y-34842142D01*
X62004095Y-34699285D01*
X62051714Y-34508809D01*
X62051714Y-34127857D01*
X62004095Y-34032619D01*
X61956476Y-33985000D01*
X61861238Y-33937380D01*
X61670761Y-33937380D01*
X61575523Y-33985000D01*
X61527904Y-34032619D01*
X61480285Y-34127857D01*
X61480285Y-34365952D01*
X61527904Y-34461190D01*
X61575523Y-34508809D01*
X61670761Y-34556428D01*
X61861238Y-34556428D01*
X61956476Y-34508809D01*
X62004095Y-34461190D01*
X62051714Y-34365952D01*
X65298333Y-33921380D02*
X64726904Y-33921380D01*
X65012619Y-33921380D02*
X65012619Y-32921380D01*
X64917380Y-33064238D01*
X64822142Y-33159476D01*
X64726904Y-33207095D01*
X65679285Y-33016619D02*
X65726904Y-32969000D01*
X65822142Y-32921380D01*
X66060238Y-32921380D01*
X66155476Y-32969000D01*
X66203095Y-33016619D01*
X66250714Y-33111857D01*
X66250714Y-33207095D01*
X66203095Y-33349952D01*
X65631666Y-33921380D01*
X66250714Y-33921380D01*
X66869761Y-32921380D02*
X66965000Y-32921380D01*
X67060238Y-32969000D01*
X67107857Y-33016619D01*
X67155476Y-33111857D01*
X67203095Y-33302333D01*
X67203095Y-33540428D01*
X67155476Y-33730904D01*
X67107857Y-33826142D01*
X67060238Y-33873761D01*
X66965000Y-33921380D01*
X66869761Y-33921380D01*
X66774523Y-33873761D01*
X66726904Y-33826142D01*
X66679285Y-33730904D01*
X66631666Y-33540428D01*
X66631666Y-33302333D01*
X66679285Y-33111857D01*
X66726904Y-33016619D01*
X66774523Y-32969000D01*
X66869761Y-32921380D01*
%TO.C,R8*%
X44335333Y-35064380D02*
X44002000Y-34588190D01*
X43763904Y-35064380D02*
X43763904Y-34064380D01*
X44144857Y-34064380D01*
X44240095Y-34112000D01*
X44287714Y-34159619D01*
X44335333Y-34254857D01*
X44335333Y-34397714D01*
X44287714Y-34492952D01*
X44240095Y-34540571D01*
X44144857Y-34588190D01*
X43763904Y-34588190D01*
X44906761Y-34492952D02*
X44811523Y-34445333D01*
X44763904Y-34397714D01*
X44716285Y-34302476D01*
X44716285Y-34254857D01*
X44763904Y-34159619D01*
X44811523Y-34112000D01*
X44906761Y-34064380D01*
X45097238Y-34064380D01*
X45192476Y-34112000D01*
X45240095Y-34159619D01*
X45287714Y-34254857D01*
X45287714Y-34302476D01*
X45240095Y-34397714D01*
X45192476Y-34445333D01*
X45097238Y-34492952D01*
X44906761Y-34492952D01*
X44811523Y-34540571D01*
X44763904Y-34588190D01*
X44716285Y-34683428D01*
X44716285Y-34873904D01*
X44763904Y-34969142D01*
X44811523Y-35016761D01*
X44906761Y-35064380D01*
X45097238Y-35064380D01*
X45192476Y-35016761D01*
X45240095Y-34969142D01*
X45287714Y-34873904D01*
X45287714Y-34683428D01*
X45240095Y-34588190D01*
X45192476Y-34540571D01*
X45097238Y-34492952D01*
X48280333Y-34048380D02*
X47708904Y-34048380D01*
X47994619Y-34048380D02*
X47994619Y-33048380D01*
X47899380Y-33191238D01*
X47804142Y-33286476D01*
X47708904Y-33334095D01*
X48661285Y-33143619D02*
X48708904Y-33096000D01*
X48804142Y-33048380D01*
X49042238Y-33048380D01*
X49137476Y-33096000D01*
X49185095Y-33143619D01*
X49232714Y-33238857D01*
X49232714Y-33334095D01*
X49185095Y-33476952D01*
X48613666Y-34048380D01*
X49232714Y-34048380D01*
X49851761Y-33048380D02*
X49947000Y-33048380D01*
X50042238Y-33096000D01*
X50089857Y-33143619D01*
X50137476Y-33238857D01*
X50185095Y-33429333D01*
X50185095Y-33667428D01*
X50137476Y-33857904D01*
X50089857Y-33953142D01*
X50042238Y-34000761D01*
X49947000Y-34048380D01*
X49851761Y-34048380D01*
X49756523Y-34000761D01*
X49708904Y-33953142D01*
X49661285Y-33857904D01*
X49613666Y-33667428D01*
X49613666Y-33429333D01*
X49661285Y-33238857D01*
X49708904Y-33143619D01*
X49756523Y-33096000D01*
X49851761Y-33048380D01*
%TO.C,R6*%
X118057380Y-95141666D02*
X117581190Y-95475000D01*
X118057380Y-95713095D02*
X117057380Y-95713095D01*
X117057380Y-95332142D01*
X117105000Y-95236904D01*
X117152619Y-95189285D01*
X117247857Y-95141666D01*
X117390714Y-95141666D01*
X117485952Y-95189285D01*
X117533571Y-95236904D01*
X117581190Y-95332142D01*
X117581190Y-95713095D01*
X117057380Y-94284523D02*
X117057380Y-94475000D01*
X117105000Y-94570238D01*
X117152619Y-94617857D01*
X117295476Y-94713095D01*
X117485952Y-94760714D01*
X117866904Y-94760714D01*
X117962142Y-94713095D01*
X118009761Y-94665476D01*
X118057380Y-94570238D01*
X118057380Y-94379761D01*
X118009761Y-94284523D01*
X117962142Y-94236904D01*
X117866904Y-94189285D01*
X117628809Y-94189285D01*
X117533571Y-94236904D01*
X117485952Y-94284523D01*
X117438333Y-94379761D01*
X117438333Y-94570238D01*
X117485952Y-94665476D01*
X117533571Y-94713095D01*
X117628809Y-94760714D01*
X119327380Y-88744047D02*
X119327380Y-89315476D01*
X119327380Y-89029761D02*
X118327380Y-89029761D01*
X118470238Y-89125000D01*
X118565476Y-89220238D01*
X118613095Y-89315476D01*
X119327380Y-88315476D02*
X118327380Y-88315476D01*
X118946428Y-88220238D02*
X119327380Y-87934523D01*
X118660714Y-87934523D02*
X119041666Y-88315476D01*
%TO.C,R5*%
X68466380Y-59123666D02*
X67990190Y-59457000D01*
X68466380Y-59695095D02*
X67466380Y-59695095D01*
X67466380Y-59314142D01*
X67514000Y-59218904D01*
X67561619Y-59171285D01*
X67656857Y-59123666D01*
X67799714Y-59123666D01*
X67894952Y-59171285D01*
X67942571Y-59218904D01*
X67990190Y-59314142D01*
X67990190Y-59695095D01*
X67466380Y-58218904D02*
X67466380Y-58695095D01*
X67942571Y-58742714D01*
X67894952Y-58695095D01*
X67847333Y-58599857D01*
X67847333Y-58361761D01*
X67894952Y-58266523D01*
X67942571Y-58218904D01*
X68037809Y-58171285D01*
X68275904Y-58171285D01*
X68371142Y-58218904D01*
X68418761Y-58266523D01*
X68466380Y-58361761D01*
X68466380Y-58599857D01*
X68418761Y-58695095D01*
X68371142Y-58742714D01*
X69736380Y-53361047D02*
X69736380Y-53932476D01*
X69736380Y-53646761D02*
X68736380Y-53646761D01*
X68879238Y-53742000D01*
X68974476Y-53837238D01*
X69022095Y-53932476D01*
X69736380Y-52932476D02*
X68736380Y-52932476D01*
X69355428Y-52837238D02*
X69736380Y-52551523D01*
X69069714Y-52551523D02*
X69450666Y-52932476D01*
%TO.C,R4*%
X121232380Y-95141666D02*
X120756190Y-95475000D01*
X121232380Y-95713095D02*
X120232380Y-95713095D01*
X120232380Y-95332142D01*
X120280000Y-95236904D01*
X120327619Y-95189285D01*
X120422857Y-95141666D01*
X120565714Y-95141666D01*
X120660952Y-95189285D01*
X120708571Y-95236904D01*
X120756190Y-95332142D01*
X120756190Y-95713095D01*
X120565714Y-94284523D02*
X121232380Y-94284523D01*
X120184761Y-94522619D02*
X120899047Y-94760714D01*
X120899047Y-94141666D01*
X122502380Y-88744047D02*
X122502380Y-89315476D01*
X122502380Y-89029761D02*
X121502380Y-89029761D01*
X121645238Y-89125000D01*
X121740476Y-89220238D01*
X121788095Y-89315476D01*
X122502380Y-88315476D02*
X121502380Y-88315476D01*
X122121428Y-88220238D02*
X122502380Y-87934523D01*
X121835714Y-87934523D02*
X122216666Y-88315476D01*
%TO.C,D5*%
X62935904Y-61674380D02*
X62935904Y-60674380D01*
X63174000Y-60674380D01*
X63316857Y-60722000D01*
X63412095Y-60817238D01*
X63459714Y-60912476D01*
X63507333Y-61102952D01*
X63507333Y-61245809D01*
X63459714Y-61436285D01*
X63412095Y-61531523D01*
X63316857Y-61626761D01*
X63174000Y-61674380D01*
X62935904Y-61674380D01*
X64412095Y-60674380D02*
X63935904Y-60674380D01*
X63888285Y-61150571D01*
X63935904Y-61102952D01*
X64031142Y-61055333D01*
X64269238Y-61055333D01*
X64364476Y-61102952D01*
X64412095Y-61150571D01*
X64459714Y-61245809D01*
X64459714Y-61483904D01*
X64412095Y-61579142D01*
X64364476Y-61626761D01*
X64269238Y-61674380D01*
X64031142Y-61674380D01*
X63935904Y-61626761D01*
X63888285Y-61579142D01*
X65539333Y-66627380D02*
X65206000Y-66151190D01*
X64967904Y-66627380D02*
X64967904Y-65627380D01*
X65348857Y-65627380D01*
X65444095Y-65675000D01*
X65491714Y-65722619D01*
X65539333Y-65817857D01*
X65539333Y-65960714D01*
X65491714Y-66055952D01*
X65444095Y-66103571D01*
X65348857Y-66151190D01*
X64967904Y-66151190D01*
X65872666Y-65627380D02*
X66539333Y-66627380D01*
X66539333Y-65627380D02*
X65872666Y-66627380D01*
%TO.C,D4*%
X120079904Y-104067380D02*
X120079904Y-103067380D01*
X120318000Y-103067380D01*
X120460857Y-103115000D01*
X120556095Y-103210238D01*
X120603714Y-103305476D01*
X120651333Y-103495952D01*
X120651333Y-103638809D01*
X120603714Y-103829285D01*
X120556095Y-103924523D01*
X120460857Y-104019761D01*
X120318000Y-104067380D01*
X120079904Y-104067380D01*
X121508476Y-103400714D02*
X121508476Y-104067380D01*
X121270380Y-103019761D02*
X121032285Y-103734047D01*
X121651333Y-103734047D01*
X122683333Y-109147380D02*
X122350000Y-108671190D01*
X122111904Y-109147380D02*
X122111904Y-108147380D01*
X122492857Y-108147380D01*
X122588095Y-108195000D01*
X122635714Y-108242619D01*
X122683333Y-108337857D01*
X122683333Y-108480714D01*
X122635714Y-108575952D01*
X122588095Y-108623571D01*
X122492857Y-108671190D01*
X122111904Y-108671190D01*
X123016666Y-108147380D02*
X123683333Y-109147380D01*
X123683333Y-108147380D02*
X123016666Y-109147380D01*
%TO.C,D3*%
X68015904Y-61674380D02*
X68015904Y-60674380D01*
X68254000Y-60674380D01*
X68396857Y-60722000D01*
X68492095Y-60817238D01*
X68539714Y-60912476D01*
X68587333Y-61102952D01*
X68587333Y-61245809D01*
X68539714Y-61436285D01*
X68492095Y-61531523D01*
X68396857Y-61626761D01*
X68254000Y-61674380D01*
X68015904Y-61674380D01*
X68920666Y-60674380D02*
X69539714Y-60674380D01*
X69206380Y-61055333D01*
X69349238Y-61055333D01*
X69444476Y-61102952D01*
X69492095Y-61150571D01*
X69539714Y-61245809D01*
X69539714Y-61483904D01*
X69492095Y-61579142D01*
X69444476Y-61626761D01*
X69349238Y-61674380D01*
X69063523Y-61674380D01*
X68968285Y-61626761D01*
X68920666Y-61579142D01*
X69770095Y-65627380D02*
X70341523Y-65627380D01*
X70055809Y-66627380D02*
X70055809Y-65627380D01*
X70579619Y-65627380D02*
X71246285Y-66627380D01*
X71246285Y-65627380D02*
X70579619Y-66627380D01*
%TO.C,D2*%
X120333904Y-97694380D02*
X120333904Y-96694380D01*
X120572000Y-96694380D01*
X120714857Y-96742000D01*
X120810095Y-96837238D01*
X120857714Y-96932476D01*
X120905333Y-97122952D01*
X120905333Y-97265809D01*
X120857714Y-97456285D01*
X120810095Y-97551523D01*
X120714857Y-97646761D01*
X120572000Y-97694380D01*
X120333904Y-97694380D01*
X121286285Y-96789619D02*
X121333904Y-96742000D01*
X121429142Y-96694380D01*
X121667238Y-96694380D01*
X121762476Y-96742000D01*
X121810095Y-96789619D01*
X121857714Y-96884857D01*
X121857714Y-96980095D01*
X121810095Y-97122952D01*
X121238666Y-97694380D01*
X121857714Y-97694380D01*
X122088095Y-101647380D02*
X122659523Y-101647380D01*
X122373809Y-102647380D02*
X122373809Y-101647380D01*
X122897619Y-101647380D02*
X123564285Y-102647380D01*
X123564285Y-101647380D02*
X122897619Y-102647380D01*
%TO.C,C6*%
X43592142Y-40051666D02*
X43639761Y-40099285D01*
X43687380Y-40242142D01*
X43687380Y-40337380D01*
X43639761Y-40480238D01*
X43544523Y-40575476D01*
X43449285Y-40623095D01*
X43258809Y-40670714D01*
X43115952Y-40670714D01*
X42925476Y-40623095D01*
X42830238Y-40575476D01*
X42735000Y-40480238D01*
X42687380Y-40337380D01*
X42687380Y-40242142D01*
X42735000Y-40099285D01*
X42782619Y-40051666D01*
X42687380Y-39194523D02*
X42687380Y-39385000D01*
X42735000Y-39480238D01*
X42782619Y-39527857D01*
X42925476Y-39623095D01*
X43115952Y-39670714D01*
X43496904Y-39670714D01*
X43592142Y-39623095D01*
X43639761Y-39575476D01*
X43687380Y-39480238D01*
X43687380Y-39289761D01*
X43639761Y-39194523D01*
X43592142Y-39146904D01*
X43496904Y-39099285D01*
X43258809Y-39099285D01*
X43163571Y-39146904D01*
X43115952Y-39194523D01*
X43068333Y-39289761D01*
X43068333Y-39480238D01*
X43115952Y-39575476D01*
X43163571Y-39623095D01*
X43258809Y-39670714D01*
X46227380Y-41004047D02*
X46227380Y-41575476D01*
X46227380Y-41289761D02*
X45227380Y-41289761D01*
X45370238Y-41385000D01*
X45465476Y-41480238D01*
X45513095Y-41575476D01*
X45227380Y-40385000D02*
X45227380Y-40289761D01*
X45275000Y-40194523D01*
X45322619Y-40146904D01*
X45417857Y-40099285D01*
X45608333Y-40051666D01*
X45846428Y-40051666D01*
X46036904Y-40099285D01*
X46132142Y-40146904D01*
X46179761Y-40194523D01*
X46227380Y-40289761D01*
X46227380Y-40385000D01*
X46179761Y-40480238D01*
X46132142Y-40527857D01*
X46036904Y-40575476D01*
X45846428Y-40623095D01*
X45608333Y-40623095D01*
X45417857Y-40575476D01*
X45322619Y-40527857D01*
X45275000Y-40480238D01*
X45227380Y-40385000D01*
X45227380Y-39432619D02*
X45227380Y-39337380D01*
X45275000Y-39242142D01*
X45322619Y-39194523D01*
X45417857Y-39146904D01*
X45608333Y-39099285D01*
X45846428Y-39099285D01*
X46036904Y-39146904D01*
X46132142Y-39194523D01*
X46179761Y-39242142D01*
X46227380Y-39337380D01*
X46227380Y-39432619D01*
X46179761Y-39527857D01*
X46132142Y-39575476D01*
X46036904Y-39623095D01*
X45846428Y-39670714D01*
X45608333Y-39670714D01*
X45417857Y-39623095D01*
X45322619Y-39575476D01*
X45275000Y-39527857D01*
X45227380Y-39432619D01*
X45560714Y-38670714D02*
X46227380Y-38670714D01*
X45655952Y-38670714D02*
X45608333Y-38623095D01*
X45560714Y-38527857D01*
X45560714Y-38385000D01*
X45608333Y-38289761D01*
X45703571Y-38242142D01*
X46227380Y-38242142D01*
%TO.C,C5*%
X63277142Y-40686666D02*
X63324761Y-40734285D01*
X63372380Y-40877142D01*
X63372380Y-40972380D01*
X63324761Y-41115238D01*
X63229523Y-41210476D01*
X63134285Y-41258095D01*
X62943809Y-41305714D01*
X62800952Y-41305714D01*
X62610476Y-41258095D01*
X62515238Y-41210476D01*
X62420000Y-41115238D01*
X62372380Y-40972380D01*
X62372380Y-40877142D01*
X62420000Y-40734285D01*
X62467619Y-40686666D01*
X62372380Y-39781904D02*
X62372380Y-40258095D01*
X62848571Y-40305714D01*
X62800952Y-40258095D01*
X62753333Y-40162857D01*
X62753333Y-39924761D01*
X62800952Y-39829523D01*
X62848571Y-39781904D01*
X62943809Y-39734285D01*
X63181904Y-39734285D01*
X63277142Y-39781904D01*
X63324761Y-39829523D01*
X63372380Y-39924761D01*
X63372380Y-40162857D01*
X63324761Y-40258095D01*
X63277142Y-40305714D01*
X60832380Y-41577047D02*
X60832380Y-42148476D01*
X60832380Y-41862761D02*
X59832380Y-41862761D01*
X59975238Y-41958000D01*
X60070476Y-42053238D01*
X60118095Y-42148476D01*
X59832380Y-40958000D02*
X59832380Y-40862761D01*
X59880000Y-40767523D01*
X59927619Y-40719904D01*
X60022857Y-40672285D01*
X60213333Y-40624666D01*
X60451428Y-40624666D01*
X60641904Y-40672285D01*
X60737142Y-40719904D01*
X60784761Y-40767523D01*
X60832380Y-40862761D01*
X60832380Y-40958000D01*
X60784761Y-41053238D01*
X60737142Y-41100857D01*
X60641904Y-41148476D01*
X60451428Y-41196095D01*
X60213333Y-41196095D01*
X60022857Y-41148476D01*
X59927619Y-41100857D01*
X59880000Y-41053238D01*
X59832380Y-40958000D01*
X59832380Y-40005619D02*
X59832380Y-39910380D01*
X59880000Y-39815142D01*
X59927619Y-39767523D01*
X60022857Y-39719904D01*
X60213333Y-39672285D01*
X60451428Y-39672285D01*
X60641904Y-39719904D01*
X60737142Y-39767523D01*
X60784761Y-39815142D01*
X60832380Y-39910380D01*
X60832380Y-40005619D01*
X60784761Y-40100857D01*
X60737142Y-40148476D01*
X60641904Y-40196095D01*
X60451428Y-40243714D01*
X60213333Y-40243714D01*
X60022857Y-40196095D01*
X59927619Y-40148476D01*
X59880000Y-40100857D01*
X59832380Y-40005619D01*
X60165714Y-39243714D02*
X60832380Y-39243714D01*
X60260952Y-39243714D02*
X60213333Y-39196095D01*
X60165714Y-39100857D01*
X60165714Y-38958000D01*
X60213333Y-38862761D01*
X60308571Y-38815142D01*
X60832380Y-38815142D01*
%TO.C,C4*%
X88658333Y-24174142D02*
X88610714Y-24221761D01*
X88467857Y-24269380D01*
X88372619Y-24269380D01*
X88229761Y-24221761D01*
X88134523Y-24126523D01*
X88086904Y-24031285D01*
X88039285Y-23840809D01*
X88039285Y-23697952D01*
X88086904Y-23507476D01*
X88134523Y-23412238D01*
X88229761Y-23317000D01*
X88372619Y-23269380D01*
X88467857Y-23269380D01*
X88610714Y-23317000D01*
X88658333Y-23364619D01*
X89515476Y-23602714D02*
X89515476Y-24269380D01*
X89277380Y-23221761D02*
X89039285Y-23936047D01*
X89658333Y-23936047D01*
X94532142Y-30619380D02*
X93960714Y-30619380D01*
X94246428Y-30619380D02*
X94246428Y-29619380D01*
X94151190Y-29762238D01*
X94055952Y-29857476D01*
X93960714Y-29905095D01*
X95151190Y-29619380D02*
X95246428Y-29619380D01*
X95341666Y-29667000D01*
X95389285Y-29714619D01*
X95436904Y-29809857D01*
X95484523Y-30000333D01*
X95484523Y-30238428D01*
X95436904Y-30428904D01*
X95389285Y-30524142D01*
X95341666Y-30571761D01*
X95246428Y-30619380D01*
X95151190Y-30619380D01*
X95055952Y-30571761D01*
X95008333Y-30524142D01*
X94960714Y-30428904D01*
X94913095Y-30238428D01*
X94913095Y-30000333D01*
X94960714Y-29809857D01*
X95008333Y-29714619D01*
X95055952Y-29667000D01*
X95151190Y-29619380D01*
X96341666Y-29952714D02*
X96341666Y-30619380D01*
X95913095Y-29952714D02*
X95913095Y-30476523D01*
X95960714Y-30571761D01*
X96055952Y-30619380D01*
X96198809Y-30619380D01*
X96294047Y-30571761D01*
X96341666Y-30524142D01*
%TO.C,C2*%
X84102142Y-26777666D02*
X84149761Y-26825285D01*
X84197380Y-26968142D01*
X84197380Y-27063380D01*
X84149761Y-27206238D01*
X84054523Y-27301476D01*
X83959285Y-27349095D01*
X83768809Y-27396714D01*
X83625952Y-27396714D01*
X83435476Y-27349095D01*
X83340238Y-27301476D01*
X83245000Y-27206238D01*
X83197380Y-27063380D01*
X83197380Y-26968142D01*
X83245000Y-26825285D01*
X83292619Y-26777666D01*
X83292619Y-26396714D02*
X83245000Y-26349095D01*
X83197380Y-26253857D01*
X83197380Y-26015761D01*
X83245000Y-25920523D01*
X83292619Y-25872904D01*
X83387857Y-25825285D01*
X83483095Y-25825285D01*
X83625952Y-25872904D01*
X84197380Y-26444333D01*
X84197380Y-25825285D01*
X86737380Y-28024047D02*
X86737380Y-28595476D01*
X86737380Y-28309761D02*
X85737380Y-28309761D01*
X85880238Y-28405000D01*
X85975476Y-28500238D01*
X86023095Y-28595476D01*
X85737380Y-27405000D02*
X85737380Y-27309761D01*
X85785000Y-27214523D01*
X85832619Y-27166904D01*
X85927857Y-27119285D01*
X86118333Y-27071666D01*
X86356428Y-27071666D01*
X86546904Y-27119285D01*
X86642142Y-27166904D01*
X86689761Y-27214523D01*
X86737380Y-27309761D01*
X86737380Y-27405000D01*
X86689761Y-27500238D01*
X86642142Y-27547857D01*
X86546904Y-27595476D01*
X86356428Y-27643095D01*
X86118333Y-27643095D01*
X85927857Y-27595476D01*
X85832619Y-27547857D01*
X85785000Y-27500238D01*
X85737380Y-27405000D01*
X85737380Y-26452619D02*
X85737380Y-26357380D01*
X85785000Y-26262142D01*
X85832619Y-26214523D01*
X85927857Y-26166904D01*
X86118333Y-26119285D01*
X86356428Y-26119285D01*
X86546904Y-26166904D01*
X86642142Y-26214523D01*
X86689761Y-26262142D01*
X86737380Y-26357380D01*
X86737380Y-26452619D01*
X86689761Y-26547857D01*
X86642142Y-26595476D01*
X86546904Y-26643095D01*
X86356428Y-26690714D01*
X86118333Y-26690714D01*
X85927857Y-26643095D01*
X85832619Y-26595476D01*
X85785000Y-26547857D01*
X85737380Y-26452619D01*
X86070714Y-25690714D02*
X86737380Y-25690714D01*
X86165952Y-25690714D02*
X86118333Y-25643095D01*
X86070714Y-25547857D01*
X86070714Y-25405000D01*
X86118333Y-25309761D01*
X86213571Y-25262142D01*
X86737380Y-25262142D01*
%TO.C,D1*%
X102091904Y-40547380D02*
X102091904Y-39547380D01*
X102330000Y-39547380D01*
X102472857Y-39595000D01*
X102568095Y-39690238D01*
X102615714Y-39785476D01*
X102663333Y-39975952D01*
X102663333Y-40118809D01*
X102615714Y-40309285D01*
X102568095Y-40404523D01*
X102472857Y-40499761D01*
X102330000Y-40547380D01*
X102091904Y-40547380D01*
X103615714Y-40547380D02*
X103044285Y-40547380D01*
X103330000Y-40547380D02*
X103330000Y-39547380D01*
X103234761Y-39690238D01*
X103139523Y-39785476D01*
X103044285Y-39833095D01*
X104147809Y-44500380D02*
X104766857Y-44500380D01*
X104433523Y-44881333D01*
X104576380Y-44881333D01*
X104671619Y-44928952D01*
X104719238Y-44976571D01*
X104766857Y-45071809D01*
X104766857Y-45309904D01*
X104719238Y-45405142D01*
X104671619Y-45452761D01*
X104576380Y-45500380D01*
X104290666Y-45500380D01*
X104195428Y-45452761D01*
X104147809Y-45405142D01*
X105195428Y-45405142D02*
X105243047Y-45452761D01*
X105195428Y-45500380D01*
X105147809Y-45452761D01*
X105195428Y-45405142D01*
X105195428Y-45500380D01*
X105576380Y-44500380D02*
X106195428Y-44500380D01*
X105862095Y-44881333D01*
X106004952Y-44881333D01*
X106100190Y-44928952D01*
X106147809Y-44976571D01*
X106195428Y-45071809D01*
X106195428Y-45309904D01*
X106147809Y-45405142D01*
X106100190Y-45452761D01*
X106004952Y-45500380D01*
X105719238Y-45500380D01*
X105624000Y-45452761D01*
X105576380Y-45405142D01*
X106481142Y-44500380D02*
X106814476Y-45500380D01*
X107147809Y-44500380D01*
%TO.C,U1*%
X106605095Y-29357380D02*
X106605095Y-30166904D01*
X106652714Y-30262142D01*
X106700333Y-30309761D01*
X106795571Y-30357380D01*
X106986047Y-30357380D01*
X107081285Y-30309761D01*
X107128904Y-30262142D01*
X107176523Y-30166904D01*
X107176523Y-29357380D01*
X108176523Y-30357380D02*
X107605095Y-30357380D01*
X107890809Y-30357380D02*
X107890809Y-29357380D01*
X107795571Y-29500238D01*
X107700333Y-29595476D01*
X107605095Y-29643095D01*
X110462809Y-29111380D02*
X111081857Y-29111380D01*
X110748523Y-29492333D01*
X110891380Y-29492333D01*
X110986619Y-29539952D01*
X111034238Y-29587571D01*
X111081857Y-29682809D01*
X111081857Y-29920904D01*
X111034238Y-30016142D01*
X110986619Y-30063761D01*
X110891380Y-30111380D01*
X110605666Y-30111380D01*
X110510428Y-30063761D01*
X110462809Y-30016142D01*
X111510428Y-30016142D02*
X111558047Y-30063761D01*
X111510428Y-30111380D01*
X111462809Y-30063761D01*
X111510428Y-30016142D01*
X111510428Y-30111380D01*
X111891380Y-29111380D02*
X112510428Y-29111380D01*
X112177095Y-29492333D01*
X112319952Y-29492333D01*
X112415190Y-29539952D01*
X112462809Y-29587571D01*
X112510428Y-29682809D01*
X112510428Y-29920904D01*
X112462809Y-30016142D01*
X112415190Y-30063761D01*
X112319952Y-30111380D01*
X112034238Y-30111380D01*
X111939000Y-30063761D01*
X111891380Y-30016142D01*
X112796142Y-29111380D02*
X113129476Y-30111380D01*
X113462809Y-29111380D01*
D12*
X113005857Y-33477000D02*
X112948714Y-33429380D01*
X112863000Y-33429380D01*
X112777285Y-33477000D01*
X112720142Y-33572238D01*
X112691571Y-33667476D01*
X112663000Y-33857952D01*
X112663000Y-34000809D01*
X112691571Y-34191285D01*
X112720142Y-34286523D01*
X112777285Y-34381761D01*
X112863000Y-34429380D01*
X112920142Y-34429380D01*
X113005857Y-34381761D01*
X113034428Y-34334142D01*
X113034428Y-34000809D01*
X112920142Y-34000809D01*
X113291571Y-34429380D02*
X113291571Y-33429380D01*
X113634428Y-34429380D01*
X113634428Y-33429380D01*
X113920142Y-34429380D02*
X113920142Y-33429380D01*
X114063000Y-33429380D01*
X114148714Y-33477000D01*
X114205857Y-33572238D01*
X114234428Y-33667476D01*
X114263000Y-33857952D01*
X114263000Y-34000809D01*
X114234428Y-34191285D01*
X114205857Y-34286523D01*
X114148714Y-34381761D01*
X114063000Y-34429380D01*
X113920142Y-34429380D01*
X108815000Y-33429380D02*
X109186428Y-33429380D01*
X108986428Y-33810333D01*
X109072142Y-33810333D01*
X109129285Y-33857952D01*
X109157857Y-33905571D01*
X109186428Y-34000809D01*
X109186428Y-34238904D01*
X109157857Y-34334142D01*
X109129285Y-34381761D01*
X109072142Y-34429380D01*
X108900714Y-34429380D01*
X108843571Y-34381761D01*
X108815000Y-34334142D01*
X109443571Y-34334142D02*
X109472142Y-34381761D01*
X109443571Y-34429380D01*
X109415000Y-34381761D01*
X109443571Y-34334142D01*
X109443571Y-34429380D01*
X109672142Y-33429380D02*
X110043571Y-33429380D01*
X109843571Y-33810333D01*
X109929285Y-33810333D01*
X109986428Y-33857952D01*
X110015000Y-33905571D01*
X110043571Y-34000809D01*
X110043571Y-34238904D01*
X110015000Y-34334142D01*
X109986428Y-34381761D01*
X109929285Y-34429380D01*
X109757857Y-34429380D01*
X109700714Y-34381761D01*
X109672142Y-34334142D01*
X110215000Y-33429380D02*
X110415000Y-34429380D01*
X110615000Y-33429380D01*
X110900714Y-34429380D02*
X110843571Y-34381761D01*
X110815000Y-34334142D01*
X110786428Y-34238904D01*
X110786428Y-33953190D01*
X110815000Y-33857952D01*
X110843571Y-33810333D01*
X110900714Y-33762714D01*
X110986428Y-33762714D01*
X111043571Y-33810333D01*
X111072142Y-33857952D01*
X111100714Y-33953190D01*
X111100714Y-34238904D01*
X111072142Y-34334142D01*
X111043571Y-34381761D01*
X110986428Y-34429380D01*
X110900714Y-34429380D01*
X111615000Y-33762714D02*
X111615000Y-34429380D01*
X111357857Y-33762714D02*
X111357857Y-34286523D01*
X111386428Y-34381761D01*
X111443571Y-34429380D01*
X111529285Y-34429380D01*
X111586428Y-34381761D01*
X111615000Y-34334142D01*
X111815000Y-33762714D02*
X112043571Y-33762714D01*
X111900714Y-33429380D02*
X111900714Y-34286523D01*
X111929285Y-34381761D01*
X111986428Y-34429380D01*
X112043571Y-34429380D01*
X106838428Y-33429380D02*
X106552714Y-33429380D01*
X106524142Y-33905571D01*
X106552714Y-33857952D01*
X106609857Y-33810333D01*
X106752714Y-33810333D01*
X106809857Y-33857952D01*
X106838428Y-33905571D01*
X106867000Y-34000809D01*
X106867000Y-34238904D01*
X106838428Y-34334142D01*
X106809857Y-34381761D01*
X106752714Y-34429380D01*
X106609857Y-34429380D01*
X106552714Y-34381761D01*
X106524142Y-34334142D01*
X107038428Y-33429380D02*
X107238428Y-34429380D01*
X107438428Y-33429380D01*
X107638428Y-34429380D02*
X107638428Y-33762714D01*
X107638428Y-33429380D02*
X107609857Y-33477000D01*
X107638428Y-33524619D01*
X107667000Y-33477000D01*
X107638428Y-33429380D01*
X107638428Y-33524619D01*
X107924142Y-33762714D02*
X107924142Y-34429380D01*
X107924142Y-33857952D02*
X107952714Y-33810333D01*
X108009857Y-33762714D01*
X108095571Y-33762714D01*
X108152714Y-33810333D01*
X108181285Y-33905571D01*
X108181285Y-34429380D01*
%TO.C,R14*%
D13*
X97834142Y-44716380D02*
X97500809Y-44240190D01*
X97262714Y-44716380D02*
X97262714Y-43716380D01*
X97643666Y-43716380D01*
X97738904Y-43764000D01*
X97786523Y-43811619D01*
X97834142Y-43906857D01*
X97834142Y-44049714D01*
X97786523Y-44144952D01*
X97738904Y-44192571D01*
X97643666Y-44240190D01*
X97262714Y-44240190D01*
X98786523Y-44716380D02*
X98215095Y-44716380D01*
X98500809Y-44716380D02*
X98500809Y-43716380D01*
X98405571Y-43859238D01*
X98310333Y-43954476D01*
X98215095Y-44002095D01*
X99643666Y-44049714D02*
X99643666Y-44716380D01*
X99405571Y-43668761D02*
X99167476Y-44383047D01*
X99786523Y-44383047D01*
X94535323Y-42576514D02*
X94535323Y-43243180D01*
X94297228Y-42195561D02*
X94059133Y-42909847D01*
X94678180Y-42909847D01*
X95059133Y-43243180D02*
X95059133Y-42243180D01*
X95154371Y-42862228D02*
X95440085Y-43243180D01*
X95440085Y-42576514D02*
X95059133Y-42957466D01*
X95773419Y-42243180D02*
X96440085Y-42243180D01*
X96011514Y-43243180D01*
%TO.C,R13*%
X88388380Y-64591857D02*
X87912190Y-64925190D01*
X88388380Y-65163285D02*
X87388380Y-65163285D01*
X87388380Y-64782333D01*
X87436000Y-64687095D01*
X87483619Y-64639476D01*
X87578857Y-64591857D01*
X87721714Y-64591857D01*
X87816952Y-64639476D01*
X87864571Y-64687095D01*
X87912190Y-64782333D01*
X87912190Y-65163285D01*
X88388380Y-63639476D02*
X88388380Y-64210904D01*
X88388380Y-63925190D02*
X87388380Y-63925190D01*
X87531238Y-64020428D01*
X87626476Y-64115666D01*
X87674095Y-64210904D01*
X87388380Y-63306142D02*
X87388380Y-62687095D01*
X87769333Y-63020428D01*
X87769333Y-62877571D01*
X87816952Y-62782333D01*
X87864571Y-62734714D01*
X87959809Y-62687095D01*
X88197904Y-62687095D01*
X88293142Y-62734714D01*
X88340761Y-62782333D01*
X88388380Y-62877571D01*
X88388380Y-63163285D01*
X88340761Y-63258523D01*
X88293142Y-63306142D01*
X89086952Y-58734000D02*
X89039333Y-58829238D01*
X88991714Y-58876857D01*
X88896476Y-58924476D01*
X88848857Y-58924476D01*
X88753619Y-58876857D01*
X88706000Y-58829238D01*
X88658380Y-58734000D01*
X88658380Y-58543523D01*
X88706000Y-58448285D01*
X88753619Y-58400666D01*
X88848857Y-58353047D01*
X88896476Y-58353047D01*
X88991714Y-58400666D01*
X89039333Y-58448285D01*
X89086952Y-58543523D01*
X89086952Y-58734000D01*
X89134571Y-58829238D01*
X89182190Y-58876857D01*
X89277428Y-58924476D01*
X89467904Y-58924476D01*
X89563142Y-58876857D01*
X89610761Y-58829238D01*
X89658380Y-58734000D01*
X89658380Y-58543523D01*
X89610761Y-58448285D01*
X89563142Y-58400666D01*
X89467904Y-58353047D01*
X89277428Y-58353047D01*
X89182190Y-58400666D01*
X89134571Y-58448285D01*
X89086952Y-58543523D01*
X89658380Y-57924476D02*
X88658380Y-57924476D01*
X89277428Y-57829238D02*
X89658380Y-57543523D01*
X88991714Y-57543523D02*
X89372666Y-57924476D01*
%TO.C,R12*%
X91817380Y-64337857D02*
X91341190Y-64671190D01*
X91817380Y-64909285D02*
X90817380Y-64909285D01*
X90817380Y-64528333D01*
X90865000Y-64433095D01*
X90912619Y-64385476D01*
X91007857Y-64337857D01*
X91150714Y-64337857D01*
X91245952Y-64385476D01*
X91293571Y-64433095D01*
X91341190Y-64528333D01*
X91341190Y-64909285D01*
X91817380Y-63385476D02*
X91817380Y-63956904D01*
X91817380Y-63671190D02*
X90817380Y-63671190D01*
X90960238Y-63766428D01*
X91055476Y-63861666D01*
X91103095Y-63956904D01*
X90912619Y-63004523D02*
X90865000Y-62956904D01*
X90817380Y-62861666D01*
X90817380Y-62623571D01*
X90865000Y-62528333D01*
X90912619Y-62480714D01*
X91007857Y-62433095D01*
X91103095Y-62433095D01*
X91245952Y-62480714D01*
X91817380Y-63052142D01*
X91817380Y-62433095D01*
X92420714Y-59305476D02*
X93087380Y-59305476D01*
X92039761Y-59543571D02*
X92754047Y-59781666D01*
X92754047Y-59162619D01*
X93087380Y-58781666D02*
X92087380Y-58781666D01*
X92706428Y-58686428D02*
X93087380Y-58400714D01*
X92420714Y-58400714D02*
X92801666Y-58781666D01*
X92087380Y-58067380D02*
X92087380Y-57400714D01*
X93087380Y-57829285D01*
%TO.C,R11*%
X94992380Y-64337857D02*
X94516190Y-64671190D01*
X94992380Y-64909285D02*
X93992380Y-64909285D01*
X93992380Y-64528333D01*
X94040000Y-64433095D01*
X94087619Y-64385476D01*
X94182857Y-64337857D01*
X94325714Y-64337857D01*
X94420952Y-64385476D01*
X94468571Y-64433095D01*
X94516190Y-64528333D01*
X94516190Y-64909285D01*
X94992380Y-63385476D02*
X94992380Y-63956904D01*
X94992380Y-63671190D02*
X93992380Y-63671190D01*
X94135238Y-63766428D01*
X94230476Y-63861666D01*
X94278095Y-63956904D01*
X94992380Y-62433095D02*
X94992380Y-63004523D01*
X94992380Y-62718809D02*
X93992380Y-62718809D01*
X94135238Y-62814047D01*
X94230476Y-62909285D01*
X94278095Y-63004523D01*
X95357619Y-59305476D02*
X95310000Y-59257857D01*
X95262380Y-59162619D01*
X95262380Y-58924523D01*
X95310000Y-58829285D01*
X95357619Y-58781666D01*
X95452857Y-58734047D01*
X95548095Y-58734047D01*
X95690952Y-58781666D01*
X96262380Y-59353095D01*
X96262380Y-58734047D01*
X96262380Y-58305476D02*
X95262380Y-58305476D01*
X95881428Y-58210238D02*
X96262380Y-57924523D01*
X95595714Y-57924523D02*
X95976666Y-58305476D01*
%TO.C,R10*%
X98170380Y-64337857D02*
X97694190Y-64671190D01*
X98170380Y-64909285D02*
X97170380Y-64909285D01*
X97170380Y-64528333D01*
X97218000Y-64433095D01*
X97265619Y-64385476D01*
X97360857Y-64337857D01*
X97503714Y-64337857D01*
X97598952Y-64385476D01*
X97646571Y-64433095D01*
X97694190Y-64528333D01*
X97694190Y-64909285D01*
X98170380Y-63385476D02*
X98170380Y-63956904D01*
X98170380Y-63671190D02*
X97170380Y-63671190D01*
X97313238Y-63766428D01*
X97408476Y-63861666D01*
X97456095Y-63956904D01*
X97170380Y-62766428D02*
X97170380Y-62671190D01*
X97218000Y-62575952D01*
X97265619Y-62528333D01*
X97360857Y-62480714D01*
X97551333Y-62433095D01*
X97789428Y-62433095D01*
X97979904Y-62480714D01*
X98075142Y-62528333D01*
X98122761Y-62575952D01*
X98170380Y-62671190D01*
X98170380Y-62766428D01*
X98122761Y-62861666D01*
X98075142Y-62909285D01*
X97979904Y-62956904D01*
X97789428Y-63004523D01*
X97551333Y-63004523D01*
X97360857Y-62956904D01*
X97265619Y-62909285D01*
X97218000Y-62861666D01*
X97170380Y-62766428D01*
X99440380Y-58734047D02*
X99440380Y-59305476D01*
X99440380Y-59019761D02*
X98440380Y-59019761D01*
X98583238Y-59115000D01*
X98678476Y-59210238D01*
X98726095Y-59305476D01*
X99440380Y-58305476D02*
X98440380Y-58305476D01*
X99059428Y-58210238D02*
X99440380Y-57924523D01*
X98773714Y-57924523D02*
X99154666Y-58305476D01*
%TO.C,R3*%
X88773333Y-45182380D02*
X88440000Y-44706190D01*
X88201904Y-45182380D02*
X88201904Y-44182380D01*
X88582857Y-44182380D01*
X88678095Y-44230000D01*
X88725714Y-44277619D01*
X88773333Y-44372857D01*
X88773333Y-44515714D01*
X88725714Y-44610952D01*
X88678095Y-44658571D01*
X88582857Y-44706190D01*
X88201904Y-44706190D01*
X89106666Y-44182380D02*
X89725714Y-44182380D01*
X89392380Y-44563333D01*
X89535238Y-44563333D01*
X89630476Y-44610952D01*
X89678095Y-44658571D01*
X89725714Y-44753809D01*
X89725714Y-44991904D01*
X89678095Y-45087142D01*
X89630476Y-45134761D01*
X89535238Y-45182380D01*
X89249523Y-45182380D01*
X89154285Y-45134761D01*
X89106666Y-45087142D01*
X94535952Y-46452380D02*
X93964523Y-46452380D01*
X94250238Y-46452380D02*
X94250238Y-45452380D01*
X94155000Y-45595238D01*
X94059761Y-45690476D01*
X93964523Y-45738095D01*
X94964523Y-46452380D02*
X94964523Y-45452380D01*
X95059761Y-46071428D02*
X95345476Y-46452380D01*
X95345476Y-45785714D02*
X94964523Y-46166666D01*
%TO.C,R1*%
X97548333Y-41287380D02*
X97215000Y-40811190D01*
X96976904Y-41287380D02*
X96976904Y-40287380D01*
X97357857Y-40287380D01*
X97453095Y-40335000D01*
X97500714Y-40382619D01*
X97548333Y-40477857D01*
X97548333Y-40620714D01*
X97500714Y-40715952D01*
X97453095Y-40763571D01*
X97357857Y-40811190D01*
X96976904Y-40811190D01*
X98500714Y-41287380D02*
X97929285Y-41287380D01*
X98215000Y-41287380D02*
X98215000Y-40287380D01*
X98119761Y-40430238D01*
X98024523Y-40525476D01*
X97929285Y-40573095D01*
X94801952Y-39763380D02*
X94230523Y-39763380D01*
X94516238Y-39763380D02*
X94516238Y-38763380D01*
X94421000Y-38906238D01*
X94325761Y-39001476D01*
X94230523Y-39049095D01*
X95230523Y-39763380D02*
X95230523Y-38763380D01*
X95325761Y-39382428D02*
X95611476Y-39763380D01*
X95611476Y-39096714D02*
X95230523Y-39477666D01*
%TO.C,J2*%
X60046666Y-90812380D02*
X60046666Y-91526666D01*
X59999047Y-91669523D01*
X59903809Y-91764761D01*
X59760952Y-91812380D01*
X59665714Y-91812380D01*
X60475238Y-90907619D02*
X60522857Y-90860000D01*
X60618095Y-90812380D01*
X60856190Y-90812380D01*
X60951428Y-90860000D01*
X60999047Y-90907619D01*
X61046666Y-91002857D01*
X61046666Y-91098095D01*
X60999047Y-91240952D01*
X60427619Y-91812380D01*
X61046666Y-91812380D01*
X63555714Y-91812380D02*
X63222380Y-91336190D01*
X62984285Y-91812380D02*
X62984285Y-90812380D01*
X63365238Y-90812380D01*
X63460476Y-90860000D01*
X63508095Y-90907619D01*
X63555714Y-91002857D01*
X63555714Y-91145714D01*
X63508095Y-91240952D01*
X63460476Y-91288571D01*
X63365238Y-91336190D01*
X62984285Y-91336190D01*
X64412857Y-91812380D02*
X64412857Y-91288571D01*
X64365238Y-91193333D01*
X64270000Y-91145714D01*
X64079523Y-91145714D01*
X63984285Y-91193333D01*
X64412857Y-91764761D02*
X64317619Y-91812380D01*
X64079523Y-91812380D01*
X63984285Y-91764761D01*
X63936666Y-91669523D01*
X63936666Y-91574285D01*
X63984285Y-91479047D01*
X64079523Y-91431428D01*
X64317619Y-91431428D01*
X64412857Y-91383809D01*
X64841428Y-91764761D02*
X64936666Y-91812380D01*
X65127142Y-91812380D01*
X65222380Y-91764761D01*
X65270000Y-91669523D01*
X65270000Y-91621904D01*
X65222380Y-91526666D01*
X65127142Y-91479047D01*
X64984285Y-91479047D01*
X64889047Y-91431428D01*
X64841428Y-91336190D01*
X64841428Y-91288571D01*
X64889047Y-91193333D01*
X64984285Y-91145714D01*
X65127142Y-91145714D01*
X65222380Y-91193333D01*
X65698571Y-91145714D02*
X65698571Y-92145714D01*
X65698571Y-91193333D02*
X65793809Y-91145714D01*
X65984285Y-91145714D01*
X66079523Y-91193333D01*
X66127142Y-91240952D01*
X66174761Y-91336190D01*
X66174761Y-91621904D01*
X66127142Y-91717142D01*
X66079523Y-91764761D01*
X65984285Y-91812380D01*
X65793809Y-91812380D01*
X65698571Y-91764761D01*
X66603333Y-91812380D02*
X66603333Y-90812380D01*
X66603333Y-91193333D02*
X66698571Y-91145714D01*
X66889047Y-91145714D01*
X66984285Y-91193333D01*
X67031904Y-91240952D01*
X67079523Y-91336190D01*
X67079523Y-91621904D01*
X67031904Y-91717142D01*
X66984285Y-91764761D01*
X66889047Y-91812380D01*
X66698571Y-91812380D01*
X66603333Y-91764761D01*
X67889047Y-91764761D02*
X67793809Y-91812380D01*
X67603333Y-91812380D01*
X67508095Y-91764761D01*
X67460476Y-91669523D01*
X67460476Y-91288571D01*
X67508095Y-91193333D01*
X67603333Y-91145714D01*
X67793809Y-91145714D01*
X67889047Y-91193333D01*
X67936666Y-91288571D01*
X67936666Y-91383809D01*
X67460476Y-91479047D01*
X68365238Y-91812380D02*
X68365238Y-91145714D01*
X68365238Y-91336190D02*
X68412857Y-91240952D01*
X68460476Y-91193333D01*
X68555714Y-91145714D01*
X68650952Y-91145714D01*
X68984285Y-91812380D02*
X68984285Y-91145714D01*
X68984285Y-91336190D02*
X69031904Y-91240952D01*
X69079523Y-91193333D01*
X69174761Y-91145714D01*
X69270000Y-91145714D01*
X69508095Y-91145714D02*
X69746190Y-91812380D01*
X69984285Y-91145714D02*
X69746190Y-91812380D01*
X69650952Y-92050476D01*
X69603333Y-92098095D01*
X69508095Y-92145714D01*
X70127142Y-91907619D02*
X70889047Y-91907619D01*
X71127142Y-91812380D02*
X71127142Y-90812380D01*
X71508095Y-90812380D01*
X71603333Y-90860000D01*
X71650952Y-90907619D01*
X71698571Y-91002857D01*
X71698571Y-91145714D01*
X71650952Y-91240952D01*
X71603333Y-91288571D01*
X71508095Y-91336190D01*
X71127142Y-91336190D01*
X72127142Y-91812380D02*
X72127142Y-91145714D01*
X72127142Y-90812380D02*
X72079523Y-90860000D01*
X72127142Y-90907619D01*
X72174761Y-90860000D01*
X72127142Y-90812380D01*
X72127142Y-90907619D01*
X72365238Y-91907619D02*
X73127142Y-91907619D01*
X73317619Y-90907619D02*
X73365238Y-90860000D01*
X73460476Y-90812380D01*
X73698571Y-90812380D01*
X73793809Y-90860000D01*
X73841428Y-90907619D01*
X73889047Y-91002857D01*
X73889047Y-91098095D01*
X73841428Y-91240952D01*
X73270000Y-91812380D01*
X73889047Y-91812380D01*
X74079523Y-91907619D02*
X74841428Y-91907619D01*
X74984285Y-90812380D02*
X75603333Y-90812380D01*
X75270000Y-91193333D01*
X75412857Y-91193333D01*
X75508095Y-91240952D01*
X75555714Y-91288571D01*
X75603333Y-91383809D01*
X75603333Y-91621904D01*
X75555714Y-91717142D01*
X75508095Y-91764761D01*
X75412857Y-91812380D01*
X75127142Y-91812380D01*
X75031904Y-91764761D01*
X74984285Y-91717142D01*
%TO.C,C3*%
X96278333Y-24047142D02*
X96230714Y-24094761D01*
X96087857Y-24142380D01*
X95992619Y-24142380D01*
X95849761Y-24094761D01*
X95754523Y-23999523D01*
X95706904Y-23904285D01*
X95659285Y-23713809D01*
X95659285Y-23570952D01*
X95706904Y-23380476D01*
X95754523Y-23285238D01*
X95849761Y-23190000D01*
X95992619Y-23142380D01*
X96087857Y-23142380D01*
X96230714Y-23190000D01*
X96278333Y-23237619D01*
X96611666Y-23142380D02*
X97230714Y-23142380D01*
X96897380Y-23523333D01*
X97040238Y-23523333D01*
X97135476Y-23570952D01*
X97183095Y-23618571D01*
X97230714Y-23713809D01*
X97230714Y-23951904D01*
X97183095Y-24047142D01*
X97135476Y-24094761D01*
X97040238Y-24142380D01*
X96754523Y-24142380D01*
X96659285Y-24094761D01*
X96611666Y-24047142D01*
X101517142Y-30492380D02*
X100945714Y-30492380D01*
X101231428Y-30492380D02*
X101231428Y-29492380D01*
X101136190Y-29635238D01*
X101040952Y-29730476D01*
X100945714Y-29778095D01*
X102136190Y-29492380D02*
X102231428Y-29492380D01*
X102326666Y-29540000D01*
X102374285Y-29587619D01*
X102421904Y-29682857D01*
X102469523Y-29873333D01*
X102469523Y-30111428D01*
X102421904Y-30301904D01*
X102374285Y-30397142D01*
X102326666Y-30444761D01*
X102231428Y-30492380D01*
X102136190Y-30492380D01*
X102040952Y-30444761D01*
X101993333Y-30397142D01*
X101945714Y-30301904D01*
X101898095Y-30111428D01*
X101898095Y-29873333D01*
X101945714Y-29682857D01*
X101993333Y-29587619D01*
X102040952Y-29540000D01*
X102136190Y-29492380D01*
X103326666Y-29825714D02*
X103326666Y-30492380D01*
X102898095Y-29825714D02*
X102898095Y-30349523D01*
X102945714Y-30444761D01*
X103040952Y-30492380D01*
X103183809Y-30492380D01*
X103279047Y-30444761D01*
X103326666Y-30397142D01*
%TO.C,C1*%
X101398333Y-36747142D02*
X101350714Y-36794761D01*
X101207857Y-36842380D01*
X101112619Y-36842380D01*
X100969761Y-36794761D01*
X100874523Y-36699523D01*
X100826904Y-36604285D01*
X100779285Y-36413809D01*
X100779285Y-36270952D01*
X100826904Y-36080476D01*
X100874523Y-35985238D01*
X100969761Y-35890000D01*
X101112619Y-35842380D01*
X101207857Y-35842380D01*
X101350714Y-35890000D01*
X101398333Y-35937619D01*
X102350714Y-36842380D02*
X101779285Y-36842380D01*
X102065000Y-36842380D02*
X102065000Y-35842380D01*
X101969761Y-35985238D01*
X101874523Y-36080476D01*
X101779285Y-36128095D01*
X100405952Y-34302380D02*
X99834523Y-34302380D01*
X100120238Y-34302380D02*
X100120238Y-33302380D01*
X100025000Y-33445238D01*
X99929761Y-33540476D01*
X99834523Y-33588095D01*
X101025000Y-33302380D02*
X101120238Y-33302380D01*
X101215476Y-33350000D01*
X101263095Y-33397619D01*
X101310714Y-33492857D01*
X101358333Y-33683333D01*
X101358333Y-33921428D01*
X101310714Y-34111904D01*
X101263095Y-34207142D01*
X101215476Y-34254761D01*
X101120238Y-34302380D01*
X101025000Y-34302380D01*
X100929761Y-34254761D01*
X100882142Y-34207142D01*
X100834523Y-34111904D01*
X100786904Y-33921428D01*
X100786904Y-33683333D01*
X100834523Y-33492857D01*
X100882142Y-33397619D01*
X100929761Y-33350000D01*
X101025000Y-33302380D01*
X101977380Y-33302380D02*
X102072619Y-33302380D01*
X102167857Y-33350000D01*
X102215476Y-33397619D01*
X102263095Y-33492857D01*
X102310714Y-33683333D01*
X102310714Y-33921428D01*
X102263095Y-34111904D01*
X102215476Y-34207142D01*
X102167857Y-34254761D01*
X102072619Y-34302380D01*
X101977380Y-34302380D01*
X101882142Y-34254761D01*
X101834523Y-34207142D01*
X101786904Y-34111904D01*
X101739285Y-33921428D01*
X101739285Y-33683333D01*
X101786904Y-33492857D01*
X101834523Y-33397619D01*
X101882142Y-33350000D01*
X101977380Y-33302380D01*
X102739285Y-33635714D02*
X102739285Y-34302380D01*
X102739285Y-33730952D02*
X102786904Y-33683333D01*
X102882142Y-33635714D01*
X103025000Y-33635714D01*
X103120238Y-33683333D01*
X103167857Y-33778571D01*
X103167857Y-34302380D01*
%TO.C,A1*%
D17*
X110338714Y-49616666D02*
X110814904Y-49616666D01*
X110243476Y-49902380D02*
X110576809Y-48902380D01*
X110910142Y-49902380D01*
X111767285Y-49902380D02*
X111195857Y-49902380D01*
X111481571Y-49902380D02*
X111481571Y-48902380D01*
X111386333Y-49045238D01*
X111291095Y-49140476D01*
X111195857Y-49188095D01*
X100243238Y-46991666D02*
X100719428Y-46991666D01*
X100148000Y-47277380D02*
X100481333Y-46277380D01*
X100814666Y-47277380D01*
X101719428Y-47277380D02*
X101386095Y-46801190D01*
X101148000Y-47277380D02*
X101148000Y-46277380D01*
X101528952Y-46277380D01*
X101624190Y-46325000D01*
X101671809Y-46372619D01*
X101719428Y-46467857D01*
X101719428Y-46610714D01*
X101671809Y-46705952D01*
X101624190Y-46753571D01*
X101528952Y-46801190D01*
X101148000Y-46801190D01*
X102148000Y-47277380D02*
X102148000Y-46277380D01*
X102386095Y-46277380D01*
X102528952Y-46325000D01*
X102624190Y-46420238D01*
X102671809Y-46515476D01*
X102719428Y-46705952D01*
X102719428Y-46848809D01*
X102671809Y-47039285D01*
X102624190Y-47134523D01*
X102528952Y-47229761D01*
X102386095Y-47277380D01*
X102148000Y-47277380D01*
X103148000Y-46277380D02*
X103148000Y-47086904D01*
X103195619Y-47182142D01*
X103243238Y-47229761D01*
X103338476Y-47277380D01*
X103528952Y-47277380D01*
X103624190Y-47229761D01*
X103671809Y-47182142D01*
X103719428Y-47086904D01*
X103719428Y-46277380D01*
X104195619Y-47277380D02*
X104195619Y-46277380D01*
X104671809Y-47277380D02*
X104671809Y-46277380D01*
X105243238Y-47277380D01*
X105243238Y-46277380D01*
X105909904Y-46277380D02*
X106100380Y-46277380D01*
X106195619Y-46325000D01*
X106290857Y-46420238D01*
X106338476Y-46610714D01*
X106338476Y-46944047D01*
X106290857Y-47134523D01*
X106195619Y-47229761D01*
X106100380Y-47277380D01*
X105909904Y-47277380D01*
X105814666Y-47229761D01*
X105719428Y-47134523D01*
X105671809Y-46944047D01*
X105671809Y-46610714D01*
X105719428Y-46420238D01*
X105814666Y-46325000D01*
X105909904Y-46277380D01*
X106528952Y-47372619D02*
X107290857Y-47372619D01*
X107528952Y-47277380D02*
X107528952Y-46277380D01*
X107909904Y-46277380D01*
X108005142Y-46325000D01*
X108052761Y-46372619D01*
X108100380Y-46467857D01*
X108100380Y-46610714D01*
X108052761Y-46705952D01*
X108005142Y-46753571D01*
X107909904Y-46801190D01*
X107528952Y-46801190D01*
X109100380Y-47277380D02*
X108767047Y-46801190D01*
X108528952Y-47277380D02*
X108528952Y-46277380D01*
X108909904Y-46277380D01*
X109005142Y-46325000D01*
X109052761Y-46372619D01*
X109100380Y-46467857D01*
X109100380Y-46610714D01*
X109052761Y-46705952D01*
X109005142Y-46753571D01*
X108909904Y-46801190D01*
X108528952Y-46801190D01*
X109719428Y-46277380D02*
X109909904Y-46277380D01*
X110005142Y-46325000D01*
X110100380Y-46420238D01*
X110148000Y-46610714D01*
X110148000Y-46944047D01*
X110100380Y-47134523D01*
X110005142Y-47229761D01*
X109909904Y-47277380D01*
X109719428Y-47277380D01*
X109624190Y-47229761D01*
X109528952Y-47134523D01*
X109481333Y-46944047D01*
X109481333Y-46610714D01*
X109528952Y-46420238D01*
X109624190Y-46325000D01*
X109719428Y-46277380D01*
X110338476Y-47372619D02*
X111100380Y-47372619D01*
X111338476Y-47277380D02*
X111338476Y-46277380D01*
X111671809Y-46991666D01*
X112005142Y-46277380D01*
X112005142Y-47277380D01*
X112481333Y-47277380D02*
X112481333Y-46277380D01*
X112957523Y-47277380D02*
X112957523Y-46277380D01*
X113528952Y-47277380D01*
X113528952Y-46277380D01*
X114005142Y-47277380D02*
X114005142Y-46277380D01*
X114243238Y-47372619D02*
X115005142Y-47372619D01*
X115148000Y-46277380D02*
X115767047Y-46277380D01*
X115433714Y-46658333D01*
X115576571Y-46658333D01*
X115671809Y-46705952D01*
X115719428Y-46753571D01*
X115767047Y-46848809D01*
X115767047Y-47086904D01*
X115719428Y-47182142D01*
X115671809Y-47229761D01*
X115576571Y-47277380D01*
X115290857Y-47277380D01*
X115195619Y-47229761D01*
X115148000Y-47182142D01*
X116195619Y-47182142D02*
X116243238Y-47229761D01*
X116195619Y-47277380D01*
X116148000Y-47229761D01*
X116195619Y-47182142D01*
X116195619Y-47277380D01*
X116576571Y-46277380D02*
X117195619Y-46277380D01*
X116862285Y-46658333D01*
X117005142Y-46658333D01*
X117100380Y-46705952D01*
X117148000Y-46753571D01*
X117195619Y-46848809D01*
X117195619Y-47086904D01*
X117148000Y-47182142D01*
X117100380Y-47229761D01*
X117005142Y-47277380D01*
X116719428Y-47277380D01*
X116624190Y-47229761D01*
X116576571Y-47182142D01*
X117481333Y-46277380D02*
X117814666Y-47277380D01*
X118148000Y-46277380D01*
%TO.C,JP1*%
D13*
X111264380Y-42176333D02*
X111978666Y-42176333D01*
X112121523Y-42223952D01*
X112216761Y-42319190D01*
X112264380Y-42462047D01*
X112264380Y-42557285D01*
X112264380Y-41700142D02*
X111264380Y-41700142D01*
X111264380Y-41319190D01*
X111312000Y-41223952D01*
X111359619Y-41176333D01*
X111454857Y-41128714D01*
X111597714Y-41128714D01*
X111692952Y-41176333D01*
X111740571Y-41223952D01*
X111788190Y-41319190D01*
X111788190Y-41700142D01*
X112264380Y-40176333D02*
X112264380Y-40747761D01*
X112264380Y-40462047D02*
X111264380Y-40462047D01*
X111407238Y-40557285D01*
X111502476Y-40652523D01*
X111550095Y-40747761D01*
X111359571Y-61694523D02*
X111407190Y-61551666D01*
X111454809Y-61504047D01*
X111550047Y-61456428D01*
X111692904Y-61456428D01*
X111788142Y-61504047D01*
X111835761Y-61551666D01*
X111883380Y-61646904D01*
X111883380Y-62027857D01*
X110883380Y-62027857D01*
X110883380Y-61694523D01*
X110931000Y-61599285D01*
X110978619Y-61551666D01*
X111073857Y-61504047D01*
X111169095Y-61504047D01*
X111264333Y-61551666D01*
X111311952Y-61599285D01*
X111359571Y-61694523D01*
X111359571Y-62027857D01*
X111883380Y-61027857D02*
X111216714Y-61027857D01*
X111407190Y-61027857D02*
X111311952Y-60980238D01*
X111264333Y-60932619D01*
X111216714Y-60837380D01*
X111216714Y-60742142D01*
X111883380Y-60408809D02*
X111216714Y-60408809D01*
X110883380Y-60408809D02*
X110931000Y-60456428D01*
X110978619Y-60408809D01*
X110931000Y-60361190D01*
X110883380Y-60408809D01*
X110978619Y-60408809D01*
X111883380Y-59504047D02*
X110883380Y-59504047D01*
X111835761Y-59504047D02*
X111883380Y-59599285D01*
X111883380Y-59789761D01*
X111835761Y-59885000D01*
X111788142Y-59932619D01*
X111692904Y-59980238D01*
X111407190Y-59980238D01*
X111311952Y-59932619D01*
X111264333Y-59885000D01*
X111216714Y-59789761D01*
X111216714Y-59599285D01*
X111264333Y-59504047D01*
X111216714Y-58599285D02*
X112026238Y-58599285D01*
X112121476Y-58646904D01*
X112169095Y-58694523D01*
X112216714Y-58789761D01*
X112216714Y-58932619D01*
X112169095Y-59027857D01*
X111835761Y-58599285D02*
X111883380Y-58694523D01*
X111883380Y-58885000D01*
X111835761Y-58980238D01*
X111788142Y-59027857D01*
X111692904Y-59075476D01*
X111407190Y-59075476D01*
X111311952Y-59027857D01*
X111264333Y-58980238D01*
X111216714Y-58885000D01*
X111216714Y-58694523D01*
X111264333Y-58599285D01*
X111835761Y-57742142D02*
X111883380Y-57837380D01*
X111883380Y-58027857D01*
X111835761Y-58123095D01*
X111740523Y-58170714D01*
X111359571Y-58170714D01*
X111264333Y-58123095D01*
X111216714Y-58027857D01*
X111216714Y-57837380D01*
X111264333Y-57742142D01*
X111359571Y-57694523D01*
X111454809Y-57694523D01*
X111550047Y-58170714D01*
%TO.C,JP2*%
X108597380Y-42430333D02*
X109311666Y-42430333D01*
X109454523Y-42477952D01*
X109549761Y-42573190D01*
X109597380Y-42716047D01*
X109597380Y-42811285D01*
X109597380Y-41954142D02*
X108597380Y-41954142D01*
X108597380Y-41573190D01*
X108645000Y-41477952D01*
X108692619Y-41430333D01*
X108787857Y-41382714D01*
X108930714Y-41382714D01*
X109025952Y-41430333D01*
X109073571Y-41477952D01*
X109121190Y-41573190D01*
X109121190Y-41954142D01*
X108692619Y-41001761D02*
X108645000Y-40954142D01*
X108597380Y-40858904D01*
X108597380Y-40620809D01*
X108645000Y-40525571D01*
X108692619Y-40477952D01*
X108787857Y-40430333D01*
X108883095Y-40430333D01*
X109025952Y-40477952D01*
X109597380Y-41049380D01*
X109597380Y-40430333D01*
X108692571Y-61948523D02*
X108740190Y-61805666D01*
X108787809Y-61758047D01*
X108883047Y-61710428D01*
X109025904Y-61710428D01*
X109121142Y-61758047D01*
X109168761Y-61805666D01*
X109216380Y-61900904D01*
X109216380Y-62281857D01*
X108216380Y-62281857D01*
X108216380Y-61948523D01*
X108264000Y-61853285D01*
X108311619Y-61805666D01*
X108406857Y-61758047D01*
X108502095Y-61758047D01*
X108597333Y-61805666D01*
X108644952Y-61853285D01*
X108692571Y-61948523D01*
X108692571Y-62281857D01*
X109216380Y-61281857D02*
X108549714Y-61281857D01*
X108740190Y-61281857D02*
X108644952Y-61234238D01*
X108597333Y-61186619D01*
X108549714Y-61091380D01*
X108549714Y-60996142D01*
X109216380Y-60662809D02*
X108549714Y-60662809D01*
X108216380Y-60662809D02*
X108264000Y-60710428D01*
X108311619Y-60662809D01*
X108264000Y-60615190D01*
X108216380Y-60662809D01*
X108311619Y-60662809D01*
X109216380Y-59758047D02*
X108216380Y-59758047D01*
X109168761Y-59758047D02*
X109216380Y-59853285D01*
X109216380Y-60043761D01*
X109168761Y-60139000D01*
X109121142Y-60186619D01*
X109025904Y-60234238D01*
X108740190Y-60234238D01*
X108644952Y-60186619D01*
X108597333Y-60139000D01*
X108549714Y-60043761D01*
X108549714Y-59853285D01*
X108597333Y-59758047D01*
X108549714Y-58853285D02*
X109359238Y-58853285D01*
X109454476Y-58900904D01*
X109502095Y-58948523D01*
X109549714Y-59043761D01*
X109549714Y-59186619D01*
X109502095Y-59281857D01*
X109168761Y-58853285D02*
X109216380Y-58948523D01*
X109216380Y-59139000D01*
X109168761Y-59234238D01*
X109121142Y-59281857D01*
X109025904Y-59329476D01*
X108740190Y-59329476D01*
X108644952Y-59281857D01*
X108597333Y-59234238D01*
X108549714Y-59139000D01*
X108549714Y-58948523D01*
X108597333Y-58853285D01*
X109168761Y-57996142D02*
X109216380Y-58091380D01*
X109216380Y-58281857D01*
X109168761Y-58377095D01*
X109073523Y-58424714D01*
X108692571Y-58424714D01*
X108597333Y-58377095D01*
X108549714Y-58281857D01*
X108549714Y-58091380D01*
X108597333Y-57996142D01*
X108692571Y-57948523D01*
X108787809Y-57948523D01*
X108883047Y-58424714D01*
%TD*%
M02*
