%TF.GenerationSoftware,KiCad,Pcbnew,(5.1.9)-1*%
%TF.CreationDate,2021-08-15T20:10:53+12:00*%
%TF.ProjectId,PyPilot_Main,50795069-6c6f-4745-9f4d-61696e2e6b69,rev?*%
%TF.SameCoordinates,Original*%
%TF.FileFunction,Legend,Bot*%
%TF.FilePolarity,Positive*%
%FSLAX46Y46*%
G04 Gerber Fmt 4.6, Leading zero omitted, Abs format (unit mm)*
G04 Created by KiCad (PCBNEW (5.1.9)-1) date 2021-08-15 20:10:53*
%MOMM*%
%LPD*%
G01*
G04 APERTURE LIST*
%ADD10C,0.150000*%
%ADD11C,0.200000*%
G04 APERTURE END LIST*
D10*
X42938428Y-24380619D02*
X42738428Y-24856809D01*
X42595571Y-24380619D02*
X42595571Y-25380619D01*
X42824142Y-25380619D01*
X42881285Y-25333000D01*
X42909857Y-25285380D01*
X42938428Y-25190142D01*
X42938428Y-25047285D01*
X42909857Y-24952047D01*
X42881285Y-24904428D01*
X42824142Y-24856809D01*
X42595571Y-24856809D01*
X43167000Y-24666333D02*
X43452714Y-24666333D01*
X43109857Y-24380619D02*
X43309857Y-25380619D01*
X43509857Y-24380619D01*
X43567000Y-24285380D02*
X44024142Y-24285380D01*
X44138428Y-24666333D02*
X44424142Y-24666333D01*
X44081285Y-24380619D02*
X44281285Y-25380619D01*
X44481285Y-24380619D01*
X44681285Y-24761571D02*
X45138428Y-24761571D01*
X44909857Y-24380619D02*
X44909857Y-25142523D01*
X67020857Y-24380619D02*
X67020857Y-25380619D01*
X67220857Y-24666333D01*
X67420857Y-25380619D01*
X67420857Y-24380619D01*
X68049428Y-24475857D02*
X68020857Y-24428238D01*
X67935142Y-24380619D01*
X67878000Y-24380619D01*
X67792285Y-24428238D01*
X67735142Y-24523476D01*
X67706571Y-24618714D01*
X67678000Y-24809190D01*
X67678000Y-24952047D01*
X67706571Y-25142523D01*
X67735142Y-25237761D01*
X67792285Y-25333000D01*
X67878000Y-25380619D01*
X67935142Y-25380619D01*
X68020857Y-25333000D01*
X68049428Y-25285380D01*
X68163714Y-24285380D02*
X68620857Y-24285380D01*
X68878000Y-24856809D02*
X68878000Y-24380619D01*
X68678000Y-25380619D02*
X68878000Y-24856809D01*
X69078000Y-25380619D01*
X69278000Y-24761571D02*
X69735142Y-24761571D01*
X69506571Y-24380619D02*
X69506571Y-25142523D01*
X63563285Y-24380619D02*
X63563285Y-25380619D01*
X63763285Y-24666333D01*
X63963285Y-25380619D01*
X63963285Y-24380619D01*
X64591857Y-24475857D02*
X64563285Y-24428238D01*
X64477571Y-24380619D01*
X64420428Y-24380619D01*
X64334714Y-24428238D01*
X64277571Y-24523476D01*
X64249000Y-24618714D01*
X64220428Y-24809190D01*
X64220428Y-24952047D01*
X64249000Y-25142523D01*
X64277571Y-25237761D01*
X64334714Y-25333000D01*
X64420428Y-25380619D01*
X64477571Y-25380619D01*
X64563285Y-25333000D01*
X64591857Y-25285380D01*
X64706142Y-24285380D02*
X65163285Y-24285380D01*
X65249000Y-25380619D02*
X65649000Y-25380619D01*
X65249000Y-24380619D01*
X65649000Y-24380619D01*
X65877571Y-24761571D02*
X66334714Y-24761571D01*
X60120000Y-24380619D02*
X60120000Y-25380619D01*
X60320000Y-24666333D01*
X60520000Y-25380619D01*
X60520000Y-24380619D01*
X61148571Y-24475857D02*
X61120000Y-24428238D01*
X61034285Y-24380619D01*
X60977142Y-24380619D01*
X60891428Y-24428238D01*
X60834285Y-24523476D01*
X60805714Y-24618714D01*
X60777142Y-24809190D01*
X60777142Y-24952047D01*
X60805714Y-25142523D01*
X60834285Y-25237761D01*
X60891428Y-25333000D01*
X60977142Y-25380619D01*
X61034285Y-25380619D01*
X61120000Y-25333000D01*
X61148571Y-25285380D01*
X61262857Y-24285380D02*
X61720000Y-24285380D01*
X62062857Y-24904428D02*
X62148571Y-24856809D01*
X62177142Y-24809190D01*
X62205714Y-24713952D01*
X62205714Y-24571095D01*
X62177142Y-24475857D01*
X62148571Y-24428238D01*
X62091428Y-24380619D01*
X61862857Y-24380619D01*
X61862857Y-25380619D01*
X62062857Y-25380619D01*
X62120000Y-25333000D01*
X62148571Y-25285380D01*
X62177142Y-25190142D01*
X62177142Y-25094904D01*
X62148571Y-24999666D01*
X62120000Y-24952047D01*
X62062857Y-24904428D01*
X61862857Y-24904428D01*
X62462857Y-24761571D02*
X62920000Y-24761571D01*
X50275857Y-24380619D02*
X50075857Y-24856809D01*
X49933000Y-24380619D02*
X49933000Y-25380619D01*
X50161571Y-25380619D01*
X50218714Y-25333000D01*
X50247285Y-25285380D01*
X50275857Y-25190142D01*
X50275857Y-25047285D01*
X50247285Y-24952047D01*
X50218714Y-24904428D01*
X50161571Y-24856809D01*
X49933000Y-24856809D01*
X50504428Y-24666333D02*
X50790142Y-24666333D01*
X50447285Y-24380619D02*
X50647285Y-25380619D01*
X50847285Y-24380619D01*
X50904428Y-24285380D02*
X51361571Y-24285380D01*
X51447285Y-25380619D02*
X51847285Y-25380619D01*
X51447285Y-24380619D01*
X51847285Y-24380619D01*
X52075857Y-24761571D02*
X52533000Y-24761571D01*
D11*
X72061095Y-25333000D02*
X71965857Y-25380619D01*
X71823000Y-25380619D01*
X71680142Y-25333000D01*
X71584904Y-25237761D01*
X71537285Y-25142523D01*
X71489666Y-24952047D01*
X71489666Y-24809190D01*
X71537285Y-24618714D01*
X71584904Y-24523476D01*
X71680142Y-24428238D01*
X71823000Y-24380619D01*
X71918238Y-24380619D01*
X72061095Y-24428238D01*
X72108714Y-24475857D01*
X72108714Y-24809190D01*
X71918238Y-24809190D01*
X72537285Y-24380619D02*
X72537285Y-25380619D01*
X73108714Y-24380619D01*
X73108714Y-25380619D01*
X73584904Y-24380619D02*
X73584904Y-25380619D01*
X73823000Y-25380619D01*
X73965857Y-25333000D01*
X74061095Y-25237761D01*
X74108714Y-25142523D01*
X74156333Y-24952047D01*
X74156333Y-24809190D01*
X74108714Y-24618714D01*
X74061095Y-24523476D01*
X73965857Y-24428238D01*
X73823000Y-24380619D01*
X73584904Y-24380619D01*
D10*
X53606428Y-24380619D02*
X53406428Y-24856809D01*
X53263571Y-24380619D02*
X53263571Y-25380619D01*
X53492142Y-25380619D01*
X53549285Y-25333000D01*
X53577857Y-25285380D01*
X53606428Y-25190142D01*
X53606428Y-25047285D01*
X53577857Y-24952047D01*
X53549285Y-24904428D01*
X53492142Y-24856809D01*
X53263571Y-24856809D01*
X53835000Y-24666333D02*
X54120714Y-24666333D01*
X53777857Y-24380619D02*
X53977857Y-25380619D01*
X54177857Y-24380619D01*
X54235000Y-24285380D02*
X54692142Y-24285380D01*
X54949285Y-24856809D02*
X54949285Y-24380619D01*
X54749285Y-25380619D02*
X54949285Y-24856809D01*
X55149285Y-25380619D01*
X55349285Y-24761571D02*
X55806428Y-24761571D01*
X55577857Y-24380619D02*
X55577857Y-25142523D01*
X56606857Y-24380619D02*
X56606857Y-25380619D01*
X56806857Y-24666333D01*
X57006857Y-25380619D01*
X57006857Y-24380619D01*
X57635428Y-24475857D02*
X57606857Y-24428238D01*
X57521142Y-24380619D01*
X57464000Y-24380619D01*
X57378285Y-24428238D01*
X57321142Y-24523476D01*
X57292571Y-24618714D01*
X57264000Y-24809190D01*
X57264000Y-24952047D01*
X57292571Y-25142523D01*
X57321142Y-25237761D01*
X57378285Y-25333000D01*
X57464000Y-25380619D01*
X57521142Y-25380619D01*
X57606857Y-25333000D01*
X57635428Y-25285380D01*
X57749714Y-24285380D02*
X58206857Y-24285380D01*
X58321142Y-24666333D02*
X58606857Y-24666333D01*
X58264000Y-24380619D02*
X58464000Y-25380619D01*
X58664000Y-24380619D01*
X58864000Y-24761571D02*
X59321142Y-24761571D01*
X59092571Y-24380619D02*
X59092571Y-25142523D01*
D11*
X78522285Y-24888571D02*
X79284190Y-24888571D01*
X78903238Y-24507619D02*
X78903238Y-25269523D01*
X80236571Y-25507619D02*
X79760380Y-25507619D01*
X79712761Y-25031428D01*
X79760380Y-25079047D01*
X79855619Y-25126666D01*
X80093714Y-25126666D01*
X80188952Y-25079047D01*
X80236571Y-25031428D01*
X80284190Y-24936190D01*
X80284190Y-24698095D01*
X80236571Y-24602857D01*
X80188952Y-24555238D01*
X80093714Y-24507619D01*
X79855619Y-24507619D01*
X79760380Y-24555238D01*
X79712761Y-24602857D01*
X80569904Y-25507619D02*
X80903238Y-24507619D01*
X81236571Y-25507619D01*
X75744095Y-25333000D02*
X75648857Y-25380619D01*
X75506000Y-25380619D01*
X75363142Y-25333000D01*
X75267904Y-25237761D01*
X75220285Y-25142523D01*
X75172666Y-24952047D01*
X75172666Y-24809190D01*
X75220285Y-24618714D01*
X75267904Y-24523476D01*
X75363142Y-24428238D01*
X75506000Y-24380619D01*
X75601238Y-24380619D01*
X75744095Y-24428238D01*
X75791714Y-24475857D01*
X75791714Y-24809190D01*
X75601238Y-24809190D01*
X76220285Y-24380619D02*
X76220285Y-25380619D01*
X76791714Y-24380619D01*
X76791714Y-25380619D01*
X77267904Y-24380619D02*
X77267904Y-25380619D01*
X77506000Y-25380619D01*
X77648857Y-25333000D01*
X77744095Y-25237761D01*
X77791714Y-25142523D01*
X77839333Y-24952047D01*
X77839333Y-24809190D01*
X77791714Y-24618714D01*
X77744095Y-24523476D01*
X77648857Y-24428238D01*
X77506000Y-24380619D01*
X77267904Y-24380619D01*
D10*
X46705571Y-24380619D02*
X46505571Y-24856809D01*
X46362714Y-24380619D02*
X46362714Y-25380619D01*
X46591285Y-25380619D01*
X46648428Y-25333000D01*
X46677000Y-25285380D01*
X46705571Y-25190142D01*
X46705571Y-25047285D01*
X46677000Y-24952047D01*
X46648428Y-24904428D01*
X46591285Y-24856809D01*
X46362714Y-24856809D01*
X46934142Y-24666333D02*
X47219857Y-24666333D01*
X46877000Y-24380619D02*
X47077000Y-25380619D01*
X47277000Y-24380619D01*
X47334142Y-24285380D02*
X47791285Y-24285380D01*
X48134142Y-24904428D02*
X48219857Y-24856809D01*
X48248428Y-24809190D01*
X48277000Y-24713952D01*
X48277000Y-24571095D01*
X48248428Y-24475857D01*
X48219857Y-24428238D01*
X48162714Y-24380619D01*
X47934142Y-24380619D01*
X47934142Y-25380619D01*
X48134142Y-25380619D01*
X48191285Y-25333000D01*
X48219857Y-25285380D01*
X48248428Y-25190142D01*
X48248428Y-25094904D01*
X48219857Y-24999666D01*
X48191285Y-24952047D01*
X48134142Y-24904428D01*
X47934142Y-24904428D01*
X48534142Y-24761571D02*
X48991285Y-24761571D01*
%TO.C,J1*%
X82268666Y-27793619D02*
X82268666Y-27079333D01*
X82221047Y-26936476D01*
X82125809Y-26841238D01*
X81982952Y-26793619D01*
X81887714Y-26793619D01*
X83268666Y-26793619D02*
X82697238Y-26793619D01*
X82982952Y-26793619D02*
X82982952Y-27793619D01*
X82887714Y-27650761D01*
X82792476Y-27555523D01*
X82697238Y-27507904D01*
X74101285Y-30841619D02*
X73625095Y-30841619D01*
X73577476Y-30365428D01*
X73625095Y-30413047D01*
X73720333Y-30460666D01*
X73958428Y-30460666D01*
X74053666Y-30413047D01*
X74101285Y-30365428D01*
X74148904Y-30270190D01*
X74148904Y-30032095D01*
X74101285Y-29936857D01*
X74053666Y-29889238D01*
X73958428Y-29841619D01*
X73720333Y-29841619D01*
X73625095Y-29889238D01*
X73577476Y-29936857D01*
X74434619Y-30841619D02*
X74767952Y-29841619D01*
X75101285Y-30841619D01*
X76196523Y-29841619D02*
X76196523Y-30841619D01*
X76577476Y-30841619D01*
X76672714Y-30794000D01*
X76720333Y-30746380D01*
X76767952Y-30651142D01*
X76767952Y-30508285D01*
X76720333Y-30413047D01*
X76672714Y-30365428D01*
X76577476Y-30317809D01*
X76196523Y-30317809D01*
X77339380Y-29841619D02*
X77244142Y-29889238D01*
X77196523Y-29936857D01*
X77148904Y-30032095D01*
X77148904Y-30317809D01*
X77196523Y-30413047D01*
X77244142Y-30460666D01*
X77339380Y-30508285D01*
X77482238Y-30508285D01*
X77577476Y-30460666D01*
X77625095Y-30413047D01*
X77672714Y-30317809D01*
X77672714Y-30032095D01*
X77625095Y-29936857D01*
X77577476Y-29889238D01*
X77482238Y-29841619D01*
X77339380Y-29841619D01*
X78006047Y-30508285D02*
X78196523Y-29841619D01*
X78387000Y-30317809D01*
X78577476Y-29841619D01*
X78767952Y-30508285D01*
X79529857Y-29889238D02*
X79434619Y-29841619D01*
X79244142Y-29841619D01*
X79148904Y-29889238D01*
X79101285Y-29984476D01*
X79101285Y-30365428D01*
X79148904Y-30460666D01*
X79244142Y-30508285D01*
X79434619Y-30508285D01*
X79529857Y-30460666D01*
X79577476Y-30365428D01*
X79577476Y-30270190D01*
X79101285Y-30174952D01*
X80006047Y-29841619D02*
X80006047Y-30508285D01*
X80006047Y-30317809D02*
X80053666Y-30413047D01*
X80101285Y-30460666D01*
X80196523Y-30508285D01*
X80291761Y-30508285D01*
%TO.C,J3*%
X40485666Y-27920619D02*
X40485666Y-27206333D01*
X40438047Y-27063476D01*
X40342809Y-26968238D01*
X40199952Y-26920619D01*
X40104714Y-26920619D01*
X40866619Y-27920619D02*
X41485666Y-27920619D01*
X41152333Y-27539666D01*
X41295190Y-27539666D01*
X41390428Y-27492047D01*
X41438047Y-27444428D01*
X41485666Y-27349190D01*
X41485666Y-27111095D01*
X41438047Y-27015857D01*
X41390428Y-26968238D01*
X41295190Y-26920619D01*
X41009476Y-26920619D01*
X40914238Y-26968238D01*
X40866619Y-27015857D01*
X46321047Y-29936857D02*
X46273428Y-29889238D01*
X46130571Y-29841619D01*
X46035333Y-29841619D01*
X45892476Y-29889238D01*
X45797238Y-29984476D01*
X45749619Y-30079714D01*
X45702000Y-30270190D01*
X45702000Y-30413047D01*
X45749619Y-30603523D01*
X45797238Y-30698761D01*
X45892476Y-30794000D01*
X46035333Y-30841619D01*
X46130571Y-30841619D01*
X46273428Y-30794000D01*
X46321047Y-30746380D01*
X46892476Y-29841619D02*
X46797238Y-29889238D01*
X46749619Y-29936857D01*
X46702000Y-30032095D01*
X46702000Y-30317809D01*
X46749619Y-30413047D01*
X46797238Y-30460666D01*
X46892476Y-30508285D01*
X47035333Y-30508285D01*
X47130571Y-30460666D01*
X47178190Y-30413047D01*
X47225809Y-30317809D01*
X47225809Y-30032095D01*
X47178190Y-29936857D01*
X47130571Y-29889238D01*
X47035333Y-29841619D01*
X46892476Y-29841619D01*
X47654380Y-30508285D02*
X47654380Y-29841619D01*
X47654380Y-30413047D02*
X47702000Y-30460666D01*
X47797238Y-30508285D01*
X47940095Y-30508285D01*
X48035333Y-30460666D01*
X48082952Y-30365428D01*
X48082952Y-29841619D01*
X48559142Y-30508285D02*
X48559142Y-29841619D01*
X48559142Y-30413047D02*
X48606761Y-30460666D01*
X48701999Y-30508285D01*
X48844857Y-30508285D01*
X48940095Y-30460666D01*
X48987714Y-30365428D01*
X48987714Y-29841619D01*
X49844857Y-29889238D02*
X49749619Y-29841619D01*
X49559142Y-29841619D01*
X49463904Y-29889238D01*
X49416285Y-29984476D01*
X49416285Y-30365428D01*
X49463904Y-30460666D01*
X49559142Y-30508285D01*
X49749619Y-30508285D01*
X49844857Y-30460666D01*
X49892476Y-30365428D01*
X49892476Y-30270190D01*
X49416285Y-30174952D01*
X50749619Y-29889238D02*
X50654380Y-29841619D01*
X50463904Y-29841619D01*
X50368666Y-29889238D01*
X50321047Y-29936857D01*
X50273428Y-30032095D01*
X50273428Y-30317809D01*
X50321047Y-30413047D01*
X50368666Y-30460666D01*
X50463904Y-30508285D01*
X50654380Y-30508285D01*
X50749619Y-30460666D01*
X51035333Y-30508285D02*
X51416285Y-30508285D01*
X51178190Y-30841619D02*
X51178190Y-29984476D01*
X51225809Y-29889238D01*
X51321047Y-29841619D01*
X51416285Y-29841619D01*
X51749619Y-29841619D02*
X51749619Y-30508285D01*
X51749619Y-30841619D02*
X51701999Y-30794000D01*
X51749619Y-30746380D01*
X51797238Y-30794000D01*
X51749619Y-30841619D01*
X51749619Y-30746380D01*
X52368666Y-29841619D02*
X52273428Y-29889238D01*
X52225809Y-29936857D01*
X52178190Y-30032095D01*
X52178190Y-30317809D01*
X52225809Y-30413047D01*
X52273428Y-30460666D01*
X52368666Y-30508285D01*
X52511523Y-30508285D01*
X52606761Y-30460666D01*
X52654380Y-30413047D01*
X52701999Y-30317809D01*
X52701999Y-30032095D01*
X52654380Y-29936857D01*
X52606761Y-29889238D01*
X52511523Y-29841619D01*
X52368666Y-29841619D01*
X53130571Y-30508285D02*
X53130571Y-29841619D01*
X53130571Y-30413047D02*
X53178190Y-30460666D01*
X53273428Y-30508285D01*
X53416285Y-30508285D01*
X53511523Y-30460666D01*
X53559142Y-30365428D01*
X53559142Y-29841619D01*
X54654380Y-30508285D02*
X55035333Y-30508285D01*
X54797238Y-30841619D02*
X54797238Y-29984476D01*
X54844857Y-29889238D01*
X54940095Y-29841619D01*
X55035333Y-29841619D01*
X55511523Y-29841619D02*
X55416285Y-29889238D01*
X55368666Y-29936857D01*
X55321047Y-30032095D01*
X55321047Y-30317809D01*
X55368666Y-30413047D01*
X55416285Y-30460666D01*
X55511523Y-30508285D01*
X55654380Y-30508285D01*
X55749619Y-30460666D01*
X55797238Y-30413047D01*
X55844857Y-30317809D01*
X55844857Y-30032095D01*
X55797238Y-29936857D01*
X55749619Y-29889238D01*
X55654380Y-29841619D01*
X55511523Y-29841619D01*
X57606761Y-29841619D02*
X57273428Y-30317809D01*
X57035333Y-29841619D02*
X57035333Y-30841619D01*
X57416285Y-30841619D01*
X57511523Y-30794000D01*
X57559142Y-30746380D01*
X57606761Y-30651142D01*
X57606761Y-30508285D01*
X57559142Y-30413047D01*
X57511523Y-30365428D01*
X57416285Y-30317809D01*
X57035333Y-30317809D01*
X58368666Y-30365428D02*
X58035333Y-30365428D01*
X58035333Y-29841619D02*
X58035333Y-30841619D01*
X58511523Y-30841619D01*
X58797238Y-30841619D02*
X59416285Y-30841619D01*
X59082952Y-30460666D01*
X59225809Y-30460666D01*
X59321047Y-30413047D01*
X59368666Y-30365428D01*
X59416285Y-30270190D01*
X59416285Y-30032095D01*
X59368666Y-29936857D01*
X59321047Y-29889238D01*
X59225809Y-29841619D01*
X58940095Y-29841619D01*
X58844857Y-29889238D01*
X58797238Y-29936857D01*
X60035333Y-30841619D02*
X60130571Y-30841619D01*
X60225809Y-30794000D01*
X60273428Y-30746380D01*
X60321047Y-30651142D01*
X60368666Y-30460666D01*
X60368666Y-30222571D01*
X60321047Y-30032095D01*
X60273428Y-29936857D01*
X60225809Y-29889238D01*
X60130571Y-29841619D01*
X60035333Y-29841619D01*
X59940095Y-29889238D01*
X59892476Y-29936857D01*
X59844857Y-30032095D01*
X59797238Y-30222571D01*
X59797238Y-30460666D01*
X59844857Y-30651142D01*
X59892476Y-30746380D01*
X59940095Y-30794000D01*
X60035333Y-30841619D01*
X60987714Y-30841619D02*
X61082952Y-30841619D01*
X61178190Y-30794000D01*
X61225809Y-30746380D01*
X61273428Y-30651142D01*
X61321047Y-30460666D01*
X61321047Y-30222571D01*
X61273428Y-30032095D01*
X61225809Y-29936857D01*
X61178190Y-29889238D01*
X61082952Y-29841619D01*
X60987714Y-29841619D01*
X60892476Y-29889238D01*
X60844857Y-29936857D01*
X60797238Y-30032095D01*
X60749619Y-30222571D01*
X60749619Y-30460666D01*
X60797238Y-30651142D01*
X60844857Y-30746380D01*
X60892476Y-30794000D01*
X60987714Y-30841619D01*
X62511523Y-29841619D02*
X62511523Y-30841619D01*
X62987714Y-30508285D02*
X62987714Y-29841619D01*
X62987714Y-30413047D02*
X63035333Y-30460666D01*
X63130571Y-30508285D01*
X63273428Y-30508285D01*
X63368666Y-30460666D01*
X63416285Y-30365428D01*
X63416285Y-29841619D01*
X63749619Y-30508285D02*
X64130571Y-30508285D01*
X63892476Y-30841619D02*
X63892476Y-29984476D01*
X63940095Y-29889238D01*
X64035333Y-29841619D01*
X64130571Y-29841619D01*
X64844857Y-29889238D02*
X64749619Y-29841619D01*
X64559142Y-29841619D01*
X64463904Y-29889238D01*
X64416285Y-29984476D01*
X64416285Y-30365428D01*
X64463904Y-30460666D01*
X64559142Y-30508285D01*
X64749619Y-30508285D01*
X64844857Y-30460666D01*
X64892476Y-30365428D01*
X64892476Y-30270190D01*
X64416285Y-30174952D01*
X65321047Y-29841619D02*
X65321047Y-30508285D01*
X65321047Y-30317809D02*
X65368666Y-30413047D01*
X65416285Y-30460666D01*
X65511523Y-30508285D01*
X65606761Y-30508285D01*
X65797238Y-30508285D02*
X66178190Y-30508285D01*
X65940095Y-29841619D02*
X65940095Y-30698761D01*
X65987714Y-30794000D01*
X66082952Y-30841619D01*
X66178190Y-30841619D01*
X66940095Y-29841619D02*
X66940095Y-30365428D01*
X66892476Y-30460666D01*
X66797238Y-30508285D01*
X66606761Y-30508285D01*
X66511523Y-30460666D01*
X66940095Y-29889238D02*
X66844857Y-29841619D01*
X66606761Y-29841619D01*
X66511523Y-29889238D01*
X66463904Y-29984476D01*
X66463904Y-30079714D01*
X66511523Y-30174952D01*
X66606761Y-30222571D01*
X66844857Y-30222571D01*
X66940095Y-30270190D01*
X67844857Y-29889238D02*
X67749619Y-29841619D01*
X67559142Y-29841619D01*
X67463904Y-29889238D01*
X67416285Y-29936857D01*
X67368666Y-30032095D01*
X67368666Y-30317809D01*
X67416285Y-30413047D01*
X67463904Y-30460666D01*
X67559142Y-30508285D01*
X67749619Y-30508285D01*
X67844857Y-30460666D01*
X68654380Y-29889238D02*
X68559142Y-29841619D01*
X68368666Y-29841619D01*
X68273428Y-29889238D01*
X68225809Y-29984476D01*
X68225809Y-30365428D01*
X68273428Y-30460666D01*
X68368666Y-30508285D01*
X68559142Y-30508285D01*
X68654380Y-30460666D01*
X68702000Y-30365428D01*
X68702000Y-30270190D01*
X68225809Y-30174952D01*
%TD*%
M02*
