%TF.GenerationSoftware,KiCad,Pcbnew,(5.1.9)-1*%
%TF.CreationDate,2021-08-15T20:10:53+12:00*%
%TF.ProjectId,PyPilot_Main,50795069-6c6f-4745-9f4d-61696e2e6b69,rev?*%
%TF.SameCoordinates,Original*%
%TF.FileFunction,Copper,L1,Top*%
%TF.FilePolarity,Positive*%
%FSLAX46Y46*%
G04 Gerber Fmt 4.6, Leading zero omitted, Abs format (unit mm)*
G04 Created by KiCad (PCBNEW (5.1.9)-1) date 2021-08-15 20:10:53*
%MOMM*%
%LPD*%
G01*
G04 APERTURE LIST*
%TA.AperFunction,ComponentPad*%
%ADD10C,1.800000*%
%TD*%
%TA.AperFunction,ComponentPad*%
%ADD11C,1.524000*%
%TD*%
%TA.AperFunction,ComponentPad*%
%ADD12C,3.500000*%
%TD*%
%TA.AperFunction,ComponentPad*%
%ADD13O,1.800000X2.400000*%
%TD*%
%TA.AperFunction,ComponentPad*%
%ADD14O,1.700000X1.700000*%
%TD*%
%TA.AperFunction,ComponentPad*%
%ADD15R,1.700000X1.700000*%
%TD*%
%TA.AperFunction,ComponentPad*%
%ADD16O,1.600000X1.600000*%
%TD*%
%TA.AperFunction,ComponentPad*%
%ADD17C,1.600000*%
%TD*%
%TA.AperFunction,ComponentPad*%
%ADD18R,1.800000X1.800000*%
%TD*%
%TA.AperFunction,ComponentPad*%
%ADD19O,1.600000X2.400000*%
%TD*%
%TA.AperFunction,ComponentPad*%
%ADD20R,1.600000X2.400000*%
%TD*%
%TA.AperFunction,ComponentPad*%
%ADD21R,1.600000X1.600000*%
%TD*%
%TA.AperFunction,ComponentPad*%
%ADD22O,1.500000X2.200000*%
%TD*%
%TA.AperFunction,ComponentPad*%
%ADD23O,2.500000X1.500000*%
%TD*%
%TA.AperFunction,ComponentPad*%
%ADD24O,2.200000X1.500000*%
%TD*%
%TA.AperFunction,ComponentPad*%
%ADD25R,2.400000X2.400000*%
%TD*%
%TA.AperFunction,ComponentPad*%
%ADD26C,2.400000*%
%TD*%
%TA.AperFunction,Conductor*%
%ADD27C,0.500000*%
%TD*%
%TA.AperFunction,Conductor*%
%ADD28C,1.000000*%
%TD*%
%TA.AperFunction,Conductor*%
%ADD29C,0.300000*%
%TD*%
G04 APERTURE END LIST*
D10*
%TO.P,U3,3*%
%TO.N,RPi3.3V*%
X46430000Y-112250000D03*
%TO.P,U3,2*%
%TO.N,GND*%
X43890000Y-112250000D03*
%TO.P,U3,1*%
%TO.N,IR-Remote*%
%TA.AperFunction,ComponentPad*%
G36*
G01*
X40450000Y-112901600D02*
X40450000Y-111598400D01*
G75*
G02*
X40698400Y-111350000I248400J0D01*
G01*
X42001600Y-111350000D01*
G75*
G02*
X42250000Y-111598400I0J-248400D01*
G01*
X42250000Y-112901600D01*
G75*
G02*
X42001600Y-113150000I-248400J0D01*
G01*
X40698400Y-113150000D01*
G75*
G02*
X40450000Y-112901600I0J248400D01*
G01*
G37*
%TD.AperFunction*%
%TD*%
D11*
%TO.P,U2,*%
%TO.N,*%
X76192000Y-37990000D03*
X76192000Y-40530000D03*
X76192000Y-65163000D03*
X76192000Y-67733400D03*
D12*
%TO.P,U2,2*%
%TO.N,N/C*%
X77216000Y-72193000D03*
%TO.P,U2,3*%
X77216000Y-33505000D03*
%TO.P,U2,4*%
X37322000Y-33505000D03*
%TO.P,U2,1*%
X37322000Y-72193000D03*
D11*
%TO.P,U2,12*%
%TO.N,DISP1_CE*%
X38310000Y-66943000D03*
%TO.P,U2,11*%
%TO.N,DISP1_RST*%
X38300000Y-64423000D03*
%TO.P,U2,10*%
%TO.N,DISP1_DC*%
X38300000Y-61883000D03*
%TO.P,U2,9*%
%TO.N,DISP1_DIN(MOSI)*%
X38300000Y-59343000D03*
%TO.P,U2,8*%
%TO.N,DISP1_CLK*%
X38300000Y-56803000D03*
%TO.P,U2,7*%
%TO.N,+3V3*%
X38300000Y-54263000D03*
%TO.P,U2,6*%
%TO.N,GND*%
X38300000Y-51723000D03*
%TO.P,U2,5*%
%TO.N,Net-(R2-Pad2)*%
X38300000Y-49183000D03*
%TD*%
%TO.P,U4,5*%
%TO.N,Net-(R3-Pad2)*%
X83300000Y-49183000D03*
%TO.P,U4,6*%
%TO.N,GND*%
X83300000Y-51723000D03*
%TO.P,U4,7*%
%TO.N,+3V3*%
X83300000Y-54263000D03*
%TO.P,U4,8*%
%TO.N,DISP2_CLK*%
X83300000Y-56803000D03*
%TO.P,U4,9*%
%TO.N,DISP2_DIN(MOSI)*%
X83300000Y-59343000D03*
%TO.P,U4,10*%
%TO.N,DISP2_DC*%
X83300000Y-61883000D03*
%TO.P,U4,11*%
%TO.N,DISP2_RST*%
X83300000Y-64423000D03*
%TO.P,U4,12*%
%TO.N,DISP2_CE*%
X83310000Y-66943000D03*
D12*
%TO.P,U4,1*%
%TO.N,N/C*%
X82322000Y-72193000D03*
%TO.P,U4,4*%
X82322000Y-33505000D03*
%TO.P,U4,3*%
X122216000Y-33505000D03*
%TO.P,U4,2*%
X122216000Y-72193000D03*
D11*
%TO.P,U4,*%
%TO.N,*%
X121192000Y-67733400D03*
X121192000Y-65163000D03*
X121192000Y-40530000D03*
X121192000Y-37990000D03*
%TD*%
D13*
%TO.P,BZ1,2*%
%TO.N,GND2*%
X97343000Y-72525400D03*
%TO.P,BZ1,1*%
%TO.N,Buzzer*%
%TA.AperFunction,ComponentPad*%
G36*
G01*
X88956600Y-73275400D02*
X88956600Y-71775400D01*
G75*
G02*
X89406600Y-71325400I450000J0D01*
G01*
X90306600Y-71325400D01*
G75*
G02*
X90756600Y-71775400I0J-450000D01*
G01*
X90756600Y-73275400D01*
G75*
G02*
X90306600Y-73725400I-450000J0D01*
G01*
X89406600Y-73725400D01*
G75*
G02*
X88956600Y-73275400I0J450000D01*
G01*
G37*
%TD.AperFunction*%
%TD*%
D14*
%TO.P,J4,6*%
%TO.N,Net-(J4-Pad6)*%
X86476000Y-81166000D03*
%TO.P,J4,5*%
%TO.N,Net-(J4-Pad5)*%
X89016000Y-81166000D03*
%TO.P,J4,4*%
%TO.N,Net-(J4-Pad4)*%
X91556000Y-81166000D03*
%TO.P,J4,3*%
%TO.N,Net-(J4-Pad3)*%
X94096000Y-81166000D03*
%TO.P,J4,2*%
%TO.N,3V3*%
X96636000Y-81166000D03*
D15*
%TO.P,J4,1*%
%TO.N,GND2*%
X99176000Y-81166000D03*
%TD*%
D14*
%TO.P,JP4,2*%
%TO.N,Net-(JP4-Pad2)*%
X33850000Y-63210000D03*
D15*
%TO.P,JP4,1*%
%TO.N,TXRudderAngle3.3V*%
X33850000Y-65750000D03*
%TD*%
D14*
%TO.P,JP3,2*%
%TO.N,Net-(JP3-Pad2)*%
X34100000Y-54210000D03*
D15*
%TO.P,JP3,1*%
%TO.N,RXRudderAngle3.3V*%
X34100000Y-56750000D03*
%TD*%
D11*
%TO.P,U5,4*%
%TO.N,MPU9250_SDA*%
X47390000Y-100190000D03*
%TO.P,U5,3*%
%TO.N,MPU9250_SCL*%
X47390000Y-102730000D03*
%TO.P,U5,2*%
%TO.N,GND*%
X47390000Y-105270000D03*
%TO.P,U5,1*%
%TO.N,RPi3.3V*%
X47390000Y-107810000D03*
%TD*%
D16*
%TO.P,R16,2*%
%TO.N,RPI_AUX*%
X48510000Y-77750000D03*
D17*
%TO.P,R16,1*%
%TO.N,Net-(D7-Pad2)*%
X38350000Y-77750000D03*
%TD*%
D16*
%TO.P,R15,2*%
%TO.N,Arduino_AUX*%
X122480000Y-49725000D03*
D17*
%TO.P,R15,1*%
%TO.N,Net-(D6-Pad2)*%
X122480000Y-59885000D03*
%TD*%
D16*
%TO.P,R2,2*%
%TO.N,Net-(R2-Pad2)*%
X44505000Y-56660000D03*
D17*
%TO.P,R2,1*%
%TO.N,+3V3*%
X44505000Y-46500000D03*
%TD*%
D10*
%TO.P,D7,2*%
%TO.N,Net-(D7-Pad2)*%
X34215000Y-77665000D03*
D18*
%TO.P,D7,1*%
%TO.N,GND*%
X34215000Y-80205000D03*
%TD*%
D10*
%TO.P,D6,2*%
%TO.N,Net-(D6-Pad2)*%
X122480000Y-77665000D03*
D18*
%TO.P,D6,1*%
%TO.N,GND2*%
X122480000Y-80205000D03*
%TD*%
D19*
%TO.P,U7,8*%
%TO.N,RudderAngleRS422_A+*%
X48950000Y-36115000D03*
%TO.P,U7,4*%
%TO.N,GND*%
X56570000Y-43735000D03*
%TO.P,U7,7*%
%TO.N,RudderAngleRS422_B-*%
X51490000Y-36115000D03*
%TO.P,U7,3*%
%TO.N,Net-(JP4-Pad2)*%
X54030000Y-43735000D03*
%TO.P,U7,6*%
%TO.N,RudderAngleRS422_Z-*%
X54030000Y-36115000D03*
%TO.P,U7,2*%
%TO.N,Net-(JP3-Pad2)*%
X51490000Y-43735000D03*
%TO.P,U7,5*%
%TO.N,RudderAngleRS422_Y+*%
X56570000Y-36115000D03*
D20*
%TO.P,U7,1*%
%TO.N,+3V3*%
X48950000Y-43735000D03*
%TD*%
D19*
%TO.P,U6,8*%
%TO.N,MotorControllerRS422_A+*%
X66095000Y-36115000D03*
%TO.P,U6,4*%
%TO.N,GND*%
X73715000Y-43735000D03*
%TO.P,U6,7*%
%TO.N,MotorControllerRS422_B-*%
X68635000Y-36115000D03*
%TO.P,U6,3*%
%TO.N,TXMotorController3.3V*%
X71175000Y-43735000D03*
%TO.P,U6,6*%
%TO.N,MotorControllerRS422_Z-*%
X71175000Y-36115000D03*
%TO.P,U6,2*%
%TO.N,RXMotorController3.3V*%
X68635000Y-43735000D03*
%TO.P,U6,5*%
%TO.N,MotorControllerRS422_Y+*%
X73715000Y-36115000D03*
D20*
%TO.P,U6,1*%
%TO.N,+3V3*%
X66095000Y-43735000D03*
%TD*%
D16*
%TO.P,R7,2*%
%TO.N,RXMotorController3.3V*%
X66095000Y-48815000D03*
D17*
%TO.P,R7,1*%
%TO.N,Net-(D5-Pad1)*%
X66095000Y-58975000D03*
%TD*%
D16*
%TO.P,R9,2*%
%TO.N,MotorControllerRS422_B-*%
X70540000Y-32940000D03*
D17*
%TO.P,R9,1*%
%TO.N,MotorControllerRS422_A+*%
X60380000Y-32940000D03*
%TD*%
D16*
%TO.P,R8,2*%
%TO.N,RudderAngleRS422_B-*%
X54030000Y-32940000D03*
D17*
%TO.P,R8,1*%
%TO.N,RudderAngleRS422_A+*%
X43870000Y-32940000D03*
%TD*%
D16*
%TO.P,R6,2*%
%TO.N,RXRudderAngle3.3V*%
X118875000Y-84815000D03*
D17*
%TO.P,R6,1*%
%TO.N,Net-(D4-Pad1)*%
X118875000Y-94975000D03*
%TD*%
D16*
%TO.P,R5,2*%
%TO.N,TXMotorController3.3V*%
X69270000Y-48815000D03*
D17*
%TO.P,R5,1*%
%TO.N,Net-(D3-Pad1)*%
X69270000Y-58975000D03*
%TD*%
D16*
%TO.P,R4,2*%
%TO.N,TXRudderAngle3.3V*%
X122050000Y-84815000D03*
D17*
%TO.P,R4,1*%
%TO.N,Net-(D2-Pad1)*%
X122050000Y-94975000D03*
%TD*%
D10*
%TO.P,D5,2*%
%TO.N,+3V3*%
X65706000Y-64270000D03*
D18*
%TO.P,D5,1*%
%TO.N,Net-(D5-Pad1)*%
X65706000Y-61730000D03*
%TD*%
D10*
%TO.P,D4,2*%
%TO.N,+3V3*%
X122850000Y-106790000D03*
D18*
%TO.P,D4,1*%
%TO.N,Net-(D4-Pad1)*%
X122850000Y-104250000D03*
%TD*%
D10*
%TO.P,D3,2*%
%TO.N,+3V3*%
X70532000Y-64270000D03*
D18*
%TO.P,D3,1*%
%TO.N,Net-(D3-Pad1)*%
X70532000Y-61730000D03*
%TD*%
D10*
%TO.P,D2,2*%
%TO.N,+3V3*%
X122850000Y-100290000D03*
D18*
%TO.P,D2,1*%
%TO.N,Net-(D2-Pad1)*%
X122850000Y-97750000D03*
%TD*%
D17*
%TO.P,C6,2*%
%TO.N,+3V3*%
X44505000Y-42385000D03*
%TO.P,C6,1*%
%TO.N,GND*%
X44505000Y-37385000D03*
%TD*%
%TO.P,C5,2*%
%TO.N,+3V3*%
X61650000Y-43020000D03*
%TO.P,C5,1*%
%TO.N,GND*%
X61650000Y-38020000D03*
%TD*%
%TO.P,C4,2*%
%TO.N,GND*%
X91365000Y-25635000D03*
D21*
%TO.P,C4,1*%
%TO.N,+5V*%
X91365000Y-28135000D03*
%TD*%
D17*
%TO.P,C2,2*%
%TO.N,GND*%
X85015000Y-24405000D03*
%TO.P,C2,1*%
%TO.N,+5V*%
X85015000Y-29405000D03*
%TD*%
D10*
%TO.P,D1,2*%
%TO.N,+3V3*%
X106640000Y-42000000D03*
D18*
%TO.P,D1,1*%
%TO.N,Net-(D1-Pad1)*%
X104100000Y-42000000D03*
%TD*%
D11*
%TO.P,U1,3*%
%TO.N,GND*%
X112955000Y-31945000D03*
%TO.P,U1,2*%
%TO.N,+3V3*%
X110415000Y-31945000D03*
%TO.P,U1,1*%
%TO.N,+5V*%
X107875000Y-31945000D03*
%TD*%
D16*
%TO.P,R14,2*%
%TO.N,GND*%
X88825000Y-42740000D03*
D17*
%TO.P,R14,1*%
%TO.N,KeyPad*%
X98985000Y-42740000D03*
%TD*%
D16*
%TO.P,R13,2*%
%TO.N,KeyPad*%
X89460000Y-54170000D03*
D17*
%TO.P,R13,1*%
%TO.N,Net-(J4-Pad6)*%
X89460000Y-64330000D03*
%TD*%
D16*
%TO.P,R12,2*%
%TO.N,KeyPad*%
X92635000Y-54170000D03*
D17*
%TO.P,R12,1*%
%TO.N,Net-(J4-Pad5)*%
X92635000Y-64330000D03*
%TD*%
D16*
%TO.P,R11,2*%
%TO.N,KeyPad*%
X95810000Y-54170000D03*
D17*
%TO.P,R11,1*%
%TO.N,Net-(J4-Pad4)*%
X95810000Y-64330000D03*
%TD*%
D16*
%TO.P,R10,2*%
%TO.N,KeyPad*%
X98988000Y-54170000D03*
D17*
%TO.P,R10,1*%
%TO.N,Net-(J4-Pad3)*%
X98988000Y-64330000D03*
%TD*%
D16*
%TO.P,R3,2*%
%TO.N,Net-(R3-Pad2)*%
X88940000Y-46000000D03*
D17*
%TO.P,R3,1*%
%TO.N,+3V3*%
X99100000Y-46000000D03*
%TD*%
D16*
%TO.P,R1,2*%
%TO.N,Net-(D1-Pad1)*%
X98985000Y-39565000D03*
D17*
%TO.P,R1,1*%
%TO.N,GND*%
X88825000Y-39565000D03*
%TD*%
D14*
%TO.P,J2,40*%
%TO.N,N/C*%
X61650000Y-86280000D03*
%TO.P,J2,39*%
X61650000Y-88820000D03*
%TO.P,J2,38*%
X64190000Y-86280000D03*
%TO.P,J2,37*%
%TO.N,KB_Tack*%
X64190000Y-88820000D03*
%TO.P,J2,36*%
%TO.N,RPI_AUX*%
X66730000Y-86280000D03*
%TO.P,J2,35*%
%TO.N,N/C*%
X66730000Y-88820000D03*
%TO.P,J2,34*%
X69270000Y-86280000D03*
%TO.P,J2,33*%
X69270000Y-88820000D03*
%TO.P,J2,32*%
X71810000Y-86280000D03*
%TO.P,J2,31*%
%TO.N,KB_Port_10*%
X71810000Y-88820000D03*
%TO.P,J2,30*%
%TO.N,N/C*%
X74350000Y-86280000D03*
%TO.P,J2,29*%
%TO.N,KB_Stb_10*%
X74350000Y-88820000D03*
%TO.P,J2,28*%
%TO.N,N/C*%
X76890000Y-86280000D03*
%TO.P,J2,27*%
X76890000Y-88820000D03*
%TO.P,J2,26*%
X79430000Y-86280000D03*
%TO.P,J2,25*%
X79430000Y-88820000D03*
%TO.P,J2,24*%
%TO.N,DISP1_CE*%
X81970000Y-86280000D03*
%TO.P,J2,23*%
%TO.N,DISP1_CLK*%
X81970000Y-88820000D03*
%TO.P,J2,22*%
%TO.N,DISP1_DC*%
X84510000Y-86280000D03*
%TO.P,J2,21*%
%TO.N,N/C*%
X84510000Y-88820000D03*
%TO.P,J2,20*%
X87050000Y-86280000D03*
%TO.P,J2,19*%
%TO.N,DISP1_DIN(MOSI)*%
X87050000Y-88820000D03*
%TO.P,J2,18*%
%TO.N,DISP1_RST*%
X89590000Y-86280000D03*
%TO.P,J2,17*%
%TO.N,N/C*%
X89590000Y-88820000D03*
%TO.P,J2,16*%
%TO.N,KB_Menue*%
X92130000Y-86280000D03*
%TO.P,J2,15*%
%TO.N,KB_Stb_1*%
X92130000Y-88820000D03*
%TO.P,J2,14*%
%TO.N,N/C*%
X94670000Y-86280000D03*
%TO.P,J2,13*%
%TO.N,KB_Port_1*%
X94670000Y-88820000D03*
%TO.P,J2,12*%
%TO.N,KB_Select*%
X97210000Y-86280000D03*
%TO.P,J2,11*%
%TO.N,KB_Auto*%
X97210000Y-88820000D03*
%TO.P,J2,10*%
%TO.N,RXMotorController3.3V*%
X99750000Y-86280000D03*
%TO.P,J2,9*%
%TO.N,N/C*%
X99750000Y-88820000D03*
%TO.P,J2,8*%
%TO.N,TXMotorController3.3V*%
X102290000Y-86280000D03*
%TO.P,J2,7*%
%TO.N,IR-Remote*%
X102290000Y-88820000D03*
%TO.P,J2,6*%
%TO.N,GND2*%
X104830000Y-86280000D03*
%TO.P,J2,5*%
%TO.N,MPU9250_SCL*%
X104830000Y-88820000D03*
%TO.P,J2,4*%
%TO.N,5VBridge*%
X107370000Y-86280000D03*
%TO.P,J2,3*%
%TO.N,MPU9250_SDA*%
X107370000Y-88820000D03*
%TO.P,J2,2*%
%TO.N,5VBridge*%
X109910000Y-86280000D03*
D15*
%TO.P,J2,1*%
%TO.N,RPi3.3V*%
X109910000Y-88820000D03*
%TD*%
D17*
%TO.P,C3,2*%
%TO.N,GND*%
X98985000Y-25635000D03*
D21*
%TO.P,C3,1*%
%TO.N,+3V3*%
X98985000Y-28135000D03*
%TD*%
D17*
%TO.P,C1,2*%
%TO.N,GND*%
X99065000Y-35120000D03*
%TO.P,C1,1*%
%TO.N,+3V3*%
X104065000Y-35120000D03*
%TD*%
D22*
%TO.P,A1,28*%
%TO.N,Net-(A1-Pad28)*%
X107878000Y-49450000D03*
%TO.P,A1,27*%
%TO.N,KeyPad*%
X105338000Y-49450000D03*
D23*
%TO.P,A1,26*%
%TO.N,N/C*%
X105719000Y-66087000D03*
%TO.P,A1,25*%
X105719000Y-68627000D03*
%TO.P,A1,27*%
%TO.N,KeyPad*%
X105719000Y-58213000D03*
D24*
%TO.P,A1,28*%
%TO.N,Net-(A1-Pad28)*%
X105719000Y-55673000D03*
D23*
%TO.P,A1,24*%
%TO.N,5VBridge*%
X102798000Y-77390000D03*
%TO.P,A1,23*%
%TO.N,GND2*%
X102798000Y-74850000D03*
%TO.P,A1,22*%
%TO.N,N/C*%
X102798000Y-72310000D03*
%TO.P,A1,21*%
%TO.N,3V3*%
X102798000Y-69770000D03*
%TO.P,A1,20*%
%TO.N,KB_Stb_1*%
X102798000Y-67230000D03*
%TO.P,A1,19*%
%TO.N,KB_Port_10*%
X102798000Y-64690000D03*
%TO.P,A1,18*%
%TO.N,KB_Stb_10*%
X102798000Y-62150000D03*
%TO.P,A1,17*%
%TO.N,KB_Tack*%
X102798000Y-59610000D03*
%TO.P,A1,16*%
%TO.N,DISP2_CLK*%
X102798000Y-57070000D03*
%TO.P,A1,15*%
%TO.N,N/C*%
X102798000Y-54530000D03*
%TO.P,A1,14*%
%TO.N,DISP2_DIN(MOSI)*%
X102798000Y-51990000D03*
%TO.P,A1,13*%
%TO.N,DISP2_CE*%
X102798000Y-49450000D03*
%TO.P,A1,12*%
%TO.N,DISP2_DC*%
X118038000Y-49450000D03*
%TO.P,A1,11*%
%TO.N,DISP2_RST*%
X118038000Y-51990000D03*
%TO.P,A1,10*%
%TO.N,Buzzer*%
X118038000Y-54530000D03*
%TO.P,A1,9*%
%TO.N,Arduino_AUX*%
X118038000Y-57070000D03*
%TO.P,A1,8*%
%TO.N,KB_Port_1*%
X118038000Y-59610000D03*
%TO.P,A1,7*%
%TO.N,KB_Menue*%
X118038000Y-62150000D03*
%TO.P,A1,6*%
%TO.N,KB_Select*%
X118038000Y-64690000D03*
%TO.P,A1,5*%
%TO.N,KB_Auto*%
X118038000Y-67230000D03*
%TO.P,A1,4*%
%TO.N,N/C*%
X118038000Y-69770000D03*
%TO.P,A1,3*%
X118038000Y-72310000D03*
%TO.P,A1,2*%
%TO.N,RXRudderAngle3.3V*%
X118038000Y-74850000D03*
%TO.P,A1,1*%
%TO.N,TXRudderAngle3.3V*%
X118038000Y-77390000D03*
%TD*%
D25*
%TO.P,J1,1*%
%TO.N,+5V*%
X79935000Y-27500000D03*
D26*
%TO.P,J1,2*%
%TO.N,GND*%
X76435000Y-27500000D03*
%TO.P,J1,3*%
X72935000Y-27500000D03*
%TD*%
D25*
%TO.P,J3,1*%
%TO.N,MotorControllerRS422_Y+*%
X68251000Y-27500000D03*
D26*
%TO.P,J3,2*%
%TO.N,MotorControllerRS422_Z-*%
X64751000Y-27500000D03*
%TO.P,J3,3*%
%TO.N,MotorControllerRS422_B-*%
X61251000Y-27500000D03*
%TO.P,J3,4*%
%TO.N,MotorControllerRS422_A+*%
X57751000Y-27500000D03*
%TO.P,J3,5*%
%TO.N,RudderAngleRS422_Y+*%
X54251000Y-27500000D03*
%TO.P,J3,6*%
%TO.N,RudderAngleRS422_Z-*%
X50751000Y-27500000D03*
%TO.P,J3,7*%
%TO.N,RudderAngleRS422_B-*%
X47251000Y-27500000D03*
%TO.P,J3,8*%
%TO.N,RudderAngleRS422_A+*%
X43751000Y-27500000D03*
%TD*%
D11*
%TO.P,JP1,2*%
%TO.N,5VBridge*%
X111685000Y-82745000D03*
%TO.P,JP1,1*%
%TO.N,+5V*%
X111685000Y-38549000D03*
%TD*%
%TO.P,JP2,1*%
%TO.N,GND2*%
X109145000Y-82745000D03*
%TO.P,JP2,2*%
%TO.N,GND*%
X109145000Y-38549000D03*
%TD*%
D27*
%TO.N,KeyPad*%
X98985000Y-42740000D02*
X100255000Y-42740000D01*
X105338000Y-47823000D02*
X105338000Y-49450000D01*
X100255000Y-42740000D02*
X105338000Y-47823000D01*
D28*
%TO.N,+5V*%
X116130000Y-34739000D02*
X111685000Y-38549000D01*
X116130000Y-30040000D02*
X116130000Y-34739000D01*
X114860000Y-28770000D02*
X116130000Y-30040000D01*
X108510000Y-28770000D02*
X114860000Y-28770000D01*
X107875000Y-29405000D02*
X108510000Y-28770000D01*
X107875000Y-31945000D02*
X107875000Y-29405000D01*
D29*
%TO.N,Buzzer*%
X104677369Y-56823010D02*
X103774349Y-55919990D01*
X103774349Y-55919990D02*
X89930010Y-55919990D01*
X115744990Y-56823010D02*
X104677369Y-56823010D01*
X118038000Y-54530000D02*
X115744990Y-56823010D01*
X89930010Y-58570821D02*
X87600000Y-60900831D01*
X89930010Y-55919990D02*
X89930010Y-58570821D01*
X87600000Y-60900831D02*
X87600000Y-64750000D01*
X89856600Y-67006600D02*
X89856600Y-72525400D01*
X87600000Y-64750000D02*
X89856600Y-67006600D01*
%TO.N,DISP2_RST*%
X116887990Y-53140010D02*
X118038000Y-51990000D01*
X101581671Y-53140010D02*
X116887990Y-53140010D01*
X99831661Y-51390000D02*
X101581671Y-53140010D01*
X87210000Y-51390000D02*
X99831661Y-51390000D01*
X86850000Y-51750000D02*
X87210000Y-51390000D01*
X86850000Y-60873000D02*
X86850000Y-51750000D01*
X83300000Y-64423000D02*
X86850000Y-60873000D01*
%TO.N,DISP2_DC*%
X80850000Y-59433000D02*
X83300000Y-61883000D01*
X84209001Y-55640999D02*
X81459001Y-55640999D01*
X86260010Y-50839990D02*
X86260010Y-53589990D01*
X104751631Y-50839990D02*
X86260010Y-50839990D01*
X80850000Y-56250000D02*
X80850000Y-59433000D01*
X104861651Y-50950010D02*
X104751631Y-50839990D01*
X81459001Y-55640999D02*
X80850000Y-56250000D01*
X86260010Y-53589990D02*
X84209001Y-55640999D01*
X116537990Y-50950010D02*
X104861651Y-50950010D01*
X118038000Y-49450000D02*
X116537990Y-50950010D01*
D27*
%TO.N,KB_Port_1*%
X97985010Y-92651000D02*
X123322110Y-92651000D01*
X94670000Y-89352000D02*
X95111500Y-89793500D01*
X94670000Y-88820000D02*
X94670000Y-89352000D01*
X95111500Y-89793500D02*
X97969000Y-92651000D01*
X94653990Y-89335990D02*
X95111500Y-89793500D01*
X120300000Y-59610000D02*
X118038000Y-59610000D01*
X125147000Y-64892880D02*
X120300000Y-59610000D01*
X125600000Y-65345880D02*
X125147000Y-64892880D01*
X125600000Y-90547000D02*
X125600000Y-65345880D01*
X123496000Y-92651000D02*
X125600000Y-90547000D01*
%TO.N,KB_Auto*%
X97210000Y-88820000D02*
X100025000Y-91635000D01*
X100025000Y-91635000D02*
X123115000Y-91635000D01*
X124360001Y-90389999D02*
X123877000Y-90873000D01*
X123115000Y-91635000D02*
X123877000Y-90873000D01*
X124600000Y-90150000D02*
X124235001Y-90514999D01*
X124600000Y-71250000D02*
X124600000Y-90150000D01*
X124360001Y-71010001D02*
X124600000Y-71250000D01*
X124360001Y-71036001D02*
X124360001Y-71010001D01*
X124235001Y-90514999D02*
X123877000Y-90873000D01*
X120575000Y-69918000D02*
X123242000Y-69918000D01*
X118038000Y-67381000D02*
X120575000Y-69918000D01*
X123242000Y-69918000D02*
X124360001Y-71036001D01*
X118038000Y-67230000D02*
X118038000Y-67381000D01*
D28*
%TO.N,GND*%
X112955000Y-31945000D02*
X112955000Y-33395000D01*
X109145000Y-37205000D02*
X109145000Y-38549000D01*
X112955000Y-33395000D02*
X109145000Y-37205000D01*
X88825000Y-39565000D02*
X88825000Y-42740000D01*
X88825000Y-39565000D02*
X92850000Y-35540000D01*
X98645000Y-35540000D02*
X99065000Y-35120000D01*
X92850000Y-35540000D02*
X98645000Y-35540000D01*
X44505000Y-37385000D02*
X38465000Y-37385000D01*
X38465000Y-37385000D02*
X35850000Y-40000000D01*
X35850000Y-40000000D02*
X35850000Y-51000000D01*
X35850000Y-51000000D02*
X31850000Y-51000000D01*
X31850000Y-51000000D02*
X31350000Y-51500000D01*
X31350000Y-51500000D02*
X31350000Y-80000000D01*
X31555000Y-80205000D02*
X34215000Y-80205000D01*
X31350000Y-80000000D02*
X31555000Y-80205000D01*
X31350000Y-105040000D02*
X31350000Y-80000000D01*
X31580000Y-105270000D02*
X31350000Y-105040000D01*
X44505000Y-37385000D02*
X46235000Y-37385000D01*
X46235000Y-37385000D02*
X48850000Y-40000000D01*
X59670000Y-40000000D02*
X61650000Y-38020000D01*
X61650000Y-38020000D02*
X63630000Y-40000000D01*
X63630000Y-40000000D02*
X73350000Y-40000000D01*
X73715000Y-40365000D02*
X73715000Y-43735000D01*
X73350000Y-40000000D02*
X73715000Y-40365000D01*
X61650000Y-38020000D02*
X61650000Y-35700000D01*
X61650000Y-35700000D02*
X66850000Y-30500000D01*
X69935000Y-30500000D02*
X72935000Y-27500000D01*
X66850000Y-30500000D02*
X69935000Y-30500000D01*
X56570000Y-40280000D02*
X56850000Y-40000000D01*
X56570000Y-43735000D02*
X56570000Y-40280000D01*
X56850000Y-40000000D02*
X59670000Y-40000000D01*
X48850000Y-40000000D02*
X56850000Y-40000000D01*
X83300000Y-51494762D02*
X83300000Y-51723000D01*
X83300000Y-51723000D02*
X80877000Y-51723000D01*
X80877000Y-51723000D02*
X80100000Y-50946000D01*
X88514990Y-43050010D02*
X88825000Y-42740000D01*
X80100000Y-43500000D02*
X80549990Y-43050010D01*
X80549990Y-43050010D02*
X88514990Y-43050010D01*
X80100000Y-50946000D02*
X80100000Y-43500000D01*
X35850000Y-51000000D02*
X36573000Y-51723000D01*
X36573000Y-51723000D02*
X38300000Y-51723000D01*
X43890000Y-105540000D02*
X43620000Y-105270000D01*
X43890000Y-112250000D02*
X43890000Y-105540000D01*
X43620000Y-105270000D02*
X31580000Y-105270000D01*
X47390000Y-105270000D02*
X43620000Y-105270000D01*
D27*
%TO.N,RXRudderAngle3.3V*%
X118038000Y-74850000D02*
X118700000Y-74850000D01*
X121029999Y-77179999D02*
X121029999Y-81429999D01*
X118700000Y-74850000D02*
X121029999Y-77179999D01*
X123350001Y-83750001D02*
X123350001Y-86249999D01*
X121029999Y-81429999D02*
X123350001Y-83750001D01*
X123350001Y-86249999D02*
X122850000Y-86750000D01*
X120810000Y-86750000D02*
X118875000Y-84815000D01*
X122850000Y-86750000D02*
X120810000Y-86750000D01*
%TO.N,TXRudderAngle3.3V*%
X118038000Y-80803000D02*
X122050000Y-84815000D01*
X118038000Y-77390000D02*
X118038000Y-80803000D01*
D28*
%TO.N,+3V3*%
X110415000Y-31945000D02*
X110415000Y-33435000D01*
X108730000Y-35120000D02*
X104065000Y-35120000D01*
X110415000Y-33435000D02*
X108730000Y-35120000D01*
X98985000Y-28135000D02*
X102485000Y-28135000D01*
X104065000Y-29715000D02*
X104065000Y-35120000D01*
X102485000Y-28135000D02*
X104065000Y-29715000D01*
X104065000Y-35120000D02*
X104065000Y-37715000D01*
X104065000Y-37715000D02*
X104700000Y-38350000D01*
X83300000Y-54034762D02*
X83300000Y-54263000D01*
X44505000Y-42385000D02*
X44505000Y-46500000D01*
X44600000Y-46500000D02*
X44505000Y-46500000D01*
X97185000Y-28135000D02*
X83570000Y-41750000D01*
X98985000Y-28135000D02*
X97185000Y-28135000D01*
X66095000Y-43735000D02*
X65865000Y-43735000D01*
X65865000Y-43735000D02*
X65850000Y-43750000D01*
X67835010Y-45735010D02*
X75335010Y-45735010D01*
X65850000Y-43750000D02*
X67835010Y-45735010D01*
X75335010Y-45735010D02*
X75335010Y-44514990D01*
X78100000Y-41750000D02*
X83570000Y-41750000D01*
X75335010Y-44514990D02*
X78100000Y-41750000D01*
X75335010Y-45735010D02*
X80100000Y-54250000D01*
X83287000Y-54250000D02*
X83300000Y-54263000D01*
X80100000Y-54250000D02*
X83287000Y-54250000D01*
X65706000Y-64270000D02*
X63370000Y-64270000D01*
X61100000Y-43570000D02*
X61650000Y-43020000D01*
X61100000Y-62000000D02*
X61100000Y-43570000D01*
X63370000Y-64270000D02*
X61100000Y-62000000D01*
X96850000Y-43750000D02*
X99100000Y-46000000D01*
X96600000Y-43500000D02*
X96850000Y-43750000D01*
X96885000Y-37715000D02*
X96600000Y-38000000D01*
X96600000Y-38000000D02*
X96600000Y-43500000D01*
X104065000Y-37715000D02*
X96885000Y-37715000D01*
D29*
X106640000Y-42000000D02*
X106640000Y-39790000D01*
D28*
X104700000Y-38350000D02*
X104950000Y-38350000D01*
X106640000Y-40040000D02*
X106640000Y-42000000D01*
X104950000Y-38350000D02*
X106640000Y-40040000D01*
D27*
%TO.N,Net-(D1-Pad1)*%
X104100000Y-42000000D02*
X103100000Y-42000000D01*
X100665000Y-39565000D02*
X98985000Y-39565000D01*
X103100000Y-42000000D02*
X100665000Y-39565000D01*
%TO.N,DISP1_CLK*%
X81970000Y-88820000D02*
X81920000Y-88820000D01*
X81920000Y-88820000D02*
X82100000Y-89000000D01*
X82100000Y-89000000D02*
X82100000Y-94750000D01*
X82100000Y-94750000D02*
X81600000Y-95250000D01*
X81600000Y-95250000D02*
X40600000Y-95250000D01*
X40600000Y-95250000D02*
X40600000Y-72250000D01*
X39311002Y-71000000D02*
X37061002Y-68750000D01*
X39350000Y-71000000D02*
X39311002Y-71000000D01*
X40600000Y-72250000D02*
X39350000Y-71000000D01*
X36100000Y-59003000D02*
X38300000Y-56803000D01*
X36100000Y-67500000D02*
X36100000Y-59003000D01*
X37061002Y-68750000D02*
X36100000Y-67500000D01*
%TO.N,DISP1_DC*%
X84510000Y-86280000D02*
X82730000Y-84500000D01*
D29*
X82730000Y-84500000D02*
X54600000Y-84500000D01*
D27*
X54600000Y-84500000D02*
X50600000Y-80500000D01*
X50600000Y-80500000D02*
X50600000Y-66750000D01*
X45733000Y-61883000D02*
X38300000Y-61883000D01*
X50600000Y-66750000D02*
X45733000Y-61883000D01*
%TO.N,DISP1_DIN(MOSI)*%
X38300000Y-59343000D02*
X44943000Y-59343000D01*
X44943000Y-59343000D02*
X50850000Y-65250000D01*
X50850000Y-65250000D02*
X52100000Y-66500000D01*
X52100000Y-66500000D02*
X52100000Y-80250000D01*
X52100000Y-80250000D02*
X55350000Y-83500000D01*
X55350000Y-83500000D02*
X84350000Y-83500000D01*
X84350000Y-83500000D02*
X85600000Y-84750000D01*
D29*
X85799999Y-84949999D02*
X85600000Y-84750000D01*
X85799999Y-87569999D02*
X85799999Y-84949999D01*
X87050000Y-88820000D02*
X85799999Y-87569999D01*
D27*
%TO.N,RXMotorController3.3V*%
X67850000Y-50570000D02*
X66095000Y-48815000D01*
X71420000Y-50570000D02*
X67850000Y-50570000D01*
X73350000Y-78500000D02*
X73350000Y-52500000D01*
X73350000Y-52500000D02*
X71420000Y-50570000D01*
X77600000Y-82750000D02*
X73350000Y-78500000D01*
X84660674Y-82750000D02*
X77600000Y-82750000D01*
X85910674Y-84000000D02*
X84660674Y-82750000D01*
X97470000Y-84000000D02*
X85910674Y-84000000D01*
X99750000Y-86280000D02*
X97470000Y-84000000D01*
%TO.N,TXMotorController3.3V*%
X74350000Y-52250000D02*
X70915000Y-48815000D01*
X70915000Y-48815000D02*
X69270000Y-48815000D01*
X74350000Y-78439326D02*
X74350000Y-52250000D01*
X84721348Y-81750000D02*
X77660674Y-81750000D01*
X85971348Y-83000000D02*
X84721348Y-81750000D01*
X77660674Y-81750000D02*
X74350000Y-78439326D01*
X99010000Y-83000000D02*
X85971348Y-83000000D01*
X102290000Y-86280000D02*
X99010000Y-83000000D01*
%TO.N,Net-(J4-Pad5)*%
X92635000Y-64330000D02*
X92635000Y-77715000D01*
X89184000Y-81166000D02*
X89016000Y-81166000D01*
X92635000Y-77715000D02*
X89184000Y-81166000D01*
%TO.N,Net-(J4-Pad4)*%
X95810000Y-64330000D02*
X95810000Y-70040000D01*
X95810000Y-70040000D02*
X94100000Y-71750000D01*
X94100000Y-78622000D02*
X91556000Y-81166000D01*
X94100000Y-71750000D02*
X94100000Y-78622000D01*
%TO.N,Net-(J4-Pad3)*%
X98988000Y-64330000D02*
X98988000Y-68112000D01*
X98988000Y-68112000D02*
X95350000Y-71750000D01*
X95350000Y-79912000D02*
X94096000Y-81166000D01*
X95350000Y-71750000D02*
X95350000Y-79912000D01*
%TO.N,Net-(R2-Pad2)*%
X38300000Y-49183000D02*
X41033000Y-49183000D01*
X41033000Y-49183000D02*
X44350000Y-53500000D01*
X44350000Y-53500000D02*
X44505000Y-56660000D01*
%TO.N,Net-(R3-Pad2)*%
X83300000Y-49183000D02*
X83300000Y-46800000D01*
X83300000Y-46800000D02*
X84100000Y-46000000D01*
X84100000Y-46000000D02*
X88940000Y-46000000D01*
%TO.N,Net-(D7-Pad2)*%
X38265000Y-77665000D02*
X38350000Y-77750000D01*
X34215000Y-77665000D02*
X38265000Y-77665000D01*
D28*
%TO.N,5VBridge*%
X102798000Y-77390000D02*
X108235000Y-77390000D01*
X108235000Y-77390000D02*
X111685000Y-80840000D01*
X111685000Y-80840000D02*
X111685000Y-82745000D01*
%TO.N,GND2*%
X102819000Y-74871000D02*
X102798000Y-74850000D01*
X109018000Y-74871000D02*
X102819000Y-74871000D01*
X114225000Y-84015000D02*
X114225000Y-80078000D01*
X114225000Y-80078000D02*
X109018000Y-74871000D01*
X111304000Y-84904000D02*
X113336000Y-84904000D01*
X113336000Y-84904000D02*
X114225000Y-84015000D01*
X109145000Y-82745000D02*
X111304000Y-84904000D01*
X97343000Y-72525400D02*
X97875400Y-72525400D01*
X100200000Y-74850000D02*
X102798000Y-74850000D01*
X97875400Y-72525400D02*
X100200000Y-74850000D01*
X106600000Y-84000000D02*
X109145000Y-82745000D01*
X104830000Y-86280000D02*
X106600000Y-84000000D01*
D27*
%TO.N,Net-(J4-Pad6)*%
X89460000Y-64330000D02*
X91884990Y-66754990D01*
X91884990Y-66754990D02*
X91884990Y-76965010D01*
X91884990Y-76965010D02*
X89850000Y-79000000D01*
X88642000Y-79000000D02*
X86476000Y-81166000D01*
X89850000Y-79000000D02*
X88642000Y-79000000D01*
%TD*%
M02*
