%TF.GenerationSoftware,KiCad,Pcbnew,(5.1.9)-1*%
%TF.CreationDate,2021-08-15T20:10:53+12:00*%
%TF.ProjectId,PyPilot_Main,50795069-6c6f-4745-9f4d-61696e2e6b69,rev?*%
%TF.SameCoordinates,Original*%
%TF.FileFunction,Soldermask,Top*%
%TF.FilePolarity,Negative*%
%FSLAX46Y46*%
G04 Gerber Fmt 4.6, Leading zero omitted, Abs format (unit mm)*
G04 Created by KiCad (PCBNEW (5.1.9)-1) date 2021-08-15 20:10:53*
%MOMM*%
%LPD*%
G01*
G04 APERTURE LIST*
%ADD10C,1.800000*%
%ADD11C,1.524000*%
%ADD12C,3.500000*%
%ADD13O,1.800000X2.400000*%
%ADD14O,1.700000X1.700000*%
%ADD15R,1.700000X1.700000*%
%ADD16C,3.200000*%
%ADD17O,1.600000X1.600000*%
%ADD18C,1.600000*%
%ADD19R,1.800000X1.800000*%
%ADD20O,1.600000X2.400000*%
%ADD21R,1.600000X2.400000*%
%ADD22R,1.600000X1.600000*%
%ADD23O,1.500000X2.200000*%
%ADD24O,2.500000X1.500000*%
%ADD25O,2.200000X1.500000*%
%ADD26R,2.400000X2.400000*%
%ADD27C,2.400000*%
G04 APERTURE END LIST*
D10*
%TO.C,U3*%
X46430000Y-112250000D03*
X43890000Y-112250000D03*
G36*
G01*
X40450000Y-112901600D02*
X40450000Y-111598400D01*
G75*
G02*
X40698400Y-111350000I248400J0D01*
G01*
X42001600Y-111350000D01*
G75*
G02*
X42250000Y-111598400I0J-248400D01*
G01*
X42250000Y-112901600D01*
G75*
G02*
X42001600Y-113150000I-248400J0D01*
G01*
X40698400Y-113150000D01*
G75*
G02*
X40450000Y-112901600I0J248400D01*
G01*
G37*
%TD*%
D11*
%TO.C,U2*%
X76192000Y-37990000D03*
X76192000Y-40530000D03*
X76192000Y-65163000D03*
X76192000Y-67733400D03*
D12*
X77216000Y-72193000D03*
X77216000Y-33505000D03*
X37322000Y-33505000D03*
X37322000Y-72193000D03*
D11*
X38310000Y-66943000D03*
X38300000Y-64423000D03*
X38300000Y-61883000D03*
X38300000Y-59343000D03*
X38300000Y-56803000D03*
X38300000Y-54263000D03*
X38300000Y-51723000D03*
X38300000Y-49183000D03*
%TD*%
%TO.C,U4*%
X83300000Y-49183000D03*
X83300000Y-51723000D03*
X83300000Y-54263000D03*
X83300000Y-56803000D03*
X83300000Y-59343000D03*
X83300000Y-61883000D03*
X83300000Y-64423000D03*
X83310000Y-66943000D03*
D12*
X82322000Y-72193000D03*
X82322000Y-33505000D03*
X122216000Y-33505000D03*
X122216000Y-72193000D03*
D11*
X121192000Y-67733400D03*
X121192000Y-65163000D03*
X121192000Y-40530000D03*
X121192000Y-37990000D03*
%TD*%
D13*
%TO.C,BZ1*%
X97343000Y-72525400D03*
G36*
G01*
X88956600Y-73275400D02*
X88956600Y-71775400D01*
G75*
G02*
X89406600Y-71325400I450000J0D01*
G01*
X90306600Y-71325400D01*
G75*
G02*
X90756600Y-71775400I0J-450000D01*
G01*
X90756600Y-73275400D01*
G75*
G02*
X90306600Y-73725400I-450000J0D01*
G01*
X89406600Y-73725400D01*
G75*
G02*
X88956600Y-73275400I0J450000D01*
G01*
G37*
%TD*%
D14*
%TO.C,J4*%
X86476000Y-81166000D03*
X89016000Y-81166000D03*
X91556000Y-81166000D03*
X94096000Y-81166000D03*
X96636000Y-81166000D03*
D15*
X99176000Y-81166000D03*
%TD*%
D14*
%TO.C,JP4*%
X33850000Y-63210000D03*
D15*
X33850000Y-65750000D03*
%TD*%
D14*
%TO.C,JP3*%
X34100000Y-54210000D03*
D15*
X34100000Y-56750000D03*
%TD*%
D11*
%TO.C,U5*%
X47390000Y-100190000D03*
X47390000Y-102730000D03*
X47390000Y-105270000D03*
X47390000Y-107810000D03*
%TD*%
D16*
%TO.C,H2*%
X34350000Y-114500000D03*
%TD*%
D17*
%TO.C,R16*%
X48510000Y-77750000D03*
D18*
X38350000Y-77750000D03*
%TD*%
D17*
%TO.C,R15*%
X122480000Y-49725000D03*
D18*
X122480000Y-59885000D03*
%TD*%
D17*
%TO.C,R2*%
X44505000Y-56660000D03*
D18*
X44505000Y-46500000D03*
%TD*%
D10*
%TO.C,D7*%
X34215000Y-77665000D03*
D19*
X34215000Y-80205000D03*
%TD*%
D10*
%TO.C,D6*%
X122480000Y-77665000D03*
D19*
X122480000Y-80205000D03*
%TD*%
D20*
%TO.C,U7*%
X48950000Y-36115000D03*
X56570000Y-43735000D03*
X51490000Y-36115000D03*
X54030000Y-43735000D03*
X54030000Y-36115000D03*
X51490000Y-43735000D03*
X56570000Y-36115000D03*
D21*
X48950000Y-43735000D03*
%TD*%
D20*
%TO.C,U6*%
X66095000Y-36115000D03*
X73715000Y-43735000D03*
X68635000Y-36115000D03*
X71175000Y-43735000D03*
X71175000Y-36115000D03*
X68635000Y-43735000D03*
X73715000Y-36115000D03*
D21*
X66095000Y-43735000D03*
%TD*%
D17*
%TO.C,R7*%
X66095000Y-48815000D03*
D18*
X66095000Y-58975000D03*
%TD*%
D17*
%TO.C,R9*%
X70540000Y-32940000D03*
D18*
X60380000Y-32940000D03*
%TD*%
D17*
%TO.C,R8*%
X54030000Y-32940000D03*
D18*
X43870000Y-32940000D03*
%TD*%
D17*
%TO.C,R6*%
X118875000Y-84815000D03*
D18*
X118875000Y-94975000D03*
%TD*%
D17*
%TO.C,R5*%
X69270000Y-48815000D03*
D18*
X69270000Y-58975000D03*
%TD*%
D17*
%TO.C,R4*%
X122050000Y-84815000D03*
D18*
X122050000Y-94975000D03*
%TD*%
D10*
%TO.C,D5*%
X65706000Y-64270000D03*
D19*
X65706000Y-61730000D03*
%TD*%
D10*
%TO.C,D4*%
X122850000Y-106790000D03*
D19*
X122850000Y-104250000D03*
%TD*%
D10*
%TO.C,D3*%
X70532000Y-64270000D03*
D19*
X70532000Y-61730000D03*
%TD*%
D10*
%TO.C,D2*%
X122850000Y-100290000D03*
D19*
X122850000Y-97750000D03*
%TD*%
D18*
%TO.C,C6*%
X44505000Y-42385000D03*
X44505000Y-37385000D03*
%TD*%
%TO.C,C5*%
X61650000Y-43020000D03*
X61650000Y-38020000D03*
%TD*%
%TO.C,C4*%
X91365000Y-25635000D03*
D22*
X91365000Y-28135000D03*
%TD*%
D18*
%TO.C,C2*%
X85015000Y-24405000D03*
X85015000Y-29405000D03*
%TD*%
D10*
%TO.C,D1*%
X106640000Y-42000000D03*
D19*
X104100000Y-42000000D03*
%TD*%
D16*
%TO.C,H4*%
X34350000Y-26500000D03*
%TD*%
%TO.C,H3*%
X122350000Y-114500000D03*
%TD*%
%TO.C,H1*%
X122350000Y-26500000D03*
%TD*%
D11*
%TO.C,U1*%
X112955000Y-31945000D03*
X110415000Y-31945000D03*
X107875000Y-31945000D03*
%TD*%
D17*
%TO.C,R14*%
X88825000Y-42740000D03*
D18*
X98985000Y-42740000D03*
%TD*%
D17*
%TO.C,R13*%
X89460000Y-54170000D03*
D18*
X89460000Y-64330000D03*
%TD*%
D17*
%TO.C,R12*%
X92635000Y-54170000D03*
D18*
X92635000Y-64330000D03*
%TD*%
D17*
%TO.C,R11*%
X95810000Y-54170000D03*
D18*
X95810000Y-64330000D03*
%TD*%
D17*
%TO.C,R10*%
X98988000Y-54170000D03*
D18*
X98988000Y-64330000D03*
%TD*%
D17*
%TO.C,R3*%
X88940000Y-46000000D03*
D18*
X99100000Y-46000000D03*
%TD*%
D17*
%TO.C,R1*%
X98985000Y-39565000D03*
D18*
X88825000Y-39565000D03*
%TD*%
D14*
%TO.C,J2*%
X61650000Y-86280000D03*
X61650000Y-88820000D03*
X64190000Y-86280000D03*
X64190000Y-88820000D03*
X66730000Y-86280000D03*
X66730000Y-88820000D03*
X69270000Y-86280000D03*
X69270000Y-88820000D03*
X71810000Y-86280000D03*
X71810000Y-88820000D03*
X74350000Y-86280000D03*
X74350000Y-88820000D03*
X76890000Y-86280000D03*
X76890000Y-88820000D03*
X79430000Y-86280000D03*
X79430000Y-88820000D03*
X81970000Y-86280000D03*
X81970000Y-88820000D03*
X84510000Y-86280000D03*
X84510000Y-88820000D03*
X87050000Y-86280000D03*
X87050000Y-88820000D03*
X89590000Y-86280000D03*
X89590000Y-88820000D03*
X92130000Y-86280000D03*
X92130000Y-88820000D03*
X94670000Y-86280000D03*
X94670000Y-88820000D03*
X97210000Y-86280000D03*
X97210000Y-88820000D03*
X99750000Y-86280000D03*
X99750000Y-88820000D03*
X102290000Y-86280000D03*
X102290000Y-88820000D03*
X104830000Y-86280000D03*
X104830000Y-88820000D03*
X107370000Y-86280000D03*
X107370000Y-88820000D03*
X109910000Y-86280000D03*
D15*
X109910000Y-88820000D03*
%TD*%
D18*
%TO.C,C3*%
X98985000Y-25635000D03*
D22*
X98985000Y-28135000D03*
%TD*%
D18*
%TO.C,C1*%
X99065000Y-35120000D03*
X104065000Y-35120000D03*
%TD*%
D23*
%TO.C,A1*%
X107878000Y-49450000D03*
X105338000Y-49450000D03*
D24*
X105719000Y-66087000D03*
X105719000Y-68627000D03*
X105719000Y-58213000D03*
D25*
X105719000Y-55673000D03*
D24*
X102798000Y-77390000D03*
X102798000Y-74850000D03*
X102798000Y-72310000D03*
X102798000Y-69770000D03*
X102798000Y-67230000D03*
X102798000Y-64690000D03*
X102798000Y-62150000D03*
X102798000Y-59610000D03*
X102798000Y-57070000D03*
X102798000Y-54530000D03*
X102798000Y-51990000D03*
X102798000Y-49450000D03*
X118038000Y-49450000D03*
X118038000Y-51990000D03*
X118038000Y-54530000D03*
X118038000Y-57070000D03*
X118038000Y-59610000D03*
X118038000Y-62150000D03*
X118038000Y-64690000D03*
X118038000Y-67230000D03*
X118038000Y-69770000D03*
X118038000Y-72310000D03*
X118038000Y-74850000D03*
X118038000Y-77390000D03*
%TD*%
D26*
%TO.C,J1*%
X79935000Y-27500000D03*
D27*
X76435000Y-27500000D03*
X72935000Y-27500000D03*
%TD*%
D26*
%TO.C,J3*%
X68251000Y-27500000D03*
D27*
X64751000Y-27500000D03*
X61251000Y-27500000D03*
X57751000Y-27500000D03*
X54251000Y-27500000D03*
X50751000Y-27500000D03*
X47251000Y-27500000D03*
X43751000Y-27500000D03*
%TD*%
D11*
%TO.C,JP1*%
X111685000Y-82745000D03*
X111685000Y-38549000D03*
%TD*%
%TO.C,JP2*%
X109145000Y-82745000D03*
X109145000Y-38549000D03*
%TD*%
M02*
