M48
; DRILL file {KiCad (5.1.9)-1} date 08/15/21 20:11:04
; FORMAT={-:-/ absolute / metric / decimal}
; #@! TF.CreationDate,2021-08-15T20:11:04+12:00
; #@! TF.GenerationSoftware,Kicad,Pcbnew,(5.1.9)-1
; #@! TF.FileFunction,Plated,1,2,PTH
FMAT,2
METRIC
T1C0.762
T2C0.800
T3C0.900
T4C1.000
T5C1.016
T6C1.200
T7C2.600
%
G90
G05
T1
X38.3Y-49.183
X38.3Y-51.723
X38.3Y-54.263
X38.3Y-56.803
X38.3Y-59.343
X38.3Y-61.883
X38.3Y-64.423
X38.31Y-66.943
X47.39Y-100.19
X47.39Y-102.73
X47.39Y-105.27
X47.39Y-107.81
X76.192Y-37.99
X76.192Y-40.53
X76.192Y-65.163
X76.192Y-67.733
X83.3Y-49.183
X83.3Y-51.723
X83.3Y-54.263
X83.3Y-56.803
X83.3Y-59.343
X83.3Y-61.883
X83.3Y-64.423
X83.31Y-66.943
X107.875Y-31.945
X109.145Y-38.549
X109.145Y-82.745
X110.415Y-31.945
X111.685Y-38.549
X111.685Y-82.745
X112.955Y-31.945
X121.192Y-37.99
X121.192Y-40.53
X121.192Y-65.163
X121.192Y-67.733
T2
X38.35Y-77.75
X43.87Y-32.94
X44.505Y-37.385
X44.505Y-42.385
X44.505Y-46.5
X44.505Y-56.66
X48.51Y-77.75
X48.95Y-36.115
X48.95Y-43.735
X51.49Y-36.115
X51.49Y-43.735
X54.03Y-32.94
X54.03Y-36.115
X54.03Y-43.735
X56.57Y-36.115
X56.57Y-43.735
X60.38Y-32.94
X61.65Y-38.02
X61.65Y-43.02
X66.095Y-36.115
X66.095Y-43.735
X66.095Y-48.815
X66.095Y-58.975
X68.635Y-36.115
X68.635Y-43.735
X69.27Y-48.815
X69.27Y-58.975
X70.54Y-32.94
X71.175Y-36.115
X71.175Y-43.735
X73.715Y-36.115
X73.715Y-43.735
X85.015Y-24.405
X85.015Y-29.405
X88.825Y-39.565
X88.825Y-42.74
X88.94Y-46.0
X89.46Y-54.17
X89.46Y-64.33
X91.365Y-25.635
X91.365Y-28.135
X92.635Y-54.17
X92.635Y-64.33
X95.81Y-54.17
X95.81Y-64.33
X98.985Y-25.635
X98.985Y-28.135
X98.985Y-39.565
X98.985Y-42.74
X98.988Y-54.17
X98.988Y-64.33
X99.065Y-35.12
X99.1Y-46.0
X104.065Y-35.12
X118.875Y-84.815
X118.875Y-94.975
X122.05Y-84.815
X122.05Y-94.975
X122.48Y-49.725
X122.48Y-59.885
T3
X34.215Y-77.665
X34.215Y-80.205
X41.35Y-112.25
X43.89Y-112.25
X46.43Y-112.25
X65.706Y-61.73
X65.706Y-64.27
X70.532Y-61.73
X70.532Y-64.27
X104.1Y-42.0
X106.64Y-42.0
X122.48Y-77.665
X122.48Y-80.205
X122.85Y-97.75
X122.85Y-100.29
X122.85Y-104.25
X122.85Y-106.79
T4
X33.85Y-63.21
X33.85Y-65.75
X34.1Y-54.21
X34.1Y-56.75
X61.65Y-86.28
X61.65Y-88.82
X64.19Y-86.28
X64.19Y-88.82
X66.73Y-86.28
X66.73Y-88.82
X69.27Y-86.28
X69.27Y-88.82
X71.81Y-86.28
X71.81Y-88.82
X74.35Y-86.28
X74.35Y-88.82
X76.89Y-86.28
X76.89Y-88.82
X79.43Y-86.28
X79.43Y-88.82
X81.97Y-86.28
X81.97Y-88.82
X84.51Y-86.28
X84.51Y-88.82
X86.476Y-81.166
X87.05Y-86.28
X87.05Y-88.82
X89.016Y-81.166
X89.59Y-86.28
X89.59Y-88.82
X89.857Y-72.525
X91.556Y-81.166
X92.13Y-86.28
X92.13Y-88.82
X94.096Y-81.166
X94.67Y-86.28
X94.67Y-88.82
X96.636Y-81.166
X97.21Y-86.28
X97.21Y-88.82
X97.343Y-72.525
X99.176Y-81.166
X99.75Y-86.28
X99.75Y-88.82
X102.29Y-86.28
X102.29Y-88.82
X104.83Y-86.28
X104.83Y-88.82
X107.37Y-86.28
X107.37Y-88.82
X109.91Y-86.28
X109.91Y-88.82
T5
X102.798Y-49.45
X102.798Y-51.99
X102.798Y-54.53
X102.798Y-57.07
X102.798Y-59.61
X102.798Y-62.15
X102.798Y-64.69
X102.798Y-67.23
X102.798Y-69.77
X102.798Y-72.31
X102.798Y-74.85
X102.798Y-77.39
X105.338Y-49.45
X105.719Y-55.673
X105.719Y-58.213
X105.719Y-66.087
X105.719Y-68.627
X107.878Y-49.45
X118.038Y-49.45
X118.038Y-51.99
X118.038Y-54.53
X118.038Y-57.07
X118.038Y-59.61
X118.038Y-62.15
X118.038Y-64.69
X118.038Y-67.23
X118.038Y-69.77
X118.038Y-72.31
X118.038Y-74.85
X118.038Y-77.39
T6
X43.751Y-27.5
X47.251Y-27.5
X50.751Y-27.5
X54.251Y-27.5
X57.751Y-27.5
X61.251Y-27.5
X64.751Y-27.5
X68.251Y-27.5
X72.935Y-27.5
X76.435Y-27.5
X79.935Y-27.5
T7
X37.322Y-33.505
X37.322Y-72.193
X77.216Y-33.505
X77.216Y-72.193
X82.322Y-33.505
X82.322Y-72.193
X122.216Y-33.505
X122.216Y-72.193
T0
M30
