M48
; DRILL file {KiCad (5.1.9)-1} date 06/21/21 17:42:28
; FORMAT={-:-/ absolute / metric / decimal}
; #@! TF.CreationDate,2021-06-21T17:42:28+12:00
; #@! TF.GenerationSoftware,Kicad,Pcbnew,(5.1.9)-1
; #@! TF.FileFunction,Plated,1,2,PTH
FMAT,2
METRIC
T1C0.762
T2C0.800
T3C0.900
T4C1.000
T5C1.100
T6C1.300
T7C1.400
T8C1.600
T9C2.600
%
G90
G05
T1
X146.05Y-90.17
X148.59Y-90.17
X172.06Y-42.443
X172.06Y-83.464
X174.6Y-42.443
X174.6Y-83.464
X177.14Y-42.443
X177.14Y-83.464
X179.68Y-42.443
X179.68Y-83.464
X182.22Y-42.443
X182.22Y-83.464
X184.76Y-42.443
X184.76Y-83.464
X187.3Y-42.443
X187.3Y-83.464
X189.84Y-42.443
X189.84Y-83.464
T2
X99.06Y-115.57
X99.14Y-58.42
X99.14Y-93.98
X99.14Y-100.33
X101.6Y-128.27
X101.6Y-132.08
X101.6Y-135.89
X101.6Y-139.7
X101.6Y-143.51
X102.87Y-38.1
X102.87Y-40.6
X104.14Y-58.42
X104.14Y-93.98
X104.14Y-100.33
X109.22Y-39.37
X109.22Y-115.57
X109.855Y-59.182
X109.855Y-62.992
X109.855Y-66.802
X111.76Y-82.63
X111.76Y-87.63
X111.76Y-105.41
X111.76Y-110.41
X111.76Y-128.27
X111.76Y-132.08
X111.76Y-135.89
X111.76Y-139.7
X111.76Y-143.51
X114.22Y-39.37
X117.555Y-45.085
X118.785Y-51.435
X120.015Y-59.182
X120.015Y-62.992
X120.015Y-66.802
X121.285Y-51.435
X122.555Y-45.085
X126.365Y-60.96
X126.365Y-63.5
X126.365Y-66.04
X132.08Y-39.37
X142.24Y-39.37
X143.51Y-77.47
X143.51Y-80.645
X143.51Y-83.82
X143.51Y-86.995
X144.018Y-68.58
X144.018Y-72.39
X145.923Y-101.6
X146.05Y-93.98
X146.05Y-97.79
X146.05Y-105.41
X152.44Y-110.49
X153.67Y-77.47
X153.67Y-80.645
X153.67Y-83.82
X153.67Y-86.995
X154.178Y-68.58
X154.178Y-72.39
X154.94Y-110.49
X156.083Y-101.6
X156.21Y-93.98
X156.21Y-97.79
X156.21Y-105.41
X173.736Y-97.028
X173.736Y-124.46
X179.705Y-108.585
X179.705Y-112.395
X179.705Y-137.16
X179.705Y-140.335
X182.88Y-100.33
X182.88Y-105.33
X182.88Y-127.635
X182.88Y-132.635
X183.896Y-97.028
X183.896Y-124.46
X187.325Y-97.155
X187.325Y-104.775
X187.325Y-125.095
X187.325Y-132.715
X189.865Y-97.155
X189.865Y-104.775
X189.865Y-108.585
X189.865Y-112.395
X189.865Y-125.095
X189.865Y-132.715
X189.865Y-137.16
X189.865Y-140.335
X192.405Y-97.155
X192.405Y-104.775
X192.405Y-125.095
X192.405Y-132.715
X194.945Y-97.155
X194.945Y-104.775
X194.945Y-125.095
X194.945Y-132.715
T3
X99.06Y-120.65
X101.6Y-120.65
X141.732Y-118.11
X141.732Y-120.65
X147.32Y-40.64
X147.32Y-43.18
X148.717Y-118.11
X148.717Y-120.65
X155.575Y-118.11
X155.575Y-120.65
X172.085Y-130.175
X172.085Y-132.715
X172.085Y-137.795
X172.085Y-140.335
X173.355Y-103.505
X173.355Y-106.045
X173.355Y-110.49
X173.355Y-113.03
T4
X100.33Y-64.135
X100.33Y-106.68
X100.33Y-111.76
X102.87Y-64.135
X102.87Y-106.68
X102.87Y-111.76
X116.84Y-77.47
X116.84Y-80.01
X116.84Y-82.55
X116.84Y-85.09
X116.84Y-87.63
X116.84Y-90.17
X116.84Y-92.71
X116.84Y-95.25
X116.84Y-97.79
X116.84Y-100.33
X116.84Y-102.87
X116.84Y-105.41
X116.84Y-107.95
X116.84Y-110.49
X116.84Y-113.03
X120.65Y-77.47
X120.65Y-80.01
X120.65Y-82.55
X120.65Y-85.09
X120.65Y-87.63
X120.65Y-90.17
X120.65Y-92.71
X120.65Y-95.25
X120.65Y-97.79
X120.65Y-100.33
X120.65Y-102.87
X120.65Y-105.41
X120.65Y-107.95
X120.65Y-110.49
X120.65Y-113.03
X120.65Y-124.46
X123.19Y-124.46
X125.73Y-124.46
X128.27Y-124.46
X130.81Y-124.46
X135.89Y-77.47
X135.89Y-80.01
X135.89Y-82.55
X135.89Y-85.09
X135.89Y-87.63
X135.89Y-90.17
X135.89Y-92.71
X135.89Y-95.25
X135.89Y-97.79
X135.89Y-100.33
X135.89Y-102.87
X135.89Y-105.41
X135.89Y-107.95
X135.89Y-110.49
X135.89Y-113.03
X139.7Y-77.47
X139.7Y-80.01
X139.7Y-82.55
X139.7Y-85.09
X139.7Y-87.63
X139.7Y-90.17
X139.7Y-92.71
X139.7Y-95.25
X139.7Y-97.79
X139.7Y-100.33
X139.7Y-102.87
X139.7Y-105.41
X139.7Y-107.95
X139.7Y-110.49
X139.7Y-113.03
X164.211Y-111.76
X164.338Y-104.902
X166.751Y-111.76
X166.878Y-104.902
T5
X105.41Y-46.355
X107.95Y-46.355
X110.49Y-46.355
X118.11Y-39.37
X128.27Y-39.37
T6
X118.11Y-131.01
X118.11Y-143.51
X123.11Y-131.01
X123.11Y-143.51
X132.08Y-131.01
X132.08Y-143.51
X137.08Y-131.01
X137.08Y-143.51
X146.05Y-131.01
X146.05Y-143.51
X151.05Y-131.01
X151.05Y-143.51
X159.399Y-131.01
X159.399Y-143.51
X164.399Y-131.01
X164.399Y-143.51
T7
X91.44Y-40.64
X91.44Y-45.72
X91.44Y-55.88
X91.44Y-60.96
X91.44Y-71.12
X91.44Y-76.2
X91.44Y-81.28
X91.44Y-91.44
X91.44Y-96.52
X91.44Y-106.68
X91.44Y-111.76
X91.44Y-116.84
X91.44Y-127.0
X91.44Y-132.08
X91.44Y-137.16
X91.44Y-142.24
X101.6Y-68.58
X101.6Y-88.9
X210.82Y-67.31
X210.82Y-72.39
X210.82Y-81.28
X210.82Y-86.36
X210.82Y-91.44
X210.82Y-96.52
X210.82Y-106.68
X210.82Y-111.76
X210.82Y-116.84
X210.82Y-121.92
X210.82Y-127.0
X210.82Y-132.08
X210.82Y-137.16
X210.82Y-142.24
T8
X99.06Y-52.705
X114.3Y-52.705
T9
X160.426Y-42.443
X160.426Y-83.464
X201.447Y-42.443
X201.447Y-83.464
T0
M30
